<mxfile host="65bd71144e">
    <diagram id="jXBxyc5eZ0CVXnpKNv8c" name="第 1 页">
        <mxGraphModel dx="2579" dy="1020" grid="1" gridSize="10" guides="1" tooltips="1" connect="1" arrows="1" fold="1" page="1" pageScale="1" pageWidth="827" pageHeight="1169" math="0" shadow="0">
            <root>
                <mxCell id="0"/>
                <mxCell id="1" parent="0"/>
                <mxCell id="2" value="" style="shape=image;verticalLabelPosition=bottom;labelBackgroundColor=default;verticalAlign=top;aspect=fixed;imageAspect=0;image=data:image/png,iVBORw0KGgoAAAANSUhEUgAAA1sAAALhCAYAAACpGr6iAAAgAElEQVR4nOzdf5RU9Z3n/2dyjGuqqkGgu0sFGrppCaahkR4BMSENNiA942byHWUTXScRzqi4h+yaGBN/DPmeDasxYfyxE8/4I3M0kzgmGXBPNpvvgkorPRgVyDTS0tHBpttuwFjdzc+uqjiMJ/n+UVVdt27de+tW1a1f3a/HOZxD3frcz/30/fl538+P+ti8+Vf8cXbdDN7/YIhz584hIiIiIiIi+ft4qQsgIiIiIiIyHinYEhERERERKQAFWyIiIiIiIgWgYEtERERERKQAFGxNUK1t7Vktd5s2m/ULlZfXvChHvnl4cbzEG61t7Rn/5Zt/Kdd3ys9t3vmer+P9vC70OTQe6J4nIuPFeaUugLjj9gHT2bHDMQ+r7+2W56KzY4en+WWSz4O3mGU0bsvt/inG8ZLcZLrOSqmQ16BT3oU8XzPt00q8HvI9h7I5z+y2ZXVvyievfMpiVZ5My0VEKoGCrQqR6UHj5mFkVVHy6iFmftCaPxfqAeom33y2k1g31zys1nObXyGPl5SO07WR7fF1quDafVeo86fQ52u+lfzxyO1LG6f1zcfI6fhlyitTOXTPE5GJqEjBVpCmthbo3kHPsH2q6gXtNNFF51uh4hSrQKoXtNPkP8z+N44QLcL2snkYWVX8rfLLlCZTvvkqhwessQy5BFyJ/ejUHcZN5cPps1X+pd5vE0G+FfzEMbI6R6zydjqmxT7e2ZRlQpyvvjksXjaXaIbnm9lEChLL4RklIlIqRQm2fPVzqY4cZr/Tg8g3h/raMP2vlzbQKnag5IZd60rigWOsuNkFBZnGRLl9o2jXguW03XxalawU48GaT4uUMb1Tfpm277RMb4BLqxDdCEvRcpPPGKpMLR753l+s7m/jiZfnULYBeqZ0TsfBbvvl8owSESk3RQi2AlQHA0RDIcfgxRe8BF/kfUbKJcIpQ05dPjI9dOwedtk+rJwedOb8vOx655RXpoe01edcxg0k1sv0dzm1ZNmxe5ub7/GSiSebcS9uu6G5bYH16v6Sqay6DtK57e6XTV65HL9SP6NERMpN4YOtmrnU+0P09IcdEgWpbwgw0l0+rUnlKp+3e1601tjla/fZ/GbSbRm9DAKzGXfgJtDLVD43x8bN31eo4yX5K1QrS67do/Lt8uoFna/ZKXVLXbb3ZrfK8RklIlJKBQ+2qi8KwlAXI06JaqZTTSir/u5AvK/8JYRe38NgWpRmHicW+1xtSDFi+91cFrfNHfsU7dvD/pRgMUDdlcup9yc+h+jpMP2NkTDRmhZam4P2aXLk9dvpfN8ietl1sFQPVDddZYwS+8ppHafALdO+LuTxyo35nAci6d1tffXLWdwQSC4YSh2DadVNN7ZOxHB9JK/d/oAxP4trKD5exmezPQBSrkObNFko9P7OpdtcvudCPt3QEusX4nw1t5Q7lbmgx8V0DqU/E8KMRkzXiMN5Vg6Bg9v9mktQWG7PKBGRUipssOWbQ30tjHQ7VWwC1M1xEZA5rF/lh7QmMV8AH2FCkfg2rpxOqGMHPYmv65ezuHk5da/vYTAaoid+8848ZisemEUOs78jkSZI04IgI8YHa20Lrf7D7O/oIhqvqDZdOceTsWC5vDXMlD7XgGm8PPhy+Ruy6YpoFZg5VRwKdbxyVb1gOfUYz3mrNO001Ybo6diTEjS1XpnbGMjq5nbDdRa/hhYEkxXYeAU42reHzkTFt6aFpprki5tkILcjXqZYPq0Lsgu48mmFKMX1YT63su3Clcv2Erw6X+26o+VTzlwkXiCMGCbA8NW3UOfrMrzkC1C/bDkj3TvoHCb+EqCFpprkOpVyDmW6r7lRTs8oEZFSK2iwFRuHddi5xcoXJOgP0+8YkNmIhlMqcCmzGfon4yNCNAoQZvCNrtRVQ+8TbZhrHag5qF7QEmuFS6k8huh5y5Qw5a1/mJFQmPqGyfiy21yaXLtZOL2tzOWBZQwe3IyZctqOXdpc3mTa9fcv1oPZHFRZBVlWXb6s0ljla05XHAF8fmKttXZJxl6sGF+ahOjpDtHafAnVviMWrc8ZpLQMhIlGAH8AHyGiBGlqjr2kSWlhGO4ae6GS7J68x1CmMINHQtQ3x1rT3b7gySawLpVSvvX36nwt7XluwTeHpoYA0b49Kc+xaH8Xg6akxmCM6BH6h+bSdFEQhmPncCWcQwn5tHSWyzNKRKRcFDDYilV0on3OE2NUz5mLL3I4x4kxIoxGIBgIwLCfYC2AoRIVOZPctrkrUVx2m41XOoeOe9IdMFtuu1nYfW+Vh1VXnEzd24zpjHnb5e+mklHo8QvFqog6vY2163bo1LKV7/HyRiJAaaG1Dcvug7GXGyH6zS9Who8zQkvWLzUAouFIyueRt3bQmfjgC+ADRj5weEkTT+NrbqfV4m/y5fjmw4v9XYzxOvm2VhnzybVlLNvzNVMXSuPyolTG/ZPxEaY/5DTm2Fo0HIZg4uVAqkJcs16fU07H0akMpX5GiYiUm8IFW4lxWBkmxgjWksfEGLG33b6AP1axGuqihxaCNRAN+IEz8bIkuxuNvQWPj/WoJJkqT9l2y8mnDF7ln6kCl0urVi7rFpJdkOU2EC1kGVwb7qKzg7HrJjam0btxiIU0kuXvH+Ui25YAp6CiGIFYvpzGIxaa1Xbt5H3e58EXCGROZJBPa5IXf58X5105PKNERMpNwYKtgk6MYRANhyEQ67IY/WAPI4RouihIiMBYtydfwA+E6HcM/Nwwd2UqjXwCiUzjOPLpdpfrOJFMZXVblmz7/BeaU0UvlzFxXh+vnESPsL/jyFjQFayBkWHirciGzwk106kmTH/ELsNcy5G4tgMwbHNdu0njkWz2vTFtPudooca1WLUYuT3Hyu58zVfkDFGCObTMuuh6a1LK/WHVwyDfMWbl+IwSESmFwgRbrn6gODYxRrRvT15vxqPhCATn0lQbob8D4DgjzXOpj0A0NjtGvDuSP9ltyDCDmflBGA2HodZ+jMnIkcNEl81l8YKwYTxJkKYF0JPHDGfZyuUhY36bXogHlV33wmzl20pVDg9huyDL7ju79b3Yn5531Yx3rwolgqhoiFBkLvXNLVQbZxWMj6tKXEux6ys5djE5e2G20ViI/r4wixuW0xQ2tFzVtNBEV/yzTZo8VFJFL5uA3siLbmBO+WQrn32d93mfGHs1NplSbLGvvoXqUJftOERf/SLqbcYie3kOeXVNF+LFVLk+o0REiq0gwZarHyiOT4wRyqEvfIrIGaL+IL6hw/EKXojQUAtNtTASjuc93EXPUDtNy9qpByBM/+tdVC1rScsu2r+HnoAxrWma3+gR9neEY7OstSXWinWnKiSvHqrmMVd2rUFOlQGn5Yl1rT5nU0arh3++lZNymDwg11aGfI6XOW320n82IXYNGX9yIczgGzuILminyfD3pswUCET7D9AfXJ5MM9RFZ/d0WpuzL1W0fw+d4RZajWOyhrrofCs1zX6Ws9g8biuH6d+L3U3V7fF0043OKJ9rK1Pwku/56rb1zC0vjtHIWzvYX7+cxeZnQuLcj7egVqecY9ZdbL0+h3IJpnPNw8vj4iaffO95IiLl4mPz5l/xx9l1M3j/gyHOnTvnQZaxipkv7XdIUmWeYl1yZVeJAftuRrkEVm6Dqmy6H+UyjinXcV1uZbuO25YCN3l4dbwkP5leMDjJpzJbrsfTqhIM3pyvTt3I8r3+S6nQ51C+crn3erkt3fNEZLzyPtiqaaG1mQwD580/OCwiIiIiIjK+FKBlS0RERERERD5e6gKIiIiIiIiMRwq2RERERERECkDBloiIiIiISAEo2BIRERERESkABVsiIiIiIiIFoGBLRERERESkABRsiYiIiIiIFICCLRERERERkQI4r7DZtzBt801Mr0ouObHj6xx/pbBbzU+yzOVf1hJYWs/6mxs52/ESz2/PYr2v/I63r4Xt6y5mc8EKN9FdwN03f5q5/b9lQ+eH1kk+d5K9X/03XvTyOHzuJHu/2sck4OxvFrL0e5/wKmcRERGRilbQYCuw6Sam8zbvfPOHnCvkhlyJB1GndtP92C9LXZjSyDVQytfnTrL32uMc+dUVCrQKqfZC5k6C4RM2gRbAP0/lxf/4G67fBngScIX51Vf74DcLuUxBloiIiEiKAgZbn2dyHZzYUQ6BVja6OLGlixOlLsa4kayMX/sPpS7LOFfrw8+HHB5yTrb5roXMePog12+tYvNdgfy2+ZVR5jCd7Qq0RERERNIUbszWpUE+WbDMpVJs2foOc0YbeEKV8YL77LQLgA85niHYgk+w/kcNnJ39Dr/6ShEKJiIiIjJBFXjMlh3rLn2BTQ/TMOVt3tkSaw0LbHqYBnbT3XMpze3T46l+z/Ef3seJd01ZrrzTkAaiXc/S+7MuuPQWGm+5DF/ii6oVNH9/xVi65Lgs8/gym+0A53/pfua1GELJQYu/w225bdVy3eMLwbLLn5+VW69idt9rPPN4JJb69qu4sdmfTBLu5bm7+hmy+G5y22ruaEt8GuKl2w/SY8z++oXc0VY79vFMd3I7MRFOHo2VYWHALg1AmEWz4civpvKMw1/6l19o4do645LT/Opv+/iJcdH8Bn5+9YXJz2ff5wc/+oBX4x8/2/ppvrrww9T1ai/i6S9N5fDPfsuDQwAX8r3/2gAvd/EtjPl9yIGxNAmxtLOdylR7EU9/6RL8Tmk85Vym+ikXwNmT9KeUy6ZM/zyVF/9jH9e3nmT9PzgfHxERERHJjcfBVvqEGL72h5nWHv8wmgykXKtbQfOUt3nnmw9xLpH/l25h1JBPIvgxTmhx/pfuZNqlXZx494f0ftNQNtsxW4bugyvvpLl9qmVxApsepqHuOH3ffIgwAJ9n+vdX0Lw5mPq3uSi3G5Nq/IA5iPEzNQBnh+PLr1/In3GQR29PpIsFajfeF+HR+4cYevw1HgVXY7YSgdlRQ5ra2xeyculBXtmb3P7Cm6/iaMdLPLqdeHB2Fdddb8r3K6PMYQpv9Nv9dbEJHRbxPj/422TgZBYLxj7kwM+6UoKmr37hQ179xWnAEGgY1vvsZVPxG1t6ai+ghg8Zbvw0P7/wJD/42z5eTZThqgshnlcscLuA917u4ouH4uvOb+Dp1gv4SXziiVgaDGWKl/Pmi+j/kf3fkqvMZbqA6RdChKl89Usf8qu/7eIn8b/t2i9cyE/if5vR5kPTuf7af6PB47KKiIiISIzHwZYhYIm3KP0+3xn9UgK0LkbfvQ5aJnE+xJZdegt1LZ8k2vVsynbO/ewh78ddXXoLF9XBiR2JQAvglxzfcSnT2mdTdSnJlqtM5c4owskwTIp/qr39Km5s+F2stWqpn0lEeO9o/MvtB00tE0O8cwxmXuinFsjYqyxhaT1/1uznTPdrKUHT0OMH0/IwBmNs/x1H22rTAsP1F0VhdAr//M92G7yAKZMgcvC0fXAyvyEeaBlbnk7zfw5+yFcXTuUvOc1PEoFGf2o+aQFYrQ8/F+C/MLVVLEXtRWyIBzXfOmRYfqiPDSlpMJXpQubXAYMfeh5ouSpTfF/6Mbbufcjx07Dowgv4LKSXq/8/cJY+Fn3lYshxPN2W+cfhvXma+ERERETEQom6EXpoxiR8/J7j/9JVpG0d5wNz8PjKu5xoX8EFMwDX3QQziTB0GhZOjXUGa2rwQ+Bimpb2xwOfCEOGliZjl74xYbIzcxKTiXCwy9ySlpuG6lPAFIcUpzk0CNcu/DQ/X0h6MAH8ZeOFMNhn6uJnYjkLX3oAlhjTdOD/GgOtD3nwR8lz5y+vugT/2fd52lQOo1iL2QUs+lILPzcsjxz8LV+0m3I9D27KxPypzAbee7mQ3RiTtmz9DdfPhiO/uoLLNPGJiIiIiKXKD7bGseGTEWiItU5NpZeXui9mSYsfhicxeSxVItBKHXvVdN9qVl9omW3R9I1MgWnOaX7yiy5+QrwL3tUt/PxqYytWrLUocjA9gKmfcgEMvh8LLKxm4Zt/CYsmwXuGACzW0vU+r9oGbrEAjdNOrVMX8Nn6C2Cwjy9adM3znpsyJQLJ0xxKCcisW/xSTWHYtpunvc13xabx37L1N7z9dAPf36BxXyIiIiJmhZuNsFiOnSXKJ2OtSkXZ1nQmrzQtX3kp0/g9Hx7zdnNDY2OyLmZS3xA9Xb+DhlqaavwQPsswkBi/daa7N3WSi1wcPcsZ/EydmW9GMc984IOqU3zuc5nT/uQXXXzxb3/LgbMXMPeyC5wT117Eyjp4rzc+xiptFr4LuPuKC4EPOWVY5iZoqVSxQDKaMmYtFnB+yOG3bVrb6v+NSfg4ZtvNM7PNh6ZDlcZ9iYiIiFgpUbDVxb+dAqYEOT++JDbxRA5ZvftDPhiEae33M+3S5OLYBBkW26y7lJx/Wejdf+HUKExrv9OQx+eZ3j4dBvdmMdOgS0fPciZwMX+21M97XRHYO8R7NLKkATgdGetOeDIMk6cm58Rrum81q62Cz70RzgIzP1Vr8SWwt599x2Bm21WsXJpcHJsgI4fy/0MVRzjFp5f9u7v0ad0BY90M/Qsv4S/H0sRn2hvsS+tyGBObFGLu6dOmaUXi48NOOXXz+5BX+z+Euku427CLPtvaYPhsncZeG7c+sJUtD3ybdY1u0udSJotAsvYinr76QiIH7btgbpl/HEb/A325FEtEREREMipZN8LwY7s58f0VzPv+w0BsqvZ3Rq5j3qUZVrTM6+u886X7mXfLwyQmWo92PUvvu+Z0z3J88000xLcJxqnfY7MKGnu9TU/kNza1e2wCkH/b9HBKHtGuZ+n+WQHGjO2NcPZmPzPppWcvQISevggLm/2c6UuEEhFe2d7L7JsXcsfj8UXHDvJcdyM3pjU3DPH8j3pZb0xrmvq95/6XGL79Km68eTULb44tO9P9Gs/sNeflRoAD78H1V4ywhYtTJ1FImzYdYlOwd6UEBz/5xW+ZfvOnufa/tnBtfNl7L3exwRBovdr5Pv9xYcNYmsjB37LhxCX8vM7Q2jV/KrP5kAN2rTxjef2W+iktXGsYjxU5+Fs2DDmnAWy6Fg5wahRmVlXRvKqNbb0djtvPrUzxiTDqGvj5f02uZzUGbsznTrLGxbT8IiIiIpK7j82bf8UfZ9fN4P0Phjh3LqtJ2UVcCPOrbe9Q85uFLJ2oP2y8YhNb1swifOBJvrett9SlAf6dZ54+yJUn5nHZXTm388Z85Xe8fS1sX3exZiQUERERMan8MVtS5gJc+6vpTLriIHu/5bI74bjSyLpls4AB3iiLQAu2bD3IlVXT2Z5voAXx6eOPs2ZCHlsRERERZ5qNUArvHy7mMuDtay26E45jDeu+zfpFVTB6gGfufa48xkZ97iRrZk/3riXqn6eytP7fePvag7y9Dc5O5BZMERERERN1IxQRERERESkAdSMUEREREREpAAVbIiIiIiIiBaBgS0REREREpAAUbImIiIiIiBSAgi0XWtvayyofEREREREpfwq2XOjs2OFJoGSVjwIwEREREZHxSb+zZeIU/Dh919mxwzK91XIRERERERn/Ki7Y8tUvZ3Hwffa/cYSobaI5LF52CaHX9zBom8hetgFSNq1TCr5ERERERCaGCutGGKS+IcDIEYdAC6ieMxff0OGsA61cWqKc1snU/bD8Wr4C1F3ZTuuCoGOq6gXttF45B1+RSiUiIiIiUokqK9iqmU41IULDTomCBGth5INQ1tnnEviUV7AkIiIiIiLlooK6EQaomxMk2reHEYdUvvq5VEcOs98xIHPmZbfAROuWgjIRERERkYmlcoItX5CgP0woFHZIFKA6GCAaCjl2M8ykGJNdeJlf9YJ2mmrTl0f79rC/P76/fHNYvGxusutf5HBy3Jv5O38LrW3JfEa6d9AzHKSprYXqsaVzWdw213pbADUttDYbuiMOddH5Vsj0PfR0HMZ35XLq/TbpREREREQqVMUEW9Vz5uKLHGbEKYqqmUu9P0y/Y0BWfIVs3YoFWiF6OrpiLX7xwAlj8FPTQmuzn/7Xd4yNY6te0M7iK4kFXNEj7O84QmzM1nLqI1YBT4ieePmrF7TT5D9sO0mJr345ixsi9HTsiLdCxvJtXWDON0hTW6y1srM/HC97C001O+jJo2VSRERERKQcVMiYrfg4rEwTY1wUhBwmxrDi9e9fGSfL8C7wCuDzA0PHk10royFCEfAF/GNpYt0vD6Tsl5Ejh4n6L6Ha81ku4pOYdHcZunuGGTwSgtrphpaxeDm6dySDwmiYKOALBLwulIiIiIhI0VVEy5avfi7VhJxbO3xzqK+Fke7CdUGzCsCyCZq8b+EKE40QD2JC8ZatIEE/jBxJ7Ac/VX7wNSyntSE9hyo/5NXn0swXwAf4mttptSivz2fcXpjRiPH7ZOuZiIiIiEilq4BgKz4Oq++A88QYwUvwRQ4XtPtZvkFSItDyMuCKhsNQG6TJEAhG+/ak7Ye0MVUFFhvnVbTNiYiIiIiUnfIPtoo4MUYhGQMs7wKuRJc9p8AmwmgEqgN+oAjBlrEr4HB5jZ0TERERESmmsh+z5eoHimvmUu8P0e9Ry42xBcrL/Iy8zN95jFNivFQLi+szjYUydku0Fw2HwXa8V4j+vjC+huU01WQquYiIiIjI+PWxefOv+OPsuhm8/8EQ586dK3V5TGLTjZOhS1r1gnaa8GbKcHNg5DYgspsu3u67bNI4Mk+xnhAxzRZolc6cBhibkdCfXGLVcmaebt7cTTE2I6EpuDNO6z42Q+IeTyY0EREREREpN2UdbCWnEO+yH68Vn+o86sEYIa/GUuUSQOUUdNn97VbTv4uIiIiISFGV8Zit4k+M4dWkFbnkk9O2/ZNJmdzPtHwkrEBLRERERKRUyrplSzKz7K5HWN3zRERERERKrIxbtsSNaP8eOvtLXQoRERERETEr+9kIRUREREREKpGCLRERERERkQJQsCUiIiIiIlIACrZEREREREQKQMGWiIiIiIhIASjYEhERERERKQAFWyIiIiIiIgVQ3r+ztfJOmtunJz8P7qb7sV+WrjwiIiIiIiIulXfL1isP0f3Nr9P9zWc5Ppp/doFND9O8+RbOzz8rjzSy7p6tbNnY5piqdeNWttxzIw1FKpWIiIiIiOSvvIMtERERERGRCqVgS0REREREpAA+Nm/+FX+cXTeD9z8Y4ty5c6Uuj40Wpm2+iemn7MZsxb+vSnz+Pcd/eB8n3gX4PNO/v4JpNjlHu56l92ddWZWmYd23Wb+oKv2LwZ1sfqIj9v/GG/nWhkUEEt+NHuCZ7z5Hn9V3JkdfvIundrdx6wNrmWmTJnzgSb63rTe5YMUmtqyZZV2Wse9h1707qb3nNpqrbNIBsJKvP7KGegb51dce5wWbMoiIiIiIiL3yniDDlVgw9cmuZ+lOBE0r76T5lvvhh/dx4t1fcvybv+Q4sTFbDVPe5p0tPyTXsDIWaEH303cRi3XiQZExaFmxiS1rphrSxMZdrb+HWMDV+xzfu/c5YmO2bqP5lFXA08FT93aMrbtqiiFYsyzTSXbdexedMJbvlo2Y8p3FqgduI3zgSTZv640HfWu5dUUHT+3OcYeIiIiIiIiliu9GeP6XljJt9G0Gja1Tr7zC8dFPMuVPWjzf3sxpVTDay7+MNSp18K+DwJRgfAKLRtYtm0X4wHMYG546dx0gXNXInzR6XaI2Vi2q4uiLj8UDLYBetr0+AHWX0WpKffTFu5ItYr0hTgFTasyFeoWHv3YPX1WrloiIiIhIziq+Zev86k9C1WXM+/7D6V9WzwCy6yKYydETo1AXC5r64i1bn6qD8IF98VanWUypgsCi29iyKH39KTOA3vTlOWsMMgUIrNnKljXmL0epbTRub5RTx4zfJ1vPRERERETEWxUfbAEwml/XwGz0DZ8EZtG8YSvNiYWDO2Pd8gzSxlQVWGycV9E2JyIiIiIiGVR8sHVu5PdQN4nzoQjBVqKLoFMgNcCpUZg5bRbeNmHZSOkKWLzgTkREREREnFX8mK1zP9vLCabT4OLHis+N/B6qZlN1aX7bDEyb5fBtYrzUWr61LtMArV6GTmE5tsro6IlRsB3v1cGuA6MEFt3GrSsyldytlXz9ke/yg0fu5Suf8ipPEREREZGJpaynfj//S/czr+WTFt8Yp3YH6+ndzWliApsepqEu+Tnrqd9tp20fYNe9hkkqzFOxQ+r078kMYzMSGmaSt+oS2LpxK6sM5Ta3rllOR285Q+J3yNy7cQ5f+e9/xRWT4Oxv/p77/vFIphVERERERMSkrIOt8hOb5n1KWjdCi+nfK92q2/nBn9Up2BIRERERyVHFdyMsqvjMf3bLwycGilygQpnDV5bXAYP8swItEREREZGcqGUrW1bdAxk/swFec8d3uXYWcPZNfvD//pzDpS6QiIiIiEiFUrAlIiIiIiJSAOpGKCIiIiIiUgAKtkRERERERApAwZaIiIiIiEgBKNiy0drWXuoiTBitbe0Z/5WiTNksL5ZyLVe+8i2/1fpe5+k2P6+OUTleFxNFIa+zXPPwcr1c8tL55o187iO53EPyKYOIeOO8UhdgvHNzU+vs2FGEkpQ3p33gZh+6fXhk2o7V93bLi8G87c6OHZ6Wx26/2eWfzUM6mzJ6/Xdly2rbxjKVqmz5XheSvcR+NR9zu+VO+ZTrvd2Lc9rp/CvXv7tQrPZFLs8aERmfFGwVgfmBbfUAl/xkenC5ebhZVUBK/VB0Uyly871Vvlb/t0tvt67d9ivtvDbvZ2P5jZXsRFo7pT5fJDfG4213f842wMo1oHG6drJ9OZJpffPnbMtqvF6srp2JxO68sTqH3J4bblq3nF6MOb081L1KpHgqLtjy1S9ncfB99r9xhKhtojksXnYJodf3MGibKDfZvsESdwr5gM7moWLVumGVX6Y0hZRLMFiOAb7bbjLZBNJOlclsW9rc5G+1LafzI9tzp1yO1URgdyzyub5zqdRmW5JYinIAACAASURBVHnOtjxSXLns80L1svDiZYCIZK/Cgq0g9Q0BRrodAi2ges5cfENdWQdabitq2VZccx37MZHk013K7k2duSXC6Y1epop/KVu9Mp1vblpcypXXwUY+x8eL/Wd3XuXa+lcu3QirF7TT5D/s/JKrpoXWZj/9BXjJNRHl26ph9dnp/ufmxVIl32uKIZ8Xe4Uqh9Nzr3gBV4C6K5dTH+mi862QbSpX9xmRClRZwVbNdKoJ0TPslChIsBZGuu0vaDtWXSISn/OhboTFYfXgsDumVusa05VzVws3laJsZLuu2xapYrDbrtfjUXSdjn+FarHOt2XMjtsxU1b3RKvKeLb5SGZO9ydwdy/PtrXeqttzpmOsIFqksCoo2ApQNydItG8PIw6pfPVzqY4cZr9jQCblxqvKbD4tUKV985deFnM5vMzPKe9KHbPlNkBy263PbaDuply5rq8gr3jcjLmxS18JnK6PXLvbijO7MW25jo0zyub+Zgyo3OYvIt6pnGDLFyToDxMKhR0SBagOBoiGQmXVBJ37W/J407vfsCiS3sTuq1/O4oZAcsFQalO9VdN8bJ0IPR1d8eA1SFNbC3TvoD9gzC9kSJNYeQ6Ll83FZ7M9IN6lKGhbJiOvb/Ruxl2ZuXnzV8zAy+vWz/HYmmo8JlC+Y9lyrWTle56l3RcSUq5F8z0mbOgGGLsnVI+tOJfFbXPHPkX79rC/Pxy7v9Qms69f1k594oP5fmW+d6Tdz7K4DxWJl6072a7v5TnptutgJnZjGJ3LOjGeZfky39OMy3PNKyGXY+3qHuJ0TZu/87fQ2pbMZqR7Bz3D7u4zYzIdj5oWWpuhp+MwPuM5V8DjJpJJxQRb1XPm4oscZsQpiqqZS70/TL9jQOasEJXpXLsRVi9YTj2H2d9h3385VtEJ0dOxJ+VB03plbv2eq5vbYy2DHUeIxh+QTQuCyZtU/EYX7dtDZ+IGWNNCU02ye2fy4bcjXqZYPq0Lkje7fCoRbsb5ZFtBypTeq4qKF8ZLsAS5/y1O+9+rY+NUkXQ7Vsa8TqayeXVdxK5B6H99R2rglFLhiC3zma7l1mXL4fU9DEZD9MTzdBpLMfLWDjoT6zqN2Rr7fsfY99UL2ll8JWn5ZrwPTRBenSteXhOZKvBW5RrPzzIn2ex3t905jem92K4dV/eQTNd09Aj7O47gPGbL3X0mWSY3xyNIU5vh2PrmsHhZC001OzIMQxEpjAoJthLjsDJMjHFREHKYGMMom/7sbvPL7fsAPj8QCTvOulhfCyPdxrd1IXq6Q7Q2X0K170j2+yKlMhYmGgH8AXyEiBKkqTm2j1PeNA130TP2ITGJibG7Z5jBIyHqm2Nj7kYc/+78u13l0hUw237xpeJm0HO2Sjlmy03gnM165vEK2WzLKq1dq1mm9dykdbO+OS+3f4MvEICUl1MhQkNQPXYtG7pcp1zLh+mPLCcYDDDYn/tLq3TJbuDGe9LIkcNEl1ncqxzvQ4VRji8x8i1Tpm5kbq+TbMb0pKcZ388yt9yOG7ZbN5vtmNfJpRth5ntIltd03rI7HrFWs/iHaOzc8wUCMOzlfU3EnYoItnz1czNPjDF2s87/zWe+ldhMN0Z3N73ETSTe7G7R5QL/ZHyE6Dfvl+HjjNBClR+yrZlEw5GUz2NvrQF8AXzAyAcO+ziextfcTmval2F8vvQyFeqtq5GbQcJWeVi1aFTiQPFKHbPlxdgGyK8bTiG7crnZfi6i4TDUGis8sRdW0b5ksOILBMCf2mVnTMAPeFkp8VPlB1/Dclob0r8136sc70MF4vU1nevYUbdlytSykVjfTTdbu7K5HfPjbOI8y5x4/dLW6UWU3fHMJp/M95Dsrum8ZXU8woymHP5k65lIKVRAsBUfh9V3wHlijOAl+CKHPWsizqdSbXdDy3rsz3AXnR2M9XuOVYpKN3YhGylvlXKQS8tEptbIbLsf5iObN8HZ5JnreTkex2zZ8aKSaxdAljrIdntdxCqawdTxU0Ndye5SCVYV3wJKG3+Rp0JcZ17wqptrIVqMs9m+Z/t1nD/LMnU7z5eXLeRuub2HeH1NZ5Jv3UKkFMo/2CrRxBhed9PKpWvbmES/5/iDKlgDI8NA5AxRDJ8TaqZTTZj+iF2GOXLTFO9Rc32+bwG9GvxtV+EudsXb7fbcjDfzqotsucr6pYaJU7Be6n3mbtvJ7j1OlaDYm+vJZPmCPkcRRiNQ7XmLWf6cWnXyvYdYLcvmPPKqa5k5Ty+7yluxzXMcP8uyvefkG/S6Of65v4xwcw8p8jWtroBSwT5e6gJkEvuB4sPOfX9r5lLvD9Hv0dsVqwej+fvEv0z5uOna5vqh6Z+Mz9g8Hg0RikB1s3Emn0Rf9OQ+i4bD8XVjbGcYyihEf18YX8NymmoMi2taDJ9t0tgoRFctyC1Y6+zYkXJMvO72kY9yCJC8bvkr5N+RbWDktqLkpnXU7f3BbXly5Qv4Hb+P9h9mhCBNV85JzhZmlzYcBv8lVDsljJwhSoBg0OreEutKRm0Li+tzufdYK8eXBW5aRAtxz8uGV/e5nI3DZ1mC3bEt1vE23n8Sz7RcOd9Dsrmm42Pmaqcbjm865/tMbsdDpByUecuWux8oTkyM4UV3BDcPn0xdsnIZTJy+jnk6VEidljn2efCNHUQXtNNkKEfK7EpAtP8A/cHlyTRDXXR2T6e1OWPx0kT799AZbqHV2G96qIvOt1LT7Gc5i819q01Tr+b6tteKVw8y8xgFu+5omcrrZSXGKdDKtdJWqG5ypW75MXJ7TmV6uZJIY5V/pmVWL2qyOXdyuy7CDHYfJrgsdZrlGGPXrdj/m9paTOO2zPeZ2DXdE2inydClKO2td/QI+7sn09psGMNh7KY43EVnd0vq9+Y0Wcr3fPO6VSuba8ruHmNe34nxe7fbNj9rMj2vMrX0ZjaxnmWQum+cvnNiTGOX3urYOd0z3D8rXN5DsrimR97aQ/+Vy1OOr7lLYKb7jNvjIVJuPjZv/hV/nF03g/c/GOLcuXOlLk+K9N/PsEoU644Q9aAfbzEqiuVUGS2lfB4GhQgI7CocmSrHxTqexWpV8uLvzJTW631WrKDXK7nu/0zML2p8aV2ArKZ/FzOvzqdsA/1CMHcXhOyDqkzfTXS57rdi7+/s7u26h4h4qYyDrdjvJwRDzuMOfPXLWRx8v6iDvEVEylb8BRTmipLdchERI91DRDxVxsGWiIjkJP6DrWaayUtEXNE9RMQzCrZEREREREQKoOxnIxQREREREalECrZEREREREQKQMGWiIiIiIhIASjYEhERERERKQAFWyIiIiIiIgWgYEtERERERKQAFGyJiIiIiIgUwHmlLoAr1fPZOb8Gon38cN8Az9smrOGpFfOpG/sc5c19e7k7muN2a7fwy2b4xa7NPJ1jFmUpsT8TMu5XqQTfuPsa2mfA4MsvsJ7L6bg6CMfepO3BkEVqP3/z4GdZFEguGXz5Bdb/r6IVNwfJMhe6rK72pf9OfrrsQl7y8v7gv5OfLluIH4gceZwb+l/3KmcREREpgcoItlzx8eCS+dQNH2KtFz9v7r+TnzbPoq/7y+kVKd8sti9p4OShV7h1JP9NFZVvFtvn1zBYiWUXRwOnIjADThwDOEuYIAGbtN+4+7Ms4l2e2NTHtiKW0c437r6G9gvf5Ym7y6M8rvZl5CFeCv2YL6zaAp4EXDfw6LKFcORxPq8gS0REZFyojGBr5BBrd2dI46uh0RflzUMeBFqGSs8dQx5kV0auq7mIQLSPnyrQmhDCp8IWS4M0zYDBl8sjsHEvwjfufqFkW7fal0+/9TgzArfzhQU38PRbP81vA7WfpoEBfqFAS0REZNwYP2O2fFW2b/GztWFBOw2RgzwxDis9dQFfqYsgxbAvwkm775b4mVrMslQ6p33J63yn+yCRYDuP1haxTCIiIlIRyrtlyzy2yKsugo5uoDkIfd0P0Wn65rpZS7mlPhmsBOavZGeycLyw+xCPJMaNWZT1a00rucYfHx9VPZ+d8+GF3SEuM4wzC/fv5fqBaPp6ht1g1QXQXLbC7qtG1t1zG81VhkWjB3jmu8/RZ1jUsO7brF9kSDS4k81PdIx9bN24lVVTUteLrXOSXfc+Ft//bdz6wFp48S521RjzGzCkSRTrRr61YVEy6DZtD4AVm9iyZpZtmSrZtidfNbRUhVi/KZdWoPi4qNOp45PM3fy+cfc1tPMmbYcvjo1nAiDCgR+/yjf2mbL8i8sNaSD81qv8+ZMRIMgzj11uGGN5KRsfu5SNaenM48tstgOsu+2zbFzgTy44ZvF3uCh3Vvsy0Z1wzp20DqXfN0RERGTiKu9ga6z7oI8Hlyzl8rQE5gkx4PIlhgAol4Cj9tM0EOU3kfSvnh/Yy/MDZBizNcwL/VFuqQ/yNYZ5xFDWy2pg8JBxIooarlkRGz+1doR4cLmUpyKJfON/d+QQa3fH/w7fLLYvWclThm3HgrFhXti9N7692H7ZucQY2BmiNRq4ZUUDt8Q/ZTt+q3XjbTRzgGfuTQ2uUtNsZVXdALvu/U5K0LTlnmBaUObGzDVbWT+a2GYs2Fu1sY3ORKAUD6LCB55k87besWW3rujgqXgX1GQgd1e8TLF8tmxk3ARc9tInxAhcfQ0dV8c/hHMYLzXjcjoufJcnNr3JtkT+f9HAun3JfBLBj3FCi3W3Xc7fLHmTb+xLBjHOY7YM3Qf/4nI6rrZuw45NahFix6ZX+RsgEcx1PGjK10W5s/V0aIAvBC9kDijYEhERkTHlHWxlNMytu1+J/bd6Pjvn+/ObfRBo9ddA5F06LYItt54f/oAb6hv4zCwfj8Rbqa6b1UAdw7xgCmpSAp2RPt6M1nB5sAZGhqG6gct9w7ywzxAwRgf49XAD1yTS+GbxmRoYPHTIENgNc+uhYXbOv4jFvgGeN4x5S2ldy+mva6R2CnAqZB8wNd7IlXVw9EVjy1MHT714GVvWNPInjdDXm+VmU1qgehk6BUwJ0gD00cata2bB4E6+t82Q8e7HeGrsQxurFlVx9MXvGMrUy7bXB2hecxmtdLiuJKe1IholAvy0ANdgbPbH9JcFhkR5n8upDAHLkgb+95cv5WS+M/qlBGgR9vZHWLRgEmPthksauGmBn/Bbr6ZsZ9uTb3o/VmxJA8tnwODLb8YDLYAQ618O0XH1JSxd0se2RMtVpnLnInKaCAtprgVyHOe5ITgLQjvG18ynIiIiE1yFB1vem+PFmCZDQHTdwADP42Nx0Ee4/y1DQAQQ5WQ09XMoAvh9XAfg9wM+rlmxkmvSthFL87yvigDD/NrcMjUSYpD5TPUBnlXYIRmgrGXLA2stuw8yYyoBBnjDPKnJ7rc5umYtU2YAWQZb4RMDKZ87n7grGRw1BpkCHH3HoXUqniawZitb1pi/HKW20X2Zxlo4nbiZ1MX4smA8mjGJABEOHMjjzUVW2wqxxxw8/q/fMXj15UybAVh0OywHGxb8mC8Eoa/7y3x+nE3IIyIiMtEp2DI5Eo7ixUwbj4SGuSbRskQNjb5hfj3gMuqJRHkeYgHX2FiwMrL7MTbvZmyM1PoHFmE5hqoMHX3xrrFuhSLeinIyh7jy6be+zNNvxYKuX845yEOva9yXiIjIeKFgy6QzMsyd/ktp9ZNXV8JYl8ClNNb4uI6LIK1Vy4qPoB/CodiGn49EuAU/QafWqegoYRq4rBowtm5VB6kjypuetmqZ9D7H9+59bizo+tQK6NwNHDtJGMPnhBWXMZNRuo95XY4Qp4ApNQ7NU27SuFSZ3QhL4Fjs96mK0qp07CxhLqXpLwBj69ZfXEwdEQ54fc6Z+S/EzzDH8rhnaNyXiIjI+KNgy2zot/TRzmW1y8Bu6vdolJNAXWLclHUi9oeiXF6/lFuI8ua+zLXmrzUtjY3RSrSAxQO2y5fM52t2rVvRYXqjDVw+35imhqfm18DwoeJU1mdMJcAofYkKbe8++kYX0bxmE627DbMKxsdVJYZVHT0xCnVTmQn0YZy90H6ibWsd7DrwGdYvuo1bhw0tVys2cSuPxT/bpMnB+O5GGOGD08CFftZBcubBGYDVT3Y52dfHnqsvpf3qz/I3x5Kz/a277XKWHngzZfa/2I8Im8ZWZbWtEO/+xaUsuvpyvvG/3kxOkHF1EI69aTlzoZc2BGdB5CBHCrsZERERqTBlHWyltSD45rNzBRT2rf9P6Q6184U5f8qG/tdtBqsPc+u+PrYvSZQntszc3e/5gT6uqZ9P3XCfTVl9qbMnRvv44W7jxBVR7t63lweXLE0bt5WcWCPK3fteiU18YUgT7t/LWrfdFrMSm1VwZsqyUbqf/g7JuSl62fbduxjauJVVD2xlVaJMxpkCgb5tz9HdeFsyzeBONr94mcWYqsz6tn2HzcOb2GIckzW4k81PpKZ5hm+z3jxuaxxN/+6Fv3nwTZoeu3xsGvbwW6/yxKlFbKzPJa8XGLjts2z88jV0fDm2LPzWq/y5KfjZ9uSrzLr7GtrN6SyniIdFiXRjU7vHJgD5xt3X0P7YNbSTzKPtyQKPGfPfyWqbn4sQERGRie1j8+Zf8cfZdTN4/4Mhzp07V+rylIkbeHRVO8Ejj3NDXj9sHOsmhtXU6h7NnigipbSMby+7nSvCO/j8Wz/NL6vaLfyyGX6xa7NmJBQRERknPl7qApSnn3JH9wD+Obfz0/plOebh48ElsR83zuY3rESkcmxYcDtX+Af4Rb6BFsSnj5/F6pzvOSIiIlJuFGzZGdrM57sH8M/5UzZks55vFttXrGTniviPEWf7o8oiUhn8d7I6OOBdS1TkIW6Iv+T55aof5/GiR0RERMqFuhGKiIiIiIgUgFq2RERERERECkDBloiIiIiISAEo2BIRERERESmAsg22plVXc955Zf0zYCIiIiIiIrbKNtgSERERERGpZAq2RERERERECkDBloiIiIiISAEo2BIRERERESkABVu5WLGJLQ98m3WNDmkab+RbD2zl1hVFK5WIiIiIiJQRBVsiIiIiIiIFoGBLRERERESkAD42b/4Vf5xdN4P3Pxji3LlzpS7PmGnV1Zw5fZqPPvrIoxzbuPWBtcxMWz5K99PfYVtv7FPrxq2sqkt+e/TFu3hqt/V3qdkc4JnvPgfrvs36RVU2iQbYde9jdI59bmTdPbfRPJY8tSyJ7xt6n+R7w2vZsmaWTbpiM5ebsb+/z7CowbwvBney+YmOsY+tG7eyakrqerF1Thr2U+y48eJd7Kox5mfel8S6bm5YRMBme0CsC+jYfrRJA7Dqdn7wZ3Uw8CJfffSVTDtERERERCTNBPnV4HigZahYxyr1GIKWeABxaieb741Xvhtv5FsbtnIrsYCr84m7YpX7FZvYsmaqdcCz7Tts3sZYxf+UIVizKtOUA0+yOZHJik1s2fBtMOUbWHQbWxhg172x7bdu3MqqdTfyL6bgplhaN95GMwd45l777ccC0wF23fudlKBpyz3BtKDMjZlrtrJ+NLHN2LFatbGNzkSgFA+iwqb9eeuKjrH9nwzk4scxns+WjVgHXCIiIiIieZgYwVZjkCnA0XeSFeq+A72EFy1iygygF1ixluaqAXZ911Dp7n2ONwYXsWpeG+z2tjLesO4zzBw9wDPGqGr3TrqX3UbDokboNSw3tRodPTEKdVOZCS6DFh8PLlnK5T7rbwcPvcKtI25L3kjtFOBUyH7bjTdyZR0cfdHY8tTBUy9expY1jfxJI/Rl2yqX0gLVy9ApYEqQBqCPNm5dMwsGd/K9lP35GE+NfWhj1aIqjr74HUOZetn2+gDNay6jlY7UVrJdj/PVXVmWUURERETEYGIEW70hTgEzDUFTw6JGAgzwRqLVo2YqUMWqB7ayyrz+aKJS752Z06qgahHrH1iU/uW0WcQiwDhTYNOXaD1zLcrd+7zqCpcIUNay5YG1lt0HmTE1Zd+O2f02R9esTQa4WQifGEj5PNbKCJbBdJp4msCarWxZY/5ylNrG7MskIiIiIuJkYgRbDHBqFGbWxQMEIDbuyTTmx2ocUCFZBSqVYPdjbN7NWFfJWMBY5H2Xo6O23TpFRERERLw1MYKtRBdBh2Cgb/gkMLVoLRzZdwXMh5fdCA16n+N79z43FnR9agV07gaOnSSM4XPCisuYySjdx3LYlmM5Yi2XU2ocDp6bNCIiIiIiHppAU7/HAyk7u3fSPVpF84ZNtGbK6thJwlTFxlbZMXZdtNC37dccZRar7rmRhkzby1usG+Ha3db/cgq0jGZMJcAopxJBVO8++kZh5hrjvkyMq/r12OQfR0+MQtXUsRki02YvdK2DXQdGCSy6LfVHpFdsMny2SWNn1e384JHv8oP//kXm5lAiEREREZEJM/W73bTt4QNPGiZVsJjSHJuuZ+YpxK26BJqnIk/ramc1Hf2o9QyJZTNbXqYyJ5n3eeq+hrT9PbiTze9cxpY1pE39PiVtXQsupnW3DOispn//1Be5f+PlTGKU3zzxAP/wr86bFhERERExmxDBVvpvNxmXU+LfrJJydc0d3+XaWQq2RERERCQ3E6Ib4cxp1l3TYstPMqRAS8w+9UU+NwsYeF2BloiIiIjkZEK0bNl1D6zY2QClgFby9UfWUA+c/c3fc98/Hil1gURERESkQk2QYEtERERERKS4JkQ3QhERERERkWJTsCUiIiIiIlIACrZEREREREQK4LxSF8DOiZF8f2lXRERERESkdNSyJSIiIiIiUgAKtkRERERERApAwZaIiIiIiEgBlO2YLQD8d/LTZQvxA5Ejj3ND/+sF3dx1s5ZyS71v7HO4fy/XD0QLus1sbFjwY74QBBjgF7s283SpCyQiIiIiIrbK9keNU8SDrlD3l7ljqBgbrOGpFfOZWkbBVmv9E9w5Z1hBloiIiIhIhaiMboSRh3gpBA3BG0pdkhJZRutFPiJH/q8CLRERERGRClEZwZaIiIiIiEiFKe8xWx77WtNKrqlJfh489Aq35vJzXtXz2Tm/JmVRWl6+WWxf0kAg8Tnaxw/3DfB8DpsTEREREZHKM0GCLR8PLlnK5ZFDrN09HF80i+1LVvJUtgGXbxbb59c4B2rV89k538+b+17h7viQr681reSWJYACLhERERGRCaFiuhE+HRqAYCvf9uewcnUDl/uGeaFnOLksOsCvh6EuWGO/nhVfFQGinLSdN8PHgw01hPvfGgu0AB7p7yPsu4jFPrv1HPiv4jJ/lLeHCjsbo4iIiIiIeKdyWraGNvP5XTfw6Kof88sspz6/zu8HfFyzYiXXmL+M+rgO3Lc2jfTxZnQply9ZyU6suiL6meqDQP1Sdtanrz7VB7id4DAx9X3kIA/t2kin2zKKiIiIiEjJVUywlZz6/MvckVMOw7yw+xCP5F2SKHfvewWIjwGbHwu6zL/J5clvdEUe4oZdxIKuVT/m/yna1PciIiIiIpKviulGOCfgg9Bvc5r6/PlIBPATzKULn4NHel5h7e5XeGEYAsEargMgwskoBAK59He0EXmNtyMQ9C/zLk8RERERESmoigm28jLSx5tRH5cvmc/XPM/cR9APRKLxrohR7u4bhpr5bJ/lcXQnIiIiIiIVo2K6EeYnyt379vLgkqVp47aMY67MU8MzNu4q2QXxullLuaXeFEQNH2KtcfKNkUOsPTSfnfNN47Y0/buIiIiIyIQxQYItMI61svNIzysZx3Q9P7CX5wdcbG7kEGt3uy6ciIiIiIiMMxXSjfAGmoMQCb9X6oKUyOscC4N/zp+yodRFERERERERV8q7ZSsx9TlAaAef75+4vzP19FuPMyNwO19Y9WO+kOXU9yIiIiIiUnwfmzf/ij/OrpvB+x8Mce7cuVKXR0REREREZFyokG6EIiIiIiIilUXBloiIiIiISAEo2BIRERERESmAsg22plVXc9555T1/h4iIiIiIiJ2yDbYkN61t7Tl9n2m9SpPr31OI/TPe9q2UN/P5ls3558W56pSHV9eCrikREakUajoqkFwqA50dO7LKxyp9rjo7dtDa1p4xT6vyJNZ1ytttXpl4+TcXi9t960a2+9m8XTf73IvjVYnHqRJZnVfG882r867Y8i13Pue5iIiIlxRsFYjTgzzbikS2QVihWVXeE8uyrdy7CRCKxYvt5vpW380+S6TJ5nywqnCbt5XP8bLaZ2p1KB7z8TXu+8T/zdeoWS7HsNDXp9V569RiZxVwJtJYne+tbe22L45ERES8NIGDrSBNbS3QvYOe4XzSZKcQgUSueVpVNszLil35yPZvySW4cQpWnP5+t/sm232WaZuqAIpbdudOtgFwppdF2fDqHPbyunATzImIiHhhwgZbvvq5VEcOs98hiHKTJhv5Psy9CqqM+XhZqcqH1Rv5BKcyZvO2PhO7t/tu3/zbvUV3KlM+lUa362ZqCcvU8uEp3xwWL5tL1MMXGBNdJQbjbs45r/4uBVEiIlJKEzTYClAdDBANhYjmlcY9Y/eVxGcoTkXJrhtNtoFBJuY36fkGO4l8st12Lt97wWnsjNt1iiXX4+SmNVRKJ5/JMQqxXaduwvlO3JFLS7POVRERKbaJGWzVzKXeH6KnP5xfGpfsBrEnvjN+LpZM28u2xctqXFAxu8AVanuV3I3PaUxLrjRmqzw4BRr5vPDIlZsXNW7udXZ/Vy4T94iIiJSDCRlsVV8UhKEuRvJMk0k2XWWKWTGye7PsdsC43QQZboKwTOUqhHz2bT4tQJ0dO/LqImj+f64thZmOczEqqr765SxuCCQ/N7fTOvYpRE9H4lpLjpPsDxjXMaYBCFB35XLq/cltRPv2sD/xcqSmhdZmP/2v72HQ2DQd78aIMW18mS+RJnKY/W8cMbRo516m9LwSZQsmPw910flWyG7XWSpGa40X+Zq74mYz8Uam+4ldK71dGUREREph4gVbvjnU18JIt0Plxk0aB7lUjovREmQuV6YZu3KRTytHtt0IBzp0KgAAIABJREFUM3UtynYcmNO2sj0++R7PQgbhpaiYRvv30NmP6zFb1c3tsfGSHUeIxoOYpgXBsaCkesEi6N5BZyKKqWmhtXk5TeF4vsPHGaGF+jlBBg2BjC94CT4MLdZjQdmOsaCsekE7i68kLUjKXKbl1JP43los6IzQ07EjHqTF8mldkH3AZSfX8Y9mTuMhs8nDy3PYKr9sWunNrb1uAzYREZFcTbhgyxe8BF/ksGNFz00aJ7mO0SnUwz5T61OlclMZzKdyWc77Kt9KottWTDfrFWQ/pbT2hIlGAH8AH7ExlCNv7UlNP3ycEYL4AgEYDgMh+vvCVDdMp5rQWGBTHQzA0OFkoDMnSLQvtfVr5Mhhossuodp3JLVVzLFMAXx+IBJ2GOMZpL4hwEj3HkNrWJjBIyHqm43lzJ1T9+RyOZ/zOWfzaS0WEREphQkWbMUqO9E+p0kv3KRxz00Fp9gTNxiV0xtdr7otFeqNdS7jRtx22cumxSyf9e3WcbvvizVmKxqOpHweeWsHncYF5q5/ifWM/w+9T7RhLsEaGBkGfEGC/jD9Yy3Wfqr84GtYTmtDehmq/KkZOpcpETS10NqGdfdBXwAf5i6UyfV9PtMfkKNcJqAoplyvy3yv51JMTiQiIjKxgq2a2Ntj54kxXKTJUj7dtuzGJ3jdLcf4/3wGo+dawfOiG6PdRCTFCijdBLVelMXL1qyKlAi0UlqaYuOqUoKv6BH6h+bSdFEQhkPxFuv3GTEFNCljvfIx3EVnR7J8i9vmkj6uC0YKOO29XfBb7Bb1TAFNtt1k3XQPtnt54HR/UxdCEREptAkVbBVrYoxCymXMgps8wV3Fp1CVNqcZzNwGf04Vu1K+zTb+DblU7rwou1VrR8UGX/7J+AjTfyTzGKeRD0LQPJ1qIviCAUaOGFubIoxGoDrgB7x7uUL0CPs7jowFXWMta9FYF8NkV0dv2Z1X2bxE8WJCF6+vMacAMt+/WUREpNAmTrDlm0N9bZj+1zNNjJEhTQkU421sNjN7uZ1Ywykvp3yMnMqUTRDiNJbFnJ+Xcmltc6q4ut2nZlZlyIZn51s84KiOtzblJHKGKEFDN79Yq1Y1Fr3w4hNlBOvP4POH6E9pUUp2/Vtc71HrllE8KAyN9T6MjSNb3GCYyCNPbq/bXI53Ntzek7w479y+vHDbYqbATERECmnCBFt2XYiyTZOLfCrxbt/cZhMkOX2XTcXDnDbT50zbzvYtdb7jlDJ9ZzXeKtuulrkEkXbf5VohzKbSmQ93eYToef0wi5fFxzYllnVk0ZocPUJP3yUsNox9GuneQ/+c5QTTEicCnLlE+/akb2O4i87u2EyGKeO2rMZcOUoGfEnhtKnno/172M/ylLIDOU3/bnWtWaUxc9OCnOmateKmZTlbbq6BXIOlfFucRURE3PjYvPlX/HF23Qze/2CIc+fOlbo8Y6ZVV3Pm9Gk++ugjD3KLj+dwHJvhJk32vAqC3HyfS3pwV/lyu8xNmfL5m90qVMXJzT4G94FgNmNWcmkJy2Zb+XTlzCWtlIdKOGaZrqtsryMvznURERE3JkawVdNCazPOb8/dpBEREREREXFpYnQjTMwSlm8aERERERERlz5e6gKIiIiIiIiMRwq2RERERERECkDBloiIiIiISAEo2BIRERERESkABVsiIiIiIiIFoGBLRERERESkABRsiYiIiIiIFICCLcnbR9fv59T1f21aehPn/mo/HzaXpEhSbMG/I3zny5wLlrogRRT8O8J3/hMe/Oy6iIiIjFMKtnJx/ULuePwqVi51SLO0nvWPr+a664tWqpL4w9UvMzqrn6rt/8P0zbOcv6+f36+uwIBrghw77/w1H960GA48zfmhUpeliEL/hQsG6hlVwCUiIiI2FGxJ7pr/iTOLwP/sf+I8q++7/xOTD4zy+9WqjI5fN3Hur/6c3w/8bwIvP1vqwhTdedv/J/4z9YymteyKiIiIKNiSnP01H66u5xMZWjM+/vLTRamMBjY9TPPmWzi/oFsRsz9cvYHIZKuWzYniWc7/P/v5xKw/r7wWXBERESm4j82bf8UfZ9fN4P0Phjh37lypyzNmWnU1Z06f5qOPvGoTqeW6xxcyM215hIM/eo1X9sY+Nd23mtUzkt8e7XiJ57dbf5ci3Mtzd/XD7VdxY7PfJtEQL91+kJ6xz35Wbr2KhQHrsiS+n933Gs8MN3JHW61NuhJo/idOrYaqh2xatdLSVuN/9uoCdjP7PNO/v4JpHKfvmw8RziGHWtfHLnYu0fESe2qM62Q6vnCm+zWeeTwS+3D9Qu5o86cfy6X1rL+5EYxp48smJ9LEz7ehZOlzLlN6Xomy1SY/HzvIo/enpCDWqvXfONf3Px1atdq49YG1qdfd4E42P9FhWNDIuntuo7kqueToi3fx1G7T96dS12vduJVVUw7wzHefow9gxSa2rIFd9+6k1phf2vYSaWcld8GBJ/netl6HMo3S/fR3SEli8NH1+xm9cD+T//6/WL7Bmvuf7+WrV1Rx9jd/z33/eMQ6ExERERl3MtaTx4d4oGWoMMYq1hgquvFK6OmDPHp7vFK5tJ71N6/mOmIBV8/9L8UqrXaVZIDHX+PRsXUbOWsI1qzKNKn7NR41Vr5vvgpIzXdy81XcwRAv3R7bftN9q1l9fT09e00V5CL6aG49nNnvrmm0u5tPrv5z/hAEChZs/ZLj3zzGh5tvouH7D3Nix9c5/kp2OQy5PnYxM9tWc2O4l+du72cofv6svq+Wnvg51nTfQtj+Eo8mjuX1C7mj7Squuz6e7/bfcbRtIQtX1fLKXkPY1HIxkxnipbSg7KWUlwI3biUtSMpcpqtYSOJ7a7FrIzJ2viWujTvuMwVcwas4NxnOG7ELtBpZd89aZloFO2PiwdjgTjZ/N55mxSa2rNnKt2rMAZAbs1j1wG2EDzzJ5m290Hgj39qwlltXdIwFbw3rvs36RVUpAV3Duk2sa3wsHkzFyjQlkUeiTBu+DTYB13mH+2F1NX9A3QVEREQkaWIEW0v9TAKO/muyojjU9TvONDcydSawF7i+kYWBIV66y1CZ3NvPvlWNrP5ULXgc1tTe3sjMcC/PJSrUANt7Obj0Kma3+GGvYbmp5WH4ZARmTKLGdal8PLhkKZf7rL8dPPQKt45kU/qb+MOF8Im+11xWLN/j42cgMvevuaA7u+5m53/pfua1fNL6y8HddD/2S8OCLk5s6WL0S/czr/1hPhl8lt6fdWW1vayktPZEGDoNXOgncbb03P+aoUWJeHBVy6QaPxABhtjTHeHG5otpYmgssGlq8MOx3mSgs7SWM92pAXjPrl6W3HwxTUv7GTIG/I5l8lN7IXA64nDe1LK82c/RDmPZI7yyd4iFbcZyAsFq/p1+Lui2y2sWU6og3Dtgu7WGdZ9hJgPsMgZjux9j17ytrGpcQgO9sVarLKS0ivWGOAVMqWkEYsHXukVVhA88aWg5g75tj41tp2HdZ5g5eoBnjFHV7p10L7uNhkWN0GsRbYVG+ASL+agZzrPYH4f/8QG++o9Z/iEiIiJS8SZGsLU3wtmbYaYhaEq0HuyLt1zU1vgBP6sfX81q8/rhZAXaKzVT/RBo5MbHG9O/nJqojMeZKsdjLTCuRbl7X5bNPI5m84fJmVN54dzP7qP7ZzmsE7qT5vabaL70T3hnyw8pRAfZMycjKZ/HWj4TzF3/EusZ/p8I+uddDz3bgaW1zA5EOLg9ccT9TA3EWzcfTy/D2MsCV2VKBE0LY3lZdR+Mv5iY3LaaO9rMW4tQuxR64tv7Q3U14BSld7DrwGdYv+g2tizCsjvfzGlVMPhrOk1rdr4zwKo1U5kJWQZbo5w6llqGp+41bHPGVAKM0n3AvsVs5rQqqFrE+gcWpX85bRaQbWubiIiITFQTI9giwskwzJyx0FBhjXDwRwdTK8dp41sKzKqyWxFiLVXZ+sTJ97wvioVEa1i0q8AtW04SgVZKS1O866gxnan1tLblYiaHfzcW0CSkjPXKx/aDPLo9Wb5YsJ9+3h/N0IUS4OMjmZtD+7Z9h83biHcNXMuWB9bCqGGcVbnKqYyjfHwiTX0vIiIiGU2MYCvRRdAhkBoajgD+lDf3hZR9V8B8eN2N8Fk+fvq/8e8NV/GHl5910ZUw1hJmP7bHXnbdCGOzEjbUkdOYLU/NnMRkIhzclfno9vzrEKvbLqaJCLUNfo6mjMWLvygwt3bma28/z+ztHwu6xlrW4q3Aya6ODjJ0nUux+zE27yYedDXyJ43Q1wtHT4zCostopSOldat13iwYPcDRvP5IC8dOEmYWU2Zg20B19MQo1GXZqhas5t8Z4QIFWyIiImIwgcZyxwIpW9t7ORj2s/DmhTRlyuroWc7gj42tsrM3wlkSXRfTDT3ey1FqWb21HusUXop1I1y72/pfdoFWzHmH+2HyPD4Kukjc3Mzvc3zrf+5n99H9za9b/0sJtD7P9O8/TEPdcfq+mWegleHYuRI/R6aOTcNnNxsmsbFc1DLv9lpmB4Z4J6VFKdb1jxkLWX+7w/mWq3hQeHIsqomNI5vcfFXmH3UOvcb5Z+D3c91P699QMxU4yVA80Ok70EuYWazaaOizuGITq+rg6OuJlqVehk4BU4I0xJO0btzKqjrXm03qfY43BmHmmm+zztCDNzZBRrxM237NUWax6p4bx7aXSWzCmBHbG+rc/3wvP3jku/zgjpU5FFpEREQq1YSZ+t1u2vbU7lkW02Jj06XKPDW25fgX85gdc+uaVQU8Yj1DYtq026X213x4Z+zHbKc4/sZSbHrwyOlM6fIT2PQwDVPe9m58luOxS84k6dS1zzyV/NGO1zi5ND6Vv2m9RFrb7oLm8w1M55ybMmU63+zLDlhO//6Hq1+O/7C1xbT+jTfyrQ2LSL2cBth172OmMVrm6eGtpllPTRM+8CTbuJH1jb2mqd+nOk7RnpCYkTAhfep3iynr7aZ/D/4d4ZsWc95Li+0nC1l1Oz/4szpgkF997XFecC6eiIiIjBMTIthKTmWd2o0wffp3yYqL38+KVcZH3P0el1Sg4gTT5cvt3z+Hr/z3v+KKSQq2REREJpIJ0Y2wZqp196ua+DiYIQVauen+T1QNVBG56WXOWXUnbP4nziyq4pMvKdAav57l/P+zn0/M+nNOXe++O+F48dH1/43I5H6qMgWaq9ZwxSQ4+5sXFWiJiIhMIBOiZcuue2DlzgZYXj66fj+jmN/sx974/2GfQ9cqGT+Cf0f4pnmc79DKOe4E/47wTdVc4NRq+6kvcv/Gy5kE9P9/9/DwriKWT0REREpuggRbIiIiIiIixTUhuhGKyP/P3v1HR1nfef9/tVKUmQmYEDJWIJgf/PCOJkJBDLs00oCVu97u9ijbynpWcWuVPfYslYOeyuJt5SueytG6R8+itdW6x9W2ymlvb3exBQopvUV+lEhsqkJISvixTAgEyEzQFNvvHzOTXDOZuea6Zq5rZpJ5Ps7xyFzzmev6zO/rNZ/35xMAAABkG2ELAAAAAFxA2AIAAAAAF+TtInGnutP4S7sAAAAAkCcY2QIAAAAAFxC2AAAAAMAFhC0AAAAAcEHeztmSJHlX6rX6OnklhQ5t0G0dO3PdIwAAAACwJL9HtkJP6rYt/6Cbd+6Xqpbr6bJcdwgAAAAArMnvsBUVelKbA1Kl/7Zc9wQAAAAALBkeYQsAAAAAhhnCFgAAAAC4gLAFAAAAAC4YNmHrxcBhyd+gh7257gkAAAAApDZswpa61ujmLU0qqf93vblwre7KdX8AAAAAwER+/50tg4aK57Sy6qR+seUftCLXnQEAAACAFIbNyFaVzyMF/qAXc90RAAAAALBg2IQtAAAAABhOCFsAAAAA4ALCFgAAAAC4YJiErdtU65dCwT/muiMAAAAAYEl+r0boXanX6uvklaTAJt3csTPXPQIAAAAAS/I7bIWe1G1bct0JAAAAALBvmJQRAgAAAMDwQtgCAAAAABcQtgAAAADABYQtAAAAAHABYcuChsbFOd+PE31w6n6Y7c/pYwAAAADDVX6vRpgnmrZuUkPjYjVt3eT4fqzu12of7PQzVTDK9P4CAAAAhYywFccsgJhdlyiYOBHQ4o9pvBwNYKn6YSZZe6sjVFZGtwhtAAAAKETDLmx5KuZrjv+49rx7SH1JG1VpTv3lCuzcoc6kjZKzGw7slM45FYYy2acTkgVJJwImAAAAMBIMszlbflVU+tR9yCRoSSqtmiZP1wHbQSudoGB2m0QjT+kcz2x0CwAAAEB+Gl4jWxMmqlQBtZ40a+SXv0zqbgnY3n06IzLZGMUxztfKh5GjVOEvvtQRAAAAKETDKGz5VF7lV1/7DnWbtPJUTFNp6ID2mAYyc06WBWYSkJKFmOj/o/tM1N9sh5xkJYUAAABAoRo+Ycvjl98bVCAQNGnkU6nfp75AwLTMMJVszEWysr/465Pdxhi63JxvZjwGpY0AAACAuWETtkqrpskTOqBusxQ1YZoqvEF1mAay7MuX8r9E7KxGmGp+mpV9AAAAAIVimISt6DysFAtjXOaXuvaltQJhPKfDUbrzrvJpPpTZ8QhWAAAAQKxhEbY8FdNSL4zhqVJFmgtjWJXp3Kh0RrjS+QPIucDIFgAAABBrGIStyDys9mbzhTH8l8sTOpBipcLMOPEHitMJXPHt8zF0EawAAACAWPkftrK4MIabjAHJTuBK1C4f54AxsgUAAADEyvuwFf4DxSnmYU2YpgpvQK0dziyM4fTftEo3MFn5g8lOjLYBAAAAcF6ehy1rf6A4ujCGWZmhVYlGoIzXJWM2spMqMCVrk8mS7lbZWY3QrE2y9qkeAwAAAGCkyuuwle2FMZKNQKWzH6u3jf/DxMlClxvztsxub6fvAAAAAIb6zIyrZv/livJJOn6iS/39/bnuj4FP5dfNlz+wQ3tMygM9FfM1x39ce941XxYeAAAAALIpj8MWAAAAAAxfn811BwAAAABgJCJsAQAAAIALCFsAAAAA4ALCFgAAAAC4gLAFAAAAAC4gbAEAAACACwhbAAAAAOACwhYAAAAAuGBUrjtgasFK1S6eOHi5c7tann0zd/2x6vr7tPaGKYOXO9/Wmue2pr5d9VI9eNdM9fxqlX6wPU/6hDRVa8l37lFtUfRyr1pefFSvt+WyTwAAAMim/A5b255UyzZJmqXxa27XxFTtU/Dd95Qqiz/Qh2tfUL8D3Utq+7Nas10aOOFOZx+RcHQkYfCK7LfHRmByok8jWvRxadZLj7+q9virr79Pa28osRGY2vT646v0uuG2AAAAKCyUEear7R/oiKTJMxqHXld9rSqLpCMfMjLlnDb9rq1XKqrWF6qHXtswY4rU26bfMTIFAAAAiwhbeWurPuqUVH6lGuKuqZxZLZ8O6yOnSw0LXHtzm4IqUuXM+LTVqOnlUrBt99ARLwAAACCJ/C4jtCxSZjgwP+a8jr2wWqcOStLNmvjE9Ro/0PZKzXjiqYFLffteUdtP9tk7XPz8p94kpWcpxc/rCeuJ/L/pw8NaWD5F06+XmrYP3uYL1UVS5/9Tk+E2lUse1rKZhh2l06dEpXJJ5pE13LteC8sHLycud3TA9fdp7Q3Sloc+0PR1N2pyZHOw+Xl9L66ez6xPDfeu10IlLrusXPKwllW36aXHd6u9d6Zqq69VpdoGH7vrr9Rk9aql2Xi8Rn3T0J/441mTuBy04d71Wlgc9/xFngdf9HLS53eB7v/+DapQp9769gb90k53AAAA4KgRELbCYWrMvlfUEg1NC1aq9u7HpBdW69TBN3XsgTd1TM7M2QqHGqnlxVWRQBI+YV62rkRbHno2JgCZi5ysd76tNY9HTrQjJ9QDtn+gIzdMCZcSbo+2iZQQ7jSEhuvv0xK9qjUPtcXse9m9ARcWwTAEhIeM/V6vb8qlwKUpWriuRC0vrtIP2qLPwVItaX405jlI2adivyqlIQFl8vgiqSegdrVJbb2qnRkuJWyPPJzhEsJmQwlhtZZ850p99NAq/SCypXLJw1p2w8NactSFRTAGQvCqgX033Ltey76jNEM+AAAAsmHYlxGO/vpcje/9QJ3G0alt23Ssd4yKvzDL4aM1auHMIgWbXzWcULfp9debFVR4BMqqyiV/pck6rC2mYWhoKWHCEsLtz8aN8kRuFwkXjrr+RtUWxfW77VW925lkfpkjYlfyi5b7FU+y3qcjp3oHr6teqgfXPawl1ZJUrbJiKXjqcMy+B0sJE5UQtun1x2OD9ZA+OaZaS+qnxL3mpKYtzQomnF+2TU99+zv6FqNaAAAAOTfsR7ZGl46RimJLAweUTpJks0TQTLVfxepVe3Pc0EVbuPysckK1JGvDGpPHDy0FTCS2lDBxCWGyckT1ynGVE0okFWnhuvVaGH9lb+KRI7dZ6tPJ09LMknDZ38xq+aKBKvJ09ZyM/KMtrpQwYQmhhpaSRvQM2ZKpKSouknwz79HamUOvLZ4kqy85AAAAZNmwD1uSpN4sLOeeK5FSwuIJ1YlLCAeC1uGYMsbwvB+3OnXYZslkNqTo09HTCqpaZdWSxkstv2pWZf21qlRAxTEhNbwqYW0kmE0eUkKogaAVM28svgTUYYnmqAEAACC/Dfsywv7u81LRWI3OxsHaAupJtFpdJAQNjI5YFV/mN6lkcAGEAeGSQF/1tWpIuApheOQj2Px2VsJP+8nTkkrCoSVPWOpTWyAy6tSo6cVt+t323WpXtb5wfXi0sueoYX/NbZGy0MSrEIZH0g7r3ayEn8Pq6ZV844eOogEAACC/Df+w9ZNdOqWJqlxzd8rAFQ5mV6hoarpHiwSfmUsj830kqVpLlsyUr7dZW2wsDtH04WGpaKYWRud5JSlLi2k7s0jq/CAuVA09GY9flc+yo6dj5x3Fr4AnSdvfVktvkWrvum/IkvSJNNy7XmvXrdeDS1xMZ5b6dFg9vUWqXPJXKm7brXaF/2ZWbX21pNPqMuamtt1q75Um33CjJicoGx0S7hI9Tpa0qatHMaF76HPXptd3HpbKb7T4GC7Q/d9/XM98/yHdMd12hwAAAOCgz8y4avZfriifpOMnutTfn1+FeKO//phmzBqT4Brj0u7S0OXdE7UJ8933lCoNJ7PpLP0+ZJn1ztilu4dcPyB2oYeYdr3NeunxgBauu1EasoT44DLjCZcXjz/Z73xbL536q8hy5uHV6tLqkw4PLLke26fEc8QS9W1wf2mWHlpejj51n8JBxnB/o49bgmXUB/qdZIn12FDUq5YX/5+K7zI+TkOXhh8Q83qJbRdsfl6va2nMczf4OMSF8YR9q9Id3/2GZo+Vzu39oVb/x6FEPQAAAEAW5HXYwkgQCRNp/y0y2LZwuZ75SjlhCwAAIMeGfRkh8lt4iXvpyE6CVnZU6Y755ZI69RuCFgAAQE6NjNUIkX8GSht7Y/4YL9zz5RWP66Ypks69p2e+/VMdyHWHAAAAChxlhAAAAADgAsoIAQAAAMAFhC0AAAAAcAFhCwAAAABcQNgCAAAAABcQtpJoaFxsazucNVwe51T9NF4/XO6TFdl6f4yEx2wk3IdUhvt9tPM+dqKdE7L9mCc6Xrp9yLTvZrd343EZ7q/vkc6t5yff3vdO9MfJvrr5Ph5pWPrdRXZeSE1bN7nYk/zV0Lg44X1v2rop6XVm+4rfh9n2VLdPJNvPk1OvIav7SbWPRNfbfZ7yTTof+Hbubzqv5XwUfx+cvE+pngO3Hzu3niOz+2X2OWT1vWzWlu+fxPLxcx655dR734nv2VT7zPV3SS76k+i7J5V8+1wkbJmw8+t9siclfnuiF2Yhpft4Zic56bzQUwWsdE5+cs2J11Cq+2blAzPRc5XOB62d9082WLk/du6nE58b+cjN0OhWiHNCpv0xfvZY/Rwya2s36Kdi5/vHyuiW1c+mTEOP2QlY9N+JXrNWPk8x8hmfd6c+2zJ9bTnxHWHl/MB42W4oyfb9id7G7H1sN4zl4rx82IUtT8V8zfEf1553D6kvaaMqzam/XIGdO9SZtFFyqX4tzNcPZk/FfM2p9A1u6NqnpvcDsY0mzFJDrX/wcuiA+WOZRfnwi6OTYczuGzhXrys7r+n4dsmCSao2dn+lGm7SPsmNf38meg/nkWRlslZeF4na5vLz1eoPZrmQ6z5k8iOE0+EmPogaT5jNrk+1LzvXucen8uvmq8I7uKW7ZZNaT8a2svRdD1vSDVypfkSx+2OJk6+5aN/S+Yy18xluZx+FapiFLb8qKn3qbjEPB6VV0+Tp2pdW0Bq2JszSnEqpY+em5PfbU6U5tf6EH95u9Keh1quOJIE30ZdkvvzimOpDJpMP5Fzcp2THNv76m6qPqb5EnBj1SvULeEF8cJ/cp6at0sBJV677EyfZSazdk24roxKJbuc0J0pIk/1q7MRomFOG+6hqOuwGrXz4IbX06vmq0AHt2WpyjmPlu96x/ixWjTf5D7JDQl+Ui+Ev3ysHMhlxyVQ+vIatSOfz3sp5mdntc214ha0JE1WqQIqg4Je/TOpuSe+Nbjbcmmxbqg90K9syVXqZX0oRMD3+y+UJHXA/aFmQq+CRLU4+x069hsyG4lM9F8kCmZPPYable8get0sJo9w+ObFysm31vWGlbbqcGBFP96Qv1XeilZIkY1urpZRW+pJsX9HLyU7AEj1Puf9Oip67pPgx2cJ3fXYF1Lp1n7qzeES3ysDS+RHVaXb2meg9nehH0FTHsPPZ60SoNfvRzon9pJKt83KjYRS2fCqv8quvfYfpm9pTMU2loQPa42CgyP/aUJ88Xkkh81YeX4JfoDCE02+6TL/AnXwNZTIClZ8nKPlpJJVGJvpidqJcxux4hfh6Mnv8rIaPbHGrxCjd597O51mik1In+pAxj08eKUVJv7XveuSOlR/szaT72kv2HrDyA4jVfth5bzjxA1H8ftz6Yded8/JYwydsefzye4MKBIImjXwq9fu0KkcDAAAgAElEQVTUFwikNQfJ+Gt9vii9erFqygYvu1sCGF8vHkxcBuip0pz6afJELxtKBuL7W1G/eLAUKm5+WLq/ShiZfbCl+neiYzrxZo5/HaV6E2f7iz1RYErF7DlKZ6QrX95jdn7hsvO8uf+c+lXTOEulhi2xnw1Dr49vFy4B0tD3eOT93RdpZ6X0NP7fhS7ZCI7VE5Bkr8tsl70l+05M5/2b6jZWy/4aGhcnPQGz8pikOtFy/rPJ4veqU+K/n5PNy46bH9rXvkN7OoIa+tkxTXMapyVoZ03p1YtVo31qOjHRcDyXHwMH2Hk9GuWyjDDRMRNtd6MyJZ5T3wupRq+TXc43wyZslVZNkyd0QN1mb84J01ThDarDNJAlZ/XXw+w8qZEP6NA+NW2NlER6qjSnfrFqYk6WDKNV3llqaIxeiHyYeeMm3Md9cA6eoIU/YD3tO9QU/SCdMEsN9fMl44di5AO6L65dzYRweWf3+5vUNNAu+ZytZFI91mZBIdmJn9UTQivPq50ymXT34bZ0TtpStbfyS5HZ/uz0xUlW+51fQcKn8usmKrB1k1ojWzwV8zWndr7KB95vAbXG9Df8eeIP7BgIZH0dB9RdOUt+v0+dhpOnfCo3Ho7iXytOlUem86NGJlL9wJKofap9ZTKalOgxTRRkM/0xy9nHNdX36tAFMTy1i9UQvRAJSrLyXd8nw/fu4Hyu0qsXa851iglc0XMH4w80nopZKvfsU2ff4GdHqjlblpXNUoP3gPZs3ae+6LlNbZW682RxrnTkz/fBIKs/ihq3DVdWRq/zyTAJW7mrZbZ7Ehkv7drQCdNU4Q2o9V3D3LO+Q+romqaay/zSyYD6OnaoqUOKCWbxk1L7ohPuzT84B8ovjb9YnTygjtB8w8mYXzW14cc4tt2+gZM+u8ze/Lk4wc30Vyk3+utkfXG6pYBmIdjJ+0xZohVBdb67L2ZLX+C4+iqnqcirhHVInoqZ4Yn3Mb9IBxTokmoqp6m0IzrnIrwIUV97etUBw4nTo5pmI+bxMikVytb7w6mTGaslOom22SlZSvTY5Pqky8r3aue7m9QpDRlRjmHlu94w1cJ4DtR96ID66i9XqedQeLunSjWVPvW174g5Tl/HvnA/bPOrJu5xHlKBEzO6FlR3IKiKynEWyiaHn2yMApt9/iT6rIq+L5yoOnGyPDDTz7F0PzOcPKeyaliELU/FtNQLY3iqVJHBwhhmMnlRpFsb6vF5JfmGfIhJkkI+eeTsyZDH55O8saNeA3xeScGBmvLuE5k/xrn+EhxOnKovtvurV6I+pDqZISwNcjWcxy8RH5HwM8FTpZpKqWPn0B9Zug8dUF/ZNPknSN0nNbgIkYUyoVSjxPn+GnBqVNMYstz+XMtkZMvJvtkZ2UrUNtMfMTO9bbZ+PLL0veoYr4q8kqdyvhoqh1478EOMd5w8Sr8CaKjsL5Dh9MmyUyW68e9NJ88djX2zcmyr11k9bvTY6QYqt74T0vlxxalzKjuGQdiKzMNqbzZfGMPF0pfcnUBm+UMsi39zK1kdbq5lo2Q0k19wM5HqQ8+JEkknpDNynC8n9nbKNNJ+bRlKeQd+MY/8Kj6UT+W106T2JOW8fQEFQtNUERktL70s9SJETkn03Nl5jeXLc+/m8ZOdrNj9TnK6j/n0uZ3OSVJWKyiy/Lcs7c6pGo6cPFl2+kejTH4MyfR1mOpHkGT/ztb3ulujWcNB/oetLCyMYUW2A1dfMCTJK0+Wxtn7gkGpLMWwfl9QfYr8WndyZH6YWykjdOMDMZsyeS2n+qXK6i/v+fiBORxGY6ToqHdAHRZOqEqvjpQcJW0bVOehgCpqJ6pUkr8soI730xvVSjWyY/blnux1lK3nIxfPvd1gmU75r1vsjGxlQ3wQNW5PlxOPq6XvVceE1BuSSlONmIXOqk/+pCXH+c7JHxjMvsOi+8hm4HKK2WdtJqPj6fQh2ShkJucfyUJjPsv7sGXpDxRH5ze5+GuO3Rdoxi/kSF13Rf0s9WVhdCs6Wb7muiqTX+EC6mgPak7lfNUEDTXZE2apRvviarTDH+jxk++zbbicQCfiZt/TLZGQnAmdTp4Q5cuHbbZea0N+iDGsPhbzvp0wSzVlAbVuTVH2e/KYujVLNY3h+ZjJ5l9a+Qw0u/+pbmv3JCefnnsnJXqc03m8o/sa6dz4tdyp97G171WnRH84maU5FSajW9G53zEL6oQXyCgNxJ5rhcOiYb7XCGNlhCydYJL180VZG6lyIkhalWj/mX4epfqRLpVcng/mediy9geKowtjuBVIEr1Ao/92ar9DBdX57g7puvmpJ586IlyyWNM4K66+PHaJ1r6OHWoKzlKDccWkrn1qej9ud32HtKdlnBpqDfXjJuUUyd6EVkvu4kdczK43Y7WMMF9CXLr3K5PjSck/SK18kFv5wMzml5QT+0l2e7uPe/IVRg3vw5P71Nq1WDUDf1YhqI6d+1RUP8uwp8hiNtLQeZ9d8ZPrwz+ilFZKHYcSf9Ym+wxMxeqXYzonOfny3Jvtw24gdOpxTrU9/phW+5bqNna/G90onUp1f6x+p0TbZtY/a9+rjjm5T00ts2K/d6Uh373d72/Snor5mmP40yx97Tu0J64/fR071OozftaMnDJFK0HL2Dad7yQr54tOfXek83lp9X6l+z6wcjyrwTSbodWNc7vPzLhq9l+uKJ+k4ye61N/f7/gBMhE+8QiZz1syW8EnTfFDlWYv3qhkJ51Wj4X0mX1Y2Xle7F6fzv7cCBFOv4aS9VuyX5KQSd+y9d5w68sm09dbNnkq5muO/3hW55ZE5fJxcvK5z6fn02luBtt0Rw2sXOfE59JIfl5HCrd+LLPSJtPzRbv9Sef9kqpfuQ4yTr4f8/U9n8dha/Dvwpj9ipLLkwQAGPbS/Jt4AAAgtTwOWwAAt5RevVg1ZZJrJU0AACDf52wBANzQ/f4mNeW6EwAAjHCfzXUHAAAAAGAkImwBAAAAgAsIWwAAAADgAsIWAAAAALiAsAUAAAAALiBsAQAAAIALWPp92LhVEx+8R+W+wS2nNy/SR7+JbTXmlp/rmmsMjY5s0s4fPJWdLhakMt2yoU6TBy6HtP/H72jbLmMbrxasn6c649OydbM2vpG1TiZ119X/rr/VJt38/mu57goAAMCIQ9hKx4KVql1comMvrNapg9k5ZMk371G53tN7a1bpfLJGX/yRrrlG6vzxIh075HZ/Nmt68Xt673uJ+zMk9EWNqPDn1YL1dZp8dL+efqwraaua1fNUpza9urxDyVs51Z95qjtj3p+ohorn9Lf+w/rFFoIWAACAGwhbw8L9mjBZOr3ZJGhJKplRLh3Z5HrQsq5TH635R53OdTfcMrdMV/hC2v+GWbAp04xJ0pGtbgctm8rWamWVtHfnGr2Y674AAACMUMzZGg6qPq8xKRvdqjHFWegLBk0eq3Gp2sz1amw2+mLLbXq6dopCh17Wo6Fc9wUAAGDkGhYjW777nlJlefTS+QTlezdr4hPXa7yStJl6t6rvvkI9L2yUvn67JhZFtnduV8uzbxr2M0vj1xiul6TeD/Th2hfUP6Qf0sS7n9LEBO2si5+HFVTnj7/q3shU1Xpdc+c1g8EtmKQM8Is/Uv2iwTt6/r3n9d7GNyTdr+lrF6tk4JprdM3azQnaWVPyzc2ark3a+WGN4XguPwZWzK3QsjurB4NUsE2vrnJxZOrWOq1oLBu8nKQssWb1Ii2aFL1kmBsW319fnVZsGLzdkPlhZf9DlTqsX3TsdPRuAAAAINZnZlw1+y9XlE/S8RNd6u+3FxXcFw0/x9T+wJMKRrfd9wX1PhsJNlPvVvXdV0r7XlHbT/ZJkkZ//THNmDVGpzbdr2PbBtt4pMFtC1aqdvHEwcuKhKliC6HJkTlb4eAyxhhQvvgj1S8qiYSNoQtixIgEJSWbGxVuNBhcYvYdvjbRvKvoXCvj4htjbvmRSt77x5gAZG3O1mnTMsKSb27W9MkyhL7IfVby/bru1jqtaPTGLHJRs3qRFl0aDVzxC2LEObpfTz8WGrIgRgxDeCtbPk9La0PavHy/WiUlnncVXWCjK7bd6jK1PmYMgdbmbN119b/rb3379eTOJ9Vk+YEBAACAXXk9sjX667doYtF5HXshGrQkaZ9OPbtv4JLvy1fK0/uBPvzJ4Lb+n2zUsam3a2LNzTq2bXDkyhistO2gTi2eqDH+WZL2SZqli4sl9QRsjk6lZ8wt81USfC92JOg3m9RZf48mXHOrjh16Q8e+94aOSQMjUucTrD6ojV/Vzo3SwChZT6IFKG7VxPpynX/v+ZjAdHrrezp/Z7VKqhTeXrVe06/x6fx7z8cc5/zGfwz3w7ZyTTeMfEkJVlCMGV17Q6fb/l7l15RojGQ9bJVepbevmpD4ur52vbD7sDZa2pFXC+aW6WxL7GqCrVvadO2dn1fN3A517erSxuWR+5QgmEVtW7VZ26SBUadzCVcfLNP8Wq+ObH0nEqAkKaRtu7pU1/h51ahLrZLKltepzhfS/h/vj233WIelexWrXpN8UujEOwQtAAAAl+V32CodI/V+oN6ko0fhgNR38HdxAWmfeg/eIk31a7RkMTzt06nfLtDExder9onr0ywLtG7MeJ/kiy3DGzC+fOi2jJTL55PGXHOP6q+5Z8i1vomSDkmaWKIxCqrzPafWJM/SAhndv9eN253YkVclPmlc7byYMryoksmSdg3dnrbIfK5xjYu0ojH+ypDK5kqtu6QJJV4p2KZWR459hUq8TuwHAAAAqeR12Mq6bU+qxVB2OOOJpyQZSxgdlmzOlEvszqkqVGdb3tFLG7K3ckR2/+bWH3U6JPmzdTgAAIACltdhq7/7vFQ+1mR0ap8+6bldnqlf0GjtM7SZpaKpY9IvCTz4gtoe0EDoGrdACm5LeStbzp8KSpNtlsulrVPBoFSSasTs2GmdV/ngSNdw4VgZYUing9LkEq+kLIStXSGdu1MaO8H8eCdPh6RJYzVBcmCRjp06Glyu2ZfNU0PHTkoJAQAAXJTXS7/3/2SXTmmiKtfcrdEDW2dp/H2Dl4Otx6SiK1X+9VkDLQbmev3yTWVk0lh5dF4fH43bfvSc+jRGxV+YlfBmVpzfuEOnVa7pD663sKx7pt7QsZ2d0uTFuuaWW5M3O7RKnUekkkU/18Sqwc1jbvlRzGUpEhZ94fleOdf9e924fVvi/ywHLSk6X0qT6rRseTZq7bq0oyWkcbXzZPa0dG1o0xGVadH6Cg2uWejVgtXGy5IUUtcZSZM+rxqTo74YOCx5p6qBckIAAABX5fXIlvSmjj1wVB+vuT1S0idFl3UfGLHa9qRajt6t6rtvV+2s2yMb0yn9i18+fvBYQ1YcPPiC2jatVO1iwzFtz/F6Sh+tkaavXRw3b8ulpc9/84/aqR+pflHcvK24UsbTP1ik9275ua65c7Oi42Dn33te78X15/zGr+qj8Zs1Pb7dcC9TfGO/nladVjTGzdtyafn3rg3v6NXl87Q0ft5WzPLvXdq4/B0tWD9PSzdUR7aFl36P70/rY++obP08LdqwSIsi24aUKXb9Qe1arNmVt0nvv+bwPQIAAEBUni/9DsAVZWv1Zu0E7d15L3/YGAAAwCV5XUYIwCVda/SLgEez65/Tw5QTAgAAuIKwBRSoF9//h3Dgqrwt110BAAAYkSgjBAAAAAAXMLIFAAAAAC4gbAEAAACACwhbAAAAAOCCvA1b40tLNWpUnv8ZMAAAAABIIm/DFgAAAAAMZ4QtAAAAAHABYQsAAAAAXFCwYevCrXvUc+u/xG29Xf3f2KOPa3PSJVgSfo6CX7o9drP/3xRc+TNdyE2nAAAAgCEKMmz9+Uu/Vu+UDhW98f/FXfOKRu/u0PlFhRy4vFqwfpFWrC4zbVWzepFWrK+QeSvnXbj1nxXSHnl+/UrsFYF/0iWHK9RL4AIAAECeKLywVfsznZ0peV/5OyVc67Dl7zSuuVfnF3HSnm8GQvIP/ynhC3fUG/8q79kK9Q4ZsQQAAACyr8DC1r/o40UV+lzzixodSN7qs79+MQsn7bM0fs1Tqr3vZhePMYL4/019M4s0ZnOSkCxJekWj/+8efW7K3xTwyCQAAADyxWdmXDX7L1eUT9LxE13q7+/PdX8GjC8t1dkzZ3ThgoPjS7U/U88iqehJsxN2Y9tSeV/5kmkwy8jUu1V995Xy9H6gD9e+oEwe/ZrVi7Ro0tDtZ1ve0UsbQuELcyu07M5qjYteGWzTq6s61JXoujhHtm7WxjfKdMuGOk1O0ibmWJJ0a51WNBoKDY/u19OPdcVdL21e3qay9fNU50vSTuFRrbOVH2pcklEtowu37lHvpXsstQUAAADcUlB/NfjCtArp7B5rJ+AtLRqz6G/0Z78kt8LWwRfU9sDNmvjE9ZrxxGM69sJqnTpofzfhoNWlzcv3q1UaCE4yhp9b67Si0av9P96sbbsGb7d0vcKBa1eHXtrVofCcrXmqOzM08Ehd2rh88+AxLzWEtThly+dpaW1Im5dvDvcpst8Vq+P3W6ZFG8p0tuUdPb0hFOl7nW65dbM2vhFtc7suVBZJZ45beu5GHeiQFpXqzyq4oVsAAADkkQIKW7frz5dKn2t/x+IJ+B/12bNSaNq/6JKW+IU0zI3++mOaMWtM4is7t6vl2TcNG97UsQfe1Nn7nlLl3U/pkk3369g2O0fzquxSSUf/OxJqJO3q0h9vrVZdiVdSSJJXC+aGA000aElS65Y2XXvn51Uzt0Ndu4bsOANlml/r1ZGt7wz2SSFt29WlusbPq0Zdhu3RUbNo30M6d6c0dkK075J0hf48Thqz2+LzEOjW5zRHF2qlUS0O3B0AAAAgDQUUtsIn7NnQ/5PVavmJvdsEn71fH379Mc1Y/JTG18QHMjMhdZ2RNMkQYuaW6QqfdGRXdATJqxKfNK52nlZsGLqHksmSnAxbc70aK2lc4yKtaBza37K5UuuuwcunjxivHxw9G+C/XBdUUC9WAAAAjAAFdP4aHqmy63On/+h8VxLw3feUKsulU7ZHtqSTp0PSpDIt2rBIiyLbzra8YyjDG9wWM6fKZTEjVpkIHE/jhdqrz7pV/gkAAABYUEBh6xV99sw/60+V8/TnX79ioZQwPBI2qvuVlC3j2SsjnKXxa27XxKLzac7ZipbsmQWbkE4HpcklxtI8FyUsBcyEzZJOf6n+pG5dQtgCAABADhVQ2IounDBDF/xKvcJgba3Oq1feNE7YLZcRGlcjfCCz1QjNg010vlSdli1PNbqVoCwxgfBoWrL5Xl3a0RLS0tp5cQtdpOsVjWq/S5pZa6mcMNVCKA33rtfCcinY/Ly+93pbpp0DAAAAEiqspd/1L/p45d/o/OH/o+I3zEZIblf/N/5ZoTOp2mUiMqLVY2d+VhLxS6xHBeNWC0zULr6NpIEVCX2DWxKNnMUvNx9fphhekdAbeyPjsu4DKyTGLtyRkP/fFLx9jtT8r/L92mS0MdJu1OY5uiTJ4hiVSx7WsplFkg5ry0PPqinFoQEAAIB0FFjYkqW/n/XnL/1aZ2d2W/t7XLkWWeb9XHwYSrT8+zCX+nmxGpIb9c11N2pyb7NeevxVtbvTXQAAABS4wvszRC1/p6LDRQrd/mv1+xNcX/sznZ1ZpDGbh0HQkqTJYxP/IeLI9nMnR0bQkqTP/vpFec9WqHflz5Qogl+49Z8VGtehohSjkZVL/kqTJR3ZSdACAACAewpvZCviwq171Kv4EZDwyMifdycvQctHCcv1FLJWnjfshJ+j/va4ckL/vyl4e6kuMRuNrF6qB++aKZ961fLio2K6FgAAANxUsGELAAAAANxUeGWEAAAAAJAFhC0AAAAAcAFhCwAAAABcQNgCAAAAABcQtgAAAADABYQtAAAAAHABYQsAAAAAXFDAYcuvmsbFqpmQaZv84amYr4bGxWq42p/rrgAAAAAFr2DDlqdimkpDB9RxMrM22VB69WI1XFclT267AQAAAMCGUbnuQG74VOr3qS8QUF9GbfJLX8cONXXkuhcAAAAApEId2ZowTRXegDo6gpm1AQAAAIAkCnJkq/Qyv9S1T90ZtjE1YZYaag1zp0IHtOfdQ4OjZBNmqaFWat16TP7GWSqNbO5r36E9HUGF54sNbpemaU7jtIFLg+3Cc7XmVPoSXudsn6J8Kr9uviq8Sr4vAAAAoMAVXtjyVKmiTOpuCWTWxuwQFfM1p1Lq2LlJnX1SNJzMaRyn1q3GAOdXTaNf3S2b1HRSkbAzXzXBTWo9GVDr1k2SwnO2arzJw8xg+WA4oCWa22WvT1517Nyk1r7o7WaqPLAjcjup9Or5qtAB7dlKuAIAAACSKbgyQo//cnlSLYxhoU1yflVU+tTX3jwQTqSgOlsOqE9++eNWNuxu2aTW6HFOHlBHKDKq5ig7fQqqY+dgsOoLHFeffCoaGMXyyeOVFAoStAAAAAATBRa2IqHDdNELK21MeHzyKKhAIK6Mry+gQEjy+HyGjUH1hhRzuS8kyetzduVBW31KJajOQwGpbFZ4mXlWSQQAAAASKqwywgkTVaqAWk0XxrDQxm35Pmp0cp+atkryVGlOfXQuWSCuHBEAAAAobAU1shVe9OKYhYUxzNuY6guqTz75/XGjRR6//F6pL2gW4sIlen3BkEmbbPfJbL+HtGfrJjXtTFwiCQAAABSywglbnipVlAXVcSjVwhgp2qQUUKBL8lTOVPlAfZ1P5bXTUs4DK716fsLl5vuCQcl7uUrTrtdLv0+WeMfJM6QkEgAAAChsBVNGGF704ri6TerzrLSxovv9TdpTMV9z6herIrqxa5+a3o8PcT5VGNuEEq/w19exQ62+xaoxtDUux1569WLVlBluUDlfDZWSsbTPep9SiV+SXopfVAMAAACA9JkZV83+yxXlk3T8RJf6+/tz3Z8B40tLdfbMGV24cMGBvUWWRE/296cst3HQhFlqqPUSUgAAAIARqjDKCCOLXsSX59luAwAAAAAWFUYZYXT1vEzbAAAAAIBFhRG28hHhDgAAABjRCqOMEAAAAACyjLAFAAAAAC4gbAEAAACACwhbAAAAAOACwhYAAAAAuICwBQAAAAAuIGwBAAAAgAsK8u9sXbh1j3qnSFKHip78u8J8EAAAAAC4quByxp+/9Gv1TiFkAQAAAHBXgZUR3q4LlUX6XPObBC0AAAAAriqwsAUAAAAA2UHYAgAAAAAXELYAAAAAwAWFFbb889Q/rlejW1/JdU8AAAAAjHCFsU6E/98UvH2O/nR2j8Y9+aUCS5gAAAAAcqEwckfgn+R7co6K/6/Ut3KPPq7NdYcAAAAAjHSFEbaiAu9o9FnpQuntue4JAAAAgBGusMIWAAAAAGQJYQsAAAAAXEDYAgAAAAAXFFjYekWfPSP9aebNupDrrgAAAAAY0QosbEmj3vhXec9WqHflHvWs/BmhCwAAAIArCuPvbMV4RaN/+IpG57obAAAAAEa0ghvZAgAAAIBsIGwBAAAAgAsIWwAAAADgAsIWAAAAALiAsAUAAAAALiBsAQAAAIALCFsAAAAA4IIC/DtbmZn29w/pW7OLBi6f2/tDrf6PQznsEQAAAIB8RNiy6cB/rNO3/kOSFuj+79+g8bnukONmafya2zWxZ7tann0z150BAAAAhi3KCAEAAADABYQtAAAAAHABZYRuWbhcz3yl3LChU299e4N+Gb04/Wt67N5rNHbIDXu197l1evmjKt3x3W9ott7TM//7pzpgaBGeN9YTuz9JlUse1rKZRQo2P6/vvd5mr79T71b13VfKE71cdL1qn7h+4OpTm+7XsW1StMyw+OAragssUO3iiZEW53XshdU6dXCwTXwpou++p1RZ/IE+XPuC+pMdtzfuegAAAGCYImy5YfrX9NhVH+pb394Q2RAOTjd992vqiAanj36q1d/+qeFG4Tlg+s91evkjSTqkl3d0avZXqlQ/XTrwkQb2VT+tSOf2/jQmaGXs4Atqe0CyOmfLM+t21eqY2h+4X0FFgtTX71avnaC0YKVqF5fo2Av3q+1geJPvvqc0Y83dBC4AAAAMe5QRuuGjn2r109sMGw5p54FeaWyJKpLc5MsrblDF4V/pqS2GjVs+VIeKNHvxgsFtC2/Q7LG9OrB36AqI7a8/qjUPrbI/qpWO3g/04QNPKhi52N99Xioaq9GWdzBL4/96ovr2bYyMhoUFf/mB+oquUNFUZ7sLAAAAZBsjWy758orHddOU+K09iRsvXK6bpnTqrW9vi7tim97aW69vzZ6hL2ubfinpy1eVS4d/FRn9yqGeQMzIU/9PVqvlJ3Z2MEmXFEVGyGbdPuTa85MkHRx6KwAAAGC4IGy5IBy0onOvwtvC86wStV6g+79Sro7//E7CssADew/p3OxrVLNQ+uWWBaqZ0qu9z8WHsuGrb98ravvJvlx3AwAAAHAcZYSOq9JlxZIO77Qw+lSlO757g8bv/WFs+aDRRz/Vbw5LFVctkBbOUIWl/Q4HR/Vxr+QpnZTrjgAAAACuIGw57pBO9EgqLtO0yJbwqFbRkJbT/v5rmq339PJ/DJ1/ZfTL33dKU27QM18pV8fvk49qVS55WGvXrdeDS6oz6P8+fdIjqXyqfJnuo9g/MIfLd99TqiyPbXPqt8ek8utV/fVZqXdZvVQPrluvtevuU0Pa/QIAAACyhzJCm4bMxZr9DT0zWzIu7f7Lp3+lmu/foG99/5pwm3Pv6Zn/LNG3vmK43fSv6Y7ZRZKuGWwXcW7vD7XaGMC2/Ep754eXgX8r2QiYg4LPvqJja25X5RNPDWwbXPrd6j6269QT12tGZB99+17Rh923aIZx4YttT6pFK1W7OG7eVqLl39sC6pHk0xRdt6RaTdlYBAQAAADIwGdmXDX7L1eUT9LxE13q78+fxbbHl5bq7JkzunDhQq67kgfCS8dPOxAXwgpM9O+IHfnVKv1ge/iBro8AACAASURBVK57AwAAAJijjHAY+PKKb1gqNxzZGrVwZpHU26wtBC0AAAAMA5QR5q3wHzmukMJliNE/hlyAGu5dr4Xlkjrf1prntua6OwAAAIAllBECAAAAgAsoIwQAAAAAFxC2AAAAAMAFzNmyaIx/Zq67MGKcDzTnugsAAACA6xjZAgAAAAAXELYAAAAAwAWELQAAAABwAXO2cuXLY3VP/UVq/XmPfrvf+d3PuLdUDWP7tPGJPnVbvtVo3fTIWE0cuNyvpkfO6UPnu5fYF09r17d69IdnqrTsN4btd/y3Pmi4WE/cVaKXnDrWHf+tD246Jkk69NZs3fSyUzsGAAAAwghbMOjXW4+Eo1npbcW6ZXo2jx3UW99ql/bWxQYtSXq5VO827NcDL0pyInB98bR23XSMkAUAAABXUUaIPPAnvfTih6r64wzN/d7nElz/OS27a4YOFbXr3gf/lPHRltX3aGxvpTYStAAAAOAiwhZybtmDnbquaKLeWOUzaeXTTW9N1NjZnXrpi1nrGgAAAJA2ygjTEC6xu8iw5dOEc69m3FuqhsvM2nyq7v2x86SO7ezWW78020/iNuE5YKNjt/XF7SNuDlf4fnya1rysVH0qva1Yt0z+RBufuKDrDPev96Me/ehp457+pC9O79G5veVak+qgkXLC6/5XUPqNWTADAAAAco+wZdeXx+qW6VLrz7tNFra4SH/9QLFqPMYFJi7SX9/rUel+44IVo9XwyEVq/Xm33tofCSj1xfrrE9FQFtnPuXN6/pH+8E3qPFr61VLdpMFwE51fZexTOFy58QBY65MkyePRLY+Eg9jzv1QkEI7VgrnStl2RNl/s1f8okk6eSFQ+GO9z+s1Hxbpuer+WSc4tlgEAAAC4gDJCm0pLLlJ4RMqkzW1jVeP5VK0/N44YfarfPhe/MmDsaFf3Hz5Rry7SpdERoy97w4Htuf7Bm+zv074T0sSK6CjWaF03/SL1fnTOlVUNh7DUp6hPw0EyGsBOXFCvLlLJZEOTik80VhPVbHH+1EsnPFJRj76YdilhZCTtoyLCGgAAAFzFyJZN3a+FdOyRsWp4pFQNScoHS8ddJPX16cMMw0842F0UOVacvlEqVb+660ZprD5V5x8+zexgTvZpYENcKN3fp1f39+l8YHDTssv6JHnc6/CAP+mlF/fruqJivfvMbM2NX/EQAAAAcBhhy7bo8uiRcrqvlqrmq0nmUTl0vKz+rStLnOvTSyc8esD2rTw6ajssfU7L7pqtcOjaqw/+1wxdabogBwAAAJAZygjT9ql++0S3nn+kR619sSV03Wc/lTyjVJrhEbpPfyrpIpXWpWppKD2MXC51Zb6WnT5Z1HGxzumYZt5hrfmyy/qk3ovVnvYBw/O+ND487wsAAABwC2ErYxfpUo/Ue3awjK/7tZCOabQaHvAYAldkgQw7u/5lSK19F6nmq2M1I1mb/Z+os0+aWBfdd3Rxjthm8QFw6IqKDvbJjt8U6Q+9UtVVQQuNw/OtdGo0860AAACQ9ygjtCl+yXMpvJz5q68Z50z1661HevTXDxTrlkeiqSc8vyt2gYxUPtVvn+iRHigeMkdqsGzxU/32iXO69JGxA8c6trNbG0uKdYthIYru186p1bifE+f0/M5LdE+9Yad1Hi39qkdFAxsG52YN3kcrfbIjssLg7IBe+qJPy8zKA+/oDs+5+jHlfwAAAMh/n5lx1ey/XFE+ScdPdKm/vz/1LbJkfGmpzp45owsXLuS6K5KkMf6Zue7CiHE+0By3JbJ4xSmzeVRBvfX6h5qwt05zv2dlmfjklj14SA9ML9YTd5UwQgYAAADXUEaIPPA5Lftxpc5d8aE+WJ+onPBPeunFD1XVW6nnMgxaUnT5+HbdYnGeGAAAAJAOwhbyw29KNPeZSp27IqCX4v+G1h3duk6Vzo1Evfx5PbG3WFU37dUHr+/VW4QuAAAAuIAyQosoI3TO0DJCAAAAYORhZAsAAAAAXEDYAgAAAAAXELYAAAAAwAX8nS2Lzgea824eWb5KNb+N+W/WMb8NAABg+GJkq8A1NC7OdRfgMreeY6v7der4yfaTzv6z/bpPdTzj9SPpPenkc+aEbB7XznNu53aJ2qf6z4n+2u2Tm/sHgOGEkS0AlsWfMDU0LlbT1k2mt2nauslSOytt3GB2EpioP1ZOGrN9P+ycyJr1zep+Uu0j2eOWi+c3kZHwnFs9tp3nNJ/fpwAwXBG2Chhfmkgm2QmanddLomBm3E/89dl6Lca/7u0eN1/fM/H9SvT+TnXi7cSJdqKT9nz4rLHyvFt93Wd6f/Lh8Yhy631qZXQrXx4DAHATYSufeKo0p/5yBXbuUGdfskZ+1TTOklo2qfWk9V1nUrKSuy/EUbp8aqkmfXxGu4987PzuL/bp6qk+fdx5QgfPWb/ZmLJSXV02+NY539Wt97tG1jy+dH/dT7WPdNo4yamTXLsjI6n2ZScU5er9aOexi29n5fXk5v1KJ3ja2ZeV6+KPa3b/7T42mZToOf0+HQ4jmwCQTYStPFJaNU2ern0mQUvyVExTaeiA9tgIWpLzv8wWsvNd3drdJUmXaOpVl+qSXHfIwE6oTidQpVN+lckIR7Jf3eN/cY//NT7ZvqLXOfH6T/X4pXOM6G1y8f5MdmzjY56qj6lGM3Ix6pXseU/39e9E35M9bumGwkzLCPNxJBIARgrCVt7wy18mdbcETNr4VOr3qS8QkEkeSxtfsCNDJuVk6czFSdWXTAKE2QlgohPofBwRMpOPixIkeq6shtRkgSyXny1m4duORPch1/fNKU49V2YlifGXh/tjBgBWEbbyhKURqwnTVOENqLUjmNGxRsLJAdyXyZyLZCdZiUZJ4rn92rQazlL1x+nV1TJ9XzoxZ8u4r3RHO/I1lKQa1Up1W+P/zfbtRP/Sua0Tt3PjfepESTIADGeErbxgbcSq9DK/1LVP3RkcKXtfcuESu2LjprMJ5l5F5k2NMWlz/pMLsfOkPgnq/YNBnTfbT6I20TlgF8d2YeBoCedwRUoF05mXlbJP4X2r84SOXmKcB/axDv7+jHrsHc0VZifbdkaRkp1IplPW5+RJabrltU7N+zKWQ6YKRtkOKlbmXcUze/xyOdKVasQlXqr7bue9YFW6Ja5uB3SrfYt/PRu3A0AhI2zlgwnTVOENqiNgMmLlqVJFyjJDc/FfhpmMXJgbpcunXqriROHKaOylurb8ksgcqAsD26aO/ThmwYoxZaW6+uwZ7f79x4oGlKsnXxjc99hLdW35KB09eELHPwlvKp58ma6eKkO4iYS/s2e0+2DkdpEw5ApLfYpsL79MxZ8E9f7vgzofCYRTJ1/izqIgNuXbiVMm866SnQym04dUrCxokKpNrkef0xnZStU+F3NHEz3vVuYX2pHuSFmyfaXqSyavYTce71QhO1F7ACgUhK08EB2xMl0Yw3+5PKEDtlYgNMruic8oeS+Wzp81Gwm6RFPLL5HOnokdMTp3Rgfjm8aEto/VfVYqvmSUxkjhcOIPB7ZoqJGknq6gzk+9RMUXB3X+E2lMmU/F+lgHsxJgrPUp8f27oPMfSxq4f7mV7shWouszma+RaPTHTnBy+qQ+k8cl/vZOcWrOVvR26ZQC5tscHbullNnqb7rlncluH78vuz9CJLucSalgsv0DQKEhbOWapRErvyoqfeprT39hjOye6Hyso10XdHVZqa4tU5LywVG6RFLP2UzDTzjYjYkeK473YkmfSJdcPEo6G8xSaZ61PkWd/yQ2lPYcOaHdGRzd6ZPudPeTznyfZMdPFqysBq5cjxJlg1NztqyWApr1IVUAzVYpoVlJXLx8CpLpjNg6cSw3nhNGtgAUOsJWjlkasZowUaXKfGGMbBpYHn3spbq2/FJdO05J5lE5d7x8+1tXueqTUyfdTox8prvIQrI+JNt/vs8BcuIYUnZCY6oyTSdKJK1KNp/Nif3a3afbocRJdl87mb5P7fYFAAoJYSunsrcwRs6cO6Pdv9fA/KyBErpPLuhjSZdcMko6l0kguaDQJ1LxxaMkpdhPfGnexeHLzhcW2uiTw5wo+5HMV12zuq9crkrn9jGslBFmevxcn8xn8lylmluXq5Ac5daxc/2cRWU6Mubk48PIFoBCR9jKJStLuXuqVFEWVMfO9BfGyAdjLgkHj8G5SoOlhlM/Nqz+N/ZSTdWZmAUyzF3Q8cDHmlR+qa7+JPlIUs/Zj6VxPk0aGwzvOxL+YgwJgIMrKtobjbPWp3yW6QICmZSiWWXcR76c5OaCm4Elnf0aQ1a6+zDuy60Tcydef+nuz6n7lGlozcb7FAAKHWErh6yMWIXLDI+r2+G/YuzEyEVS8UueS0q0nPn5rm7t/vhSXVt+ma6Nbjx7RruP2Duczp3R7s5LdW153BwpY9niuTN6v6tUV0eP9UlQ7//+jCZddWlsHzs/Nuzngo4e7FaovFTjDa2KJ1+mqeMMGwbmZhnuo5U+5SG7i14YxS9eEW3vZKgy2xY9bjonsk4uKpDJft1itR9OhgAp9d/rSnVCny+joJmO6Ka6baLXk53HJt1g5OT7NL5vif6dqE0+vD8AwE2fmXHV7L9cUT5Jx090qb+/P9f9GTC+tFRnz5zRhQv5MyrgaJ88VZpTP019LZtM5mv5VdM4S572Hdrj4Hwtt09gxvhnurbvQnM+0JzxPnJ9wm9lPoiVxQnsnBimcwJvJ5A4Of8lncfDbju7bdPdX7IT6FThIdehKtPXVCZt09mH2eOYitV9pvu6zPXnDQDkG8KWDU72yVMxX3P8x7Xn3UPJ52tNmKWGWql16/Car0XYco4TYQsAAAC5QRlhjvR17FBTR4pGJ/epaWtWugMAAADAYZ/NdQcAAAAAYCQibAEAAACACwhbAAAAAOACwhYAAAAAuIAFMuA4VtADAAAAGNkCAAAAAFcQtgAAAADABYQtAAAAAHABc7ZgU7WWfOce1RZFL/eq5cVH9XpbLvuUS2W6ZUOdJg9cDmn/j9/Rtl3GNl4tWD9Pdb7BLUe2btbGN7LWSfd5V+q1+qn6YOe9ejRk2F62Vm9WndGTO59UU846BwAAkBuErREvEo7UrJcef1Xt8Vdff5/W3lBiIzC16fXHV+l1w20Ll1cL1tdp8tH9evqxrqStalbPU53a9OryDiVv5VR/5qnuTLL+DA19UZmFv9v0dH2ddGhDbNCSpK7/0t6q5VpZv1IicAEAgAJD2Brx2vS7tl7VzqzWF6ql9rhA1TBjitTbrN8V7MhUBuaW6QpfSPvfMItQZZoxSTqy1e2gZUOKcGhPvR6uX6zKwCbd3LEzwfU79ejOK/T0wsW6t6JeTQnbAAAAjEzM2SoA7c1tCqpIlTOr465p1PRyKdi2e+iIF1KbPFbjUrWZ69XYbPQlRxoq7tBs72H94v3XTFq9phUth+WtukMPe7PWNQAAgJxjZCtXrr9Pa2+Qtjz0gaavu3Fgzk+w+Xl9L66er+He9VpYPnj5yK9W6QfbDdfpba15buuQQ1QueVjLqtv00uO71d47U7XV16pSbYPB6vorNVm9amk2Hq9R3zT0J/541kRKF3ti+9Vw73otLI4rZ6xeqgfvmqmByrbeJOWO2TS3QsvurB4MUsE2vbrKxZGpW+u0orFs8HKSkaea1Yu0aFL0kmFuWHx/fXVasWHwdvZKBMOlhle0v6P/VJ2W1kbTUZc2L9+v1pi29Wq4zKPQof/Si6l22/Vf2htartmVt0kJg1mV7vjuNzR7bK/2PrdOL39ktb8AAAD5i7CVU1O0cF2JWl5cpR+0RcLRzKVa0hydP2UILQ9FQkv1Uj1413p9U4YAVOxXpTQkoEweXyT1BNSuNilBKeHQEsJqLfnOlfrooVX6QWRL5ZKHteyGh7XkqAuLYAzMF1s1sO+Ge9dr2XeUu8B1a51WNHq1/8ebBxa5qFm9SEvXKxK44hfEkOruXKS6OyMXju7X04+FhsyNGte4SCsaIxcM4a1s+TwtrQ1p8/LNkSATDjsrVhsDV3SulTHweLVgdYXKdnWoa1eHXtrVodRztqwbVztPS4/u19PLuxRdBGTR6jK1GvfrnacrvVIgZKU0cKeaTtyh2ZddrgaJuVsAAKAgELZyKnYlv/bmNgVnzlTxJEltkq6/UbVFh7XlccOoVdurerdzphbOaJS2b9WRU71SceS66qV68K5qtb/4qF5vq1ZZsRRsOxyz78qZ1VJbmwZKCJuNJYRtev3xZ2N6OKRPjqnWkvopCjY/HxPimrY067q7Es8vS6r0Kr191YTE1/W164Xdh7XR0o68WjC3TGdbYlcTbN3Spmvv/Lxq5naoa1eXNi7fHL5iIJjFrz4obVu1WdukgVGncwlHl8o0v9arI1vfMYwYhbRtV5fqGj+vGnWpVVLZ8jrV+ULa/+P9se0e67B0r4aYFDvylXDUKmZ0rUsfHpUmX+pVmTQ4wue9VF4dVovFXNcUOqmV3qlq8EpN8Qtp6JBe/t/f0ct27wsAAEAeI2zlscoJJZKKtHDdei2Mv7I3Mpp18rQ0syQ80jKzWr7o3KxIUOk5GflHW1wpYcISQkVGm6YM6UuPo/dMkqaouEjyzbxHa2cOvdZWuOv+vW60VeaYjFclvvCoTmwYCSuZLGnX0O1pi8znihn1GhBS2VypdZc0ocQrBdvU6tSxHVogo8E7QdLJzPsDAAAwQhG28t5hbXno2eRlV0dPK6hqlVVLGi+1/KpZlfXXqlIBFRcZG0ZXJQwHs8mJViGMBK2YeWOROVVuSTRHLdfOtryjlzYMGXpxzXD9m1tNoZNaaftWJ3U0ew8tAABAThG28lj7ydOSSsJBKlkeaQuoR9WSGjW9uE1btu+W6pfqC9dLxepV+1HD/iIlgdOvb5SGlBBGR9IO692shJ/D6umVJo+foozrEx0rIwzpdFCaXOKVlIVEsCukc3dKYyeYH+/k6ZA0aawmSPmzfLwkhc4opDrVxtQWJtfgnSCFDuqQ6x0DAADIDyz9ns+2v62W3iLV3nWfGpI2Oqye3iJVLvkrFbftVrva9Ls2qba+WtJpdRlzTNtutfdKk2+4UZPVq/a4EsKYcCcNXSnQsjZ19Whg4Q5p6IqKUpte33lYKr9RDy6JX5Lepu7f68bt2xL/ZzloSdH5UppUp2XLs7FGeZd2tIQ0rnaebrnVpNWGNh1RmRatr9DgmoWRBTJiWobUdUbSpM+rxqUexx7uHX0Qkir9t1loHF65UMHjSUZpq3THdx/XM99/XPcPqZkFAAAYnhjZymttev3x56Xv3DNk3tbgcuzhYFNbroH5V9ERLF9vm47E7S9cSlgk9bYN/UPG25/VlhnrtfCu9aqVFF7A420V33WjodHQpeFro+07B5d6b3rubU1fd6OWrQuXIAabn9dLp5ZqmTFXbX9Wa3Sf1t4QN28rl8u/v7FfT6tOKxrj5m25tPx714Z39OryeVoaP28rboGKjcvf0YL187R0Q/QBDC/9Ht+f1sfeUdn6eVq0YZEWRba5V6YYWWGwqkEPt7+mR80GA8v+p2Z7+7S3Jdnf4zqkEz2SxkoVVy2Qtmxzob8AAADZ9ZkZV83+yxXlk3T8RJf6+/tz3Z8B40tLdfbMGV24cCHXXRmQj30CcqteD9cv1+zgJt2c9A8b36anFy6W/9AG3dZhskz89K/psXuv0djDv9K3niZsAQCA4Y8yQgAZ2KlHW/Yr5F+sN69OVE5Yr4frF6sytF/PmQUtSV9efI3Gqld7NxG0AADAyEDYApCZ0JO6bed+hfwNejh+qlvZ/9Rs7deTO59MuqLmtL9/SM98/3HdNKVTb317nV7+yO0OAwAAZAdlhDbkY58AAAAA5CdGtgAAAADABYQtAAAAAHABYQsAAAAAXEDYAgAAAAAXELYKVEPjYtPLdm+fqUT7S/cYmfbNyfvm1P0y3sap/jn9HI4EyR4TO4+VE/tw8rZmt+c1AACAu0blugPIH/EnXk1bN6V923h29pWJaD8aGhenfcymrZss3T6TY2SbU321c3Ke7HjxfbGyT7N9ZdKXRP1JtT3bEj1eVvqV7/cLAIBCQNhCwpOvdH7xzvSE2MooULKTRyv9sHt84+VoAEvnOOneLydZDZBW95WK2XOeqC9mYSLVvlL1I1WbRP1J97FyOsgk2p/V59LJ+wUAANJD2MonnirNqb9cgZ071NmXrJFfNY2zpJZNaj1pb/fJQpWVbW7K9Bf4VCfmibYl2q/dY6Xi1MiC3TDMyXSYncc5UaBJtD+zNsZR1WTt7ITsZPszXm8lcKU6XraDPwAAhYSwlUdKq6bJ07XPJGhJnoppKg0d0B6bQUsyH1GIbh+pv3xbHSnJ95GATJ4np++H1RBrtS+J5qVZKf9LNhJm5bWdKpzbHR0yC2B2R48zeR06fb8AAEB6CFt5wy9/mdTdEjBp41Op36e+QEAmeSwtuQpaqRbqiD9BTHV7K7cxY3wcMnk8Mr1fyW7nRF9SXWfnPtude2VlX3Yfdys/Ilg9Zj786JDOYhbJRrDy6X4BAFCICFt5wtKI1YRpqvAG1NoRTPs4VhYtyPUJmdVQlahtJnNtEl1ONEpipb9W+ppsf2Z9TOe+2SlldHt1ukyCsJlMRmoymRdlRTrhMdVtrezT7fsFAABSI2zlBWsjVqWX+aWufep28MhWyrXs7stO+0QLT6R7wp9JULAa2qwEUqfuV/x+UpWhDYcT6GSh1YnXgJX5SfFSlQQ6MSKU7o8YZvMpU/UpG/cLAACkRtjKBxOmqcIbVEfAZMTKU6WKlGWG1rg5upDqeMZtVue9JNtHMrkuAXPifqWz+EE68uVk24lSynRGtlK1tztymqrUL93RtkSB22x/Tt8vAACQHsJWHoiOWJkujOG/XJ7QAdsrEMaLHy2xMj/EjZMwp+cpOTE3Jd15VUZO3S83T3yNj00+jW5kUqKZbsmcE895/DHN9p9KsrLVZOEp2cin0/cLAACkh7CVa5ZGrPyqqPSprz39hTGSlaKlOx/ETbmYSxR/XDceg1zdLzc53f90FtywWjJndrxkI0lW92OV3dHKVKNbyfaZ7fsFAAASI2zlmKURqwkTVSp3FsaQch+u4qU7t8ko3fuT7iILVvftpHRGgpx8rHIxz8+sH1ZK6pL1IZ9e//HM5uwNp/c1AACFiLCVU7lbGMMo337ddnpuk9ntU+3LycfG6ZGtdMok8+U5lhIvJJLp45HufTTezmxhimw+hmaL16Qz9ytf7hcAAIWEsJVLVpZy91Spoiyojp2ZL4xhJl9GKexKZy5VOgt2DPeT0XwcoXNqhC3TfZjNj7LLyfeAWTi30kcn7xcAAEgPYSuHrIxYhcsMj6vb6b9inECmJ+TJbmt1VClV+3RPGjOZ45IpN++XnT5YKTezet+dGElMZ0W+dI5jlfE5MCsltToHLFn/0hlJymRxC6fuFwAASA9hK1eytDCGHZmccJndxqkT+GxIdVKazv5yyery504GLTvtnFjcwqpkI5rx+zIe105pqZX5YlYe60SLWNjl5P0CAADp+8yMq2b/5YrySTp+okv9/f257s+A8aWlOnvmjC5cuJDrrgxwsk+eivma4z+uPe8eSh6kJsxSQ63UutW9+VoAAAAA3MHIVo70dexQU0eKRif3qWlrVroDAAAAwGGfzXUHAAAAAGAkImwBAAAAgAsIWwAAAADgAsIWAAAAALiAsAUAAAAALiBsAQAAAIALCFsAAAAA4ALCFgAAAAC4gD9qnM/mVmjZndU6t3WzNr5h43Zla/VmrfSLLWv0omudy5ZGfXPdjZo8cPmwtjz0rJpy2CMnVS55WMtmFg1cDjY/r++93mbxdqddeSzS7VPaytbqzaozenLnkyPmeQUAAJAY2Rp5vCv1Wu0UtbfkKmg16pvr1mvtvY0Jr61c8rDWrrtPDZb3t1U/eGiV1jy0Si819zrVybzR/vqjWvPQKq156G0dSXMf4cf0YS2pTnRt+Pl4MPGVrvXJlq7/0l7VaWX9ShuvCwAAgPxH2BpRbtPT9XXSoQ1a0ZWrPmzVR52Syq9McOJcrS9UF0mdHzCC4aD25jYF///27j826vvO8/jLQGji8UBssN3tYju2Z/nRpva6IT+gSk3Whjrd3F5PwVuFO20CWgWQEok2QjnYhVNjFS6LsuGU6IBcBZtql+jkVFft9S4cwYrdKCE/SH24mwK5wdSYpbEhNjBjmjiA74/vjD0ef2fm+52Z73y/Yz8fEkpn5jvf73u+M66+r/m8P5+RXzUNJoFq1TJVKKTebgdHpjJ2XM8df0O9vnptql7hdjEAAABZQ9iaRjZ882HVjJzU/nPHXa2j63SfpCotWRX3QOA+1fil/tMdbpQ1fQU/UG9IKgrcp5q4hxqXVkmhoD7yctaSJL2mLT198tU+rp0+t2sBAADIDuZsuW1tvbY0lY3fvNrzrg7tG4nZYERD/T49tGel6osid104qb0/iR+6ekx15VJvj/m8l8ZNe9SsI9pxepna1lRF7g2p5+BzmjwdJ6DWbRtVNz5lJ3YbY/6Ujm7VK53xRzCeVxM8oOfbT6l/TZUqljZJnRPBqqYhoCL16b3Y5656KqYeKa05WYF1enZDg4Yn1WXUWhw/3yj+eOePaMd+p8Jf/LmU+k3PnZVdGa+xaNKdQ5H/BvVRMKS6hoDuCUi94y+3SUsqpXD3B+pNUpP9OVmRfQxPPneNm/aoubhbh3YfnjhefN2huMdjDf5vnRjZrOU1j0m/ec1kg1o9/uO/1vJ5IZ3Yv0uvnrFRMgAAgAsIWy4q27xS6+p86o9ZAKNsc70euv+k3no/upVP9U+sVH/Hm9r7uiKLZtTr0bVxi2aUfV01uq4TI0qsskVtxd06tP1l9UYvmFvX6aPxi9+JgLIjevG96im1bdgpxYSy4tKApPiL8yoV+6XhS0FJQZ0536KKymVqVEckOEVbCN+ZCFKBdXp26Snt45/00wAAIABJREFU2P5y9A61btuo5m3r1J/ogjwDE4tKbB2vqXXbRrVtkgOBK7Kwx/kj2rE7su9VT6ltzR49W2oz3EQCYv/RrXq+M/a1TGzS2x1UuKHBaCUMRt87o4WwJ6aFsHHTOql9q3YEY/e9UU9eSjMEpqy7RD0Ht45/dho37dH6bUoQuI6r69PHtfyrX1OjRKspAADIe7QRuuX+av15nU9Xe96dFJoG98UGLUNsGNP75/TBBaliSdmkbRp9pdLI/1NXsrA1aVTBGA2Rv2R8pb+a1m+rItSt9tgg0HlEPaHofKA+DcesUVHTulNt29YZrWuBchUrpOELxmNTWgnNWgiDh/X8pJAztabsaVJzg1/9R2NHzYJqP96XYH5ZZmpav60K9elY7OvrfFnHzpu3+yUWUOuKKun8keRhyKSV0KyFsGt/3Ehm5yn1Kxqgs8moO9x9eNLxuo51K+w3RuDMdI1cknx/okbTVsKzevU/bdPTP2RUCwAA5AdGttxSMU/zNaKTv06WjsxdGhqRanwqkxRtJqwtKsy8pAV+yd+g9bsapj64oEpShwaHpboFRhvePQG/FLlwNgLckAajF9adk1sJTVsIFWk9q4w/2FD8HZkLlKtYUtGaPWpbE/9gSGVmg3UZqFgQN4oX0XW6T81rjDBpbeTOGDHsP55q5C2+ldCshVAJ2hGlsKVa7DDqLmrYqDaTj1PxImX1fAMAAHgRYSsPlZZM/dr/bPi6plxBpyPZnBpJ/Z+FpEC5aiQVq1vHugN6oCEgXSqJO3yH0UpYXK4asxZCRYPW5Hlj8e1x2Zb2nKk8EG0lLF4kadHUFsLxoDVpnlqkddShmtL7ja5LumD/OwgAAADPoY3QLf3XdFU+ldjul/Op7E5JV0YUu0RG8vYriyV9lrqFr/dSZNRp1TIVBz9QV3dQCtynxtISKTQ06XeZuk73GSNfq8xWIQyorFjS+Xfk5O/ljgsOaFhOtMuZ6/8sZNqeaLT2Ddn+/ar4uisW+KduFGklrFjaZL4K4aISFSmknmO5WA3SaDktWlCVetMYRjvsFZ11qCoAAIBcImy5JTr3qmmlHrp/4m5jgYzETyvbXK/6ohGdPBa3GuHgb9WrQi0rS/93inrb31G/qtQcnYdl5sKQwv6AWleUGL/dFPxAvWrQAwFJwwOTR8Q6T6lfftWtaVCR+nRm0ohSUIPDkorLx49ljGqZhIhUpgSpyOIUkzbq0LHukIoaNurJ+CXpTRg/FJz4x5lTMX77qkrNsc9f9ZSaK6X+43YW/zB+t6yooWU8uJm3Xkrjc94qW9RcKYWDcS2EF4YUlt8Y+ZJkfp6smPreTa0pOh+uxcYPKq9Q41cLpfDFBItj1OrxH+/WSy/u1o+abRcNAACQc7QRuujjn7ypS5tXat0Tq1X/hHHf1Z53dSi6QMb7I7r2hFTRtFpbxq/ZB/Xm5pP6eMreXlPPwMP6fu33tOHccR1Mq6IOvbJdenJXS9y8rZhWv+CAhtWgCnVHRk2ic4X8Cgf7puzPWJVQpj9k3LX/iJbEHivUrUNHS7Q+dk7VlDlGfjXv2qNmxbaodeiVo8vUtiY6PyiknoMHNNy6cVJo7G1/Toe0U+vj522ZLP9ujOD5pcpvqzXQYX/0LXhYz28f0JO7WtS2qyVyZ2jSynySSUgZn+M0sQR+1/4DKtu2cdLr3nG6xWTu2UQrYZHZDxkHD6u9OzDp9fcfPaCeFZPPk7WaJr934e4DOvTZOq2PzVWdL2uHnop5X6KnIUGratn3tNx3XSd6zJZ9l6Sz+nRY0jyp+u6HpGNvJdgOAADAGwqW3r187K7KRbr46aBGR0fdrmfcgoULdfXKFd24ccPtUsZ5sabJHtPe5odVfnafHnP5h43zX/T3qNL43S+kweJnd8kP9JNNf6p5fUf19F7CFgAA8DbaCKeV17Slp0++2s16rTr9dkJIWtWiOr8U7j5C0HLcCu1c8bBqRk5qf4ovCb778J9qnkI68QZBCwAAeB9thNPN4A79RU+b/rkuk3bCmWxiHtN0XrnQU8q+p+U6qReOv5Aw2C7+99v19HK/pPP65Q/36f/ksj4AAIA00UZogxdrAgAAAOBNtBECAAAAgAMIWwAAAADgAMIWAAAAADiAsIW0NTY97Il9pNpfto+Ra8nqz/fXFs/tz1Quz6fd9zX+vly/94mOZ6cO/t4BADMNqxHOEJlcgHR1vJHw/samhxM+HnvsVNvEbptOLV6SzrnO9HUlOsdOvO+ZsvN5cEuy85buec71azY7z3Zfl9Omw987AADJELZmiGQXLXYvfpN9wx4NYFaPbSbR9laDg5Vvu528iMvmuY59XrL9Jwq+yc6lWxeyVkN6OqL7TWf/8c+xE6rMQk02AnSiOqyw85lI9bfl5Ocl3//eAQBIhrDlJYW1unfF1zRw/G2dv55oo3J9o+lbUs8b+vhSLoubYOXCxa1vyRNdSObrxVZ87V4bmXCC2Wu08tpiz5XdwGV3FMjuvqw8Fi+6XWwdib7ocPK9jx4jWYBxI9xMx793AMD0Q9jykIW1i1U4+OskQUsqrF6shSOf6MM0g5adeRd2Rmi4wEktk1GtZBe2+fgtvp2LZCuhJ9EIjt021/jAZreWbPxdJBphS2ff2WotTRREsxlSAQCYjghbnlGu8jLpcs9Akm2KtLC8SNcHBpQkj6VkpeXJylyKTFq2si1VAEnVhudFVkKAF859JlLVb+VxKfW8wlTbJNu3VZkEvmTHzub7m8+flVjT8e8dADA9EbY8wtKIVeliVfsG9PG5cM7qipfooib+gjbdVrBsyvaCEZmIbwWzOtoS/a/ZRXu2wq4XApud0aXoNrGPW2mvTBW6rBw3Wf3J6rB6juPf08amhy21EcbXnIuw4YXPTSwv/b0DABBF2PIEayNWC79aLg3+WpczPJqVCeWJWF0IIFHrU7r1pdrebGEOr1xoxddnJSClO/coHVaOkcm5TBVu0nl9VhcCsbqN3c9OquPbmWtnZ79WWZnvZeX4Vo+Radi3u72X/94BAIhF2PKC0sWq9oV1biDJiFVhrapTthlak402QifZaetKdqHnhW+6k4VRqxepyUa17O7LzjHiH3eK26MjZhfv2V54werzzMKRWbBIZ99WvyhJVZfZfp04N/n49w4AQDzClgdER6ySLoxR/jUVjnzi2gqEsbw0P8Kp0ZhssDJ6ZXcBByflYhTNaqCxel7syvSLBqc/68lGi9wME175MsbLf+8AAJghbLnN0ohVuaprinS9N7OFMaIyaSOU8meBBjcvTjMZtUq1n2wuxJBrVuZY2d1XLLvnIFkLrN19e+lLiHjJ5pLFS6dWt19fohoIYAAAtxG2XGZpxKr0j7VQ2VkYI1VLmlXZ2IfT0rnQSrWIgtV9ZONcWA1aUdlqJ3RLpq2R2fwMZjqPzIm/h2zPm/Pi32wmCFYAAC8ibLkqtwtjRMWvdpZp0Irfp1e48U13NhZ7SHZ/qn176fznUqLznu5n0qnPcyZ/a5l8nhN9OeK1v9lMMLIFAPAiwpabrCzlXlir6rKwzh3PfGGMWKkm3Sfi9MhK9BhuSfe8xD4/W2LPZaqRxHy/aM4kwDv1mcz25zgbX2qkW0emi6s4+TdJIAIATGeELRdZGbEy2gwv6nI2JmtFxLfK2ZlbkmwCf7bYWZ0s2Tap5qnkU2tV/EVxqtv5JJOwFH0vU302Mjk36YaRdOd+JXp+uqEkVSi38tlJVUsmI2Vu/r0DAOA0wpZbcrwwRrJAFX8xFi9RO5sToyt2LvjS3cbJ52dLvgYnq+yE9mQX8bkYmbEaRrK1KEp0Gyv3pXpd8V+opAq1ZttYqSXbQSvVY3a2AQDATQVL714+dlflIl38dFCjo6Nu1zNuwcKFunrlim7cuOF2KeOyWVNh9YO6t/yiPnzvbOIgVfotNdZJH3dkb74WAAAAgNxgZMsl18+9ra5zKTa69Gt1deSkHAAAAABZNsvtAgAAAABgOiJsAQAAAIADCFsAAAAA4ADCFgAAAAA4gLAFAAAAAA4gbAEAAACAAwhbAAAAAOAAwhYAAAAAOIAfNfa0gFq3bVSdP3o7pJ6Dz6k9mPqZjZv2qLm4W4d2H1avR2qCk5r05K4WVYzf7tOx7S+ry8WKAAAAZjrClqcF1b57q9oladVTaltTksY+IuFICYJXZL/WA1M2asJ4ODp/RDv2d0x5tKZ1p9Y3DNkITB16ZXtHzHOzWiwAAADSQBvhtBfUR8GQ5A/onsDURxuXVkmhoD5iZCrHOnTmvKTKZWqc8lhA9wT80vlTjEwBAADkMcLWDNDbHVRYftU0xKetJi2plMLBD7Lcaggruk73SarSklVxDwTuU41f6j89dcQLAAAA+YM2QlfFz7PJYP7TqqfUtqZq8n2hyH+DH6g31KC6wH2qUXAiWK1apgqF1NMde8D4mqT+o1v1SqedYiKti8OTW+RM55EF1unZDQ0qGq/ZiXlm1jVu2qNmHdGO08tizqfZ+5Js7ppxDmV63ozn1QQP6Pn2U+pfU6WKpU1S58R5qmkIqEh9ei/2uVPe3zTmZEXO9fCkuoxai7sP6PnYFxh/vATtjmrerJf+vFLqO6qn975lpxoAAIBpj7DllsiFr7oPaEfkIremdafWb9ijYpvhJjpHp+fg1vFAYASb6BZGK2Fdg9FK2BvdZmmVFOqOaSEMqHXbMp3ZvlWvxO57zU61XnBgEYzx+WKT616/Ta4GLlW2qK24W4e2v6zeaKhqXaePxmuaCCjR906rnlLbhp1STCgrLg1Iij9pVSr2S8OXgpKCOnO+RRWVy9SojkhwirYQvjMRpALr9OzSU9qx/eXoHWrdtlHN29ap34HzNDFfbOt4Ta3bNqptk8wDFwAAAEzRRuiSxuYGFYW61R6TYHrbD6snJGOkw7ImNTf4Fe4+nDQMTW0lNGshDKp99+TRkujzihfZKMmSgFpXVE2pu+tYt8IJ5pcltPBuHVn1kPm/+6r0qN3SJo2uRee8lYyP9tW0flsVce+dOo+oJxQ9v30aDk08VNO6U23b1qlGkgLlKlZIwxcirze+ldCshTB4WM9PCjlTa8oe4/PUfzT2cxBU+/E+8/llx/bp6R9uY1QLAADABCNbrgiorNhsrlRkBCpQrhrJ2ohF5OK9tzvFsFN8K6FpC6HM2xElDVupxRZjhKeoYaPaTFbOK16kqYNCiVz+F7XYanPMTMUCv+Rv0PpdJoUvqJLUocFhqW6BcR7vCfjHFygx3tMhDUZfW+fkVkLTFkJFRior4w82lM2XZQiUq1hS0Zo9alsT/2BIZWaDdQAAADBF2Joxoq2ExmhIxZQWQo0HrXDs/J1ou6NDwvFzhfJFirll/Z+FpEhoLla3jnUH9EBDQLpUMjE/TZKxKmGLKorLVWPWQqho0Jo8b8zp5d3tz9MDAABAPMKWK4LGyEf8ghXRi+3hAZvzcPxxI0HGyFm83u6gwg0NWrKqSaqUwt2TR9ZqSksk9em9nIQfo9WuYkGVMh4qWXi3jtxdav7Y9V79tw/69PPMjjBJ/2chqdIIrYnep95LQ1JA0qplKg4eUVe39EDrfWpUiRQKqj9m267TfWpeE9A9q2S0EB6PbRmMvJfn38nND0cHBzSsRPPNAAAAYAdztlzSdbpP8jeotXViclJN6zrV+UPqOWZjEYLgB+oNSRUrInOCpqySZ7LtmhZVmLQe9l4aklRitIpJU1cKtF6UBoclFZdHajJrg4vOA2rRs612JmiZuPwvaul8y/xfloOWJPW2v6N+Vak5Og/LzIUhhf0Bta4oMc5z8AP1qkEPBDQ1THeeUr/8qlvToCL16cykEaWp59IY1TJ7g1OYFKQks5UnpQ4d6w6pqGGjnoxfkt5M82a99OJuvfTjH2ix/YoAAACmNUa23NL5snZcWKdnN8TOWYpfznvqxXDdhj2qk2KW4g6qffcRFe9qGZ9D1H90qw6V7tT6KRkm2kroN/8h486XdWzpHjVHj6GQeg4eUfGGlpiNrNQkde0/oiUxNYW7D+jQZ+sm19T5snboKbWtiZu35fLy76l16JXt0pMxr88Q0+oXHNCwGlShaKvmxLkPB/um7M9YlVCmP2Qcfy4V6tahoyVaHzunakow9qt51x41K7ZVs0OvHF0Wc75D6jl4QMOtGyeFxt7253RIO7U+ft6W2fLv/UO6pkrNm1erFUukT85YOoEAAAAzQsHSu5eP3VW5SBc/HdTo6Kjb9YxbsHChrl65ohs3brhdyjgv1gS47btbduuRqpBO7N+lVwlbAAAA42gjBJC+JT/Qd6ok9R0naAEAAMShjRBAGh7Sj15co2pJ1078VE//01m3CwIAAPAcwhaANLylv/8hP2QMAACQDG2EAAAAAOAAwhYAAAAAOICwBQAAAAAOYM6WDZ9dvux2CQAAAADyBCNbAAAAAOAAwhYAAAAAOICwBQAAAAAOYM6WXY//Xqce+VdJ0tlfLtcjr7pcDwAAAABPYmTLrlf/SMtal2vZL/9YtY+c1aHvuF0QAAAAAC8ibKXr1YV6LzSsr6/40u1KAAAAAHgQYQsAAAAAHEDYAgAAAAAHELYAAAAAwAGErbTdpl+dKda85ZfV5nYpAAAAADyHsJWBQ8/XatlLX9Ga9hM6dXBI690uCAAAAIBn8DtbGWjbc0JrF9To71qX65DbxQAAAADwFEa20valFi2Qrp3xE7QAAAAATMHIloNqWndqfYNfOn9EO/Z3uF0OAAAAgBxiZMtBvZeGjP9R+W21BtytBQAAAEBuEbac1HlEPSFJGtJg0O1iAAAAAOQSYStd3wnp637p0qe3Jd5mVYvq/FK4+4i6clcZAAAAAA9gzpZdj/9epx75V0nStRP1euRVs42a9OSuFlVI6j+6Va905rJAAAAAAF5QsPTu5WN3VS7SxU8HNTo66nY94xYsXKirV67oxo0bbpcCAAAAALbRRggAAAAADiBsAQAAAIADCFsAAAAA4ADCFgAAAAA4gLAFAAAAAA4gbAEAAACAAwhbAAAAAOCAGfOjxjfWfqhQlSSdk/+Fv5w5LxwAAACAK2bMyNac1+9V8Qv3yt9XrdBf/1fdcrsgAAAAANPajAlbUXPe/lC3zV+qG+VuVwIAAABgOptxYQsAAAAAcoGpSwAATEOzx8Z0+9gtzR6TCjSW1X2PqUA3C6TPC2bpZkFBVvcNANMJYQsAgGlm7tiYfLduqmBMGnMkC41pzi1pbsFNjcyarVECFwCYmnlthAPvau5Vv0Ye/Fu3KwEAIOtmR4KWJN0qkMbkzL9bkXzlu3VTs8eyO3IGANPFzAtb+kfN/em9mj/0Zxp+5kOF/+w/uF0QAABZc/vYLWNEKwfHGpNUMGYcEwAw1QxsI/xbff7Mv9WN7v+i4hf+0e1iAADIqtmOtQ6aGyswjgkAmGrmha3yr+mGQpr7MUELADD9WF4MI9lmNsNathfgAIDpYuaFLQAAZroxSbMKpLlzpdvmGv9bkr68IY2OSjduGLdZ9wIAMkLYAgBgpogOQN1+u1TkkwpmSWO3pFu3pIICae5XJJ9P+uJzKRyWbo0RuAAgA4QtAABmEp9PKiyUbnwpjYSM/0ZXE5w92whidxRKc+ZIV69KN28RuAAgTTNuNcJb31iqL3VZswbcrgQAgBwakxGkCgulz/8gXblitAzeGptYz/3GTSk8YoSs2XMkv98IWkzJAoC0zJiRrRtrP1SoSpJC8v3jX86cFw4AQHSOls9njGSFwsb9iUasRkelcEgq8ktf+Yr0+Re5qhQAppUZkznmvH6vit0uAgAAt8ydK82aJYWuGbdTtQZ+/rl0xx3S7XdIXxC2ACAdM66NEACAGem2ucZiGNGVBpOJtg6Ojhpztwpm0UoIAGkgbAEAMBPMKjBWHRyzkZpu3jSCVwErZABAOghbAADMBGOyH5oKopcJDGsBQDo8G7Y+u3xZN6y0OgAAgNRu3JBmzTaWd7dq7m3G0u+3bjlXFwBMY54NWwAAIItGI4tc3H576m3HZMzVuu02Y3GMMfFbWwCQBsIWAADTXYGM39D6/A/GDxZ/Ze7Eb2vFiy4T7y8ynjh3rjSbBTIAIB2ELQAAZoqREaOdcN58Y1n36KqDsf9umyPNn2/8qPH160bQmn8ngQsA0uD5sLXhmz/Ta9Ur3C4DAID8ViDp1ph09ar05ahUVCQVlxj/veMOyVco3TlfurNYmnOb9IfrRji7di0SuOYTuADAJs+HrYO9J6XazQQuAAAyVSBjsYsrV40fN751U7r9K5LPJxUWGj96/IfrxujXHXcYC2SMfmkEtNlzjBZEAIBlng9bGnlBj/X0yVf7uHb63C4GAIA8F13o4vMvjNA1NCQND0mfDUnDw1J4RLp21Qhl8+cbgevLL43bdlYyBADkQdiSpMEd+sVAoZbXPaNGt2sBACDfFcT8uzU2sbx7dNXBm7eM0aybN435WiULjFGvzz93tWwAyDf5EbZktBOO+Or178oSbfGQfvTibr304mZ9N5eFAQCQzwri/kXvuxlpN/zDdenGl8Zo1xdfsAQ8ANiQN2FLI+/q1IhU7mPuFgAAjovO7wqPSFevSV+MErQAwKY5bhdg3XFdCG/W8q+uVOO54+qa8vhb+vsfvuVCXQAAeMfY+HruWWAxXI2RwgDAVP6MbAEAgJRuFkgFOVyevWDMOCYAYKr8C1vhiyajWgAAQJI+L5ilWwW56fgrkDRWYBwTADBVHv2/4wotKpJGwr9zuxAAADzrZkGBrs8ylmifNTZ1/Yts/ZsVGT0bmTVbNwsY2gIAM/kzZ8u3Ust80sDI8QQbPKQfvbhG1QrpxP5devVMTqsDAMAzRgsKdHPWbN0+dkuzx6SCbM3hihhTgW7OMka0CFoAkFjehK0NNfXyjZzU/xhMtMV5fXZNqp7n1+LltdKZs7ksDwAAT7lZUKCRAn6EGADclB9thGVt+n75dZ3oeSHJfK2zevXt8zksCgAAAAAS837Y8j2j1+qqNHL2VT03kmzDWj3+YKWk8/rVPzGqBQAAAMBdnm8j3FBTL53dp8fOJZqrJX13y249UiXp2v/VSz/87/okd+UBAAAAgKmCpXcvH7urcpEufjqo0dFRt+sBAAAAgGnB+22EAAAAAJCHCFsAAAAA4ADCFgAAAAA4gLCVpsamh119fj5J9VpjH59O5yXRa/HCa3S6BjvvuZ3nWX2Onf0k29ZuPY1ND6f8l0k96cj0/AAAgPR5fjVCL4m/QGlselhdHW84fszYY1i5SEpUk50LrEz24fQ5iZeN12VnP6n2YfZ4Lj4rVkRfY1fHG5P+t5XnJOOF15au6LlI531NtL9k+7Er1XPy+dwDADDdEbZMJLq4sXNRY7aPdC6KzC4E48OXnTAWX4PZRWSyfXj1wi7T12W2j3hWLrjN3i8vBC2zYBX936lCl5Vza7eWbJ8PK6M3qT4Psbfjt7USyJyU6Rco6ZwfAACQubwLW4XVD+re8ov68L2zup5wo1rdu+JrGjj+ts4n3CixRCMTme5jushmGMuXsJfJyIaVz5MTrys+PCRrY4sd6UpWT7LzYOUcRY+R7PXbOTeZjCQ69VnyUoue10daAQCY7vIsbJWruqZIl3uSBC1JC2sXq3Dw12kFLaclm59kdWQh0X5yefFkpaZ0g5cbF4KJjh1/bpPVmGr0INejXlZCn53Hs1V7ovOWzmhkLrnVRggAAPJXfoWt0j/WQg3o40vJNipXeZl0uWcg7cPYmbxv92Iz/qI91THt7icVL02Wz+Zxs/W6krVtpjrXiQKZF0YRMp13ZfYa3H5tydoA42/bacOLH+XLVktwrmXj/AAAgMzkUdgqUmVtua73vq3LSbYqrF6shSOf6MOkgSy5TNtustUG58TFUDbmNlndxo5ML9qz9bqi+0p3FMeLoSS2jkSSnZtErX+xj2f62rJ1ftJpAU53JDMRL49eZaNFGgAAWJc/YauwXOW+sAYGwkk2KtLC8iJdHxhI2mbotHRHnZLtJ1aq207LxkVx7EWs2T7dnrxvtwVPSv5+e2GkK93PSaogm43Pn92/mfjPTzZryYRX5oF59fwAADDT5E3YWli7WIUjn+hyshRVuljVvrDOJQ1k+c/NOSGZtqNF9+HW4gVWpTOylWr7bK/qZ0c6i0xkY9+JjpdsX6nqSRVq7RwvGzLZf6bzwBK1z3rp/AAAMJPlSdiKzsNKsTDGV8ulDBbGSHXRkc32wGy0XaVTQzbmNiULFdkIY+nI5ly0dFsBvTwnJluf3WzIdBGMbH/ZkGnYcDLIpoMFOgAA8I68CFuF1YtTL4xRWKvqDBfGyOZFU+z2Tl1wpdPKlc25TV6SzbloVloBk9WQKoC60UqY6ahaLoNktkfZrATNRJ+XdEbt3A7WyTCyBQBAbuVB2IrMw+rtTr4wRvnXVDjySYqVCt2RrYtrr1wU5WIeiFsrwKUKyNlokbQq0Xy2dPdj5X4r7WdeDhTpzm1KdNupmryygiMAAHCW98NWHi2MEZVs9bZ0L+bMJry7deFkpY0w04tJty/mMwnIqUY1c71QRqLRDC+NSDlZg51VFDOdM2a1JrcwsgUAQG55PmxZ+oHi0sWq9g3o43PeWBjD7IIt2/NCplt7U7qcfF3p7Dd+BclMW+Iy/dwke36ix9KZ+5dJS6Jb0m0XTcTJEO2VcwYAAOzxeNiy9gPF0YUxkrUZpivdCycr35hbvTizsxR2Juwsu53sdjZryoZ0X1cmx5NS/15Xqvc+G+cvG/u20waXzkqTZp8nO6HFymhvovBr9Ripgq+d9zUddlYjTLaN3fMDAAAyU7D07uVjd1Uu0sVPBzU6Oup2PZMUVj+oe2tG9HFHkiBVWKt7VyzW9Z43HJuv5WSQsXvRm057Uy6OkejxdPZn5yI7W6/LrmQLcNhtG8x1KE3nwjrX59qJz4DVfWSyGE78/ak4/XnwyhceAACwoWSiAAAKBklEQVTMVB4OW0WqfOBBlQ+8rQ+TtAcWVj+oe8sv6sP3ki8LDwAAAAC55OGwBQAAAAD5a5bbBQAAAADAdETYAgAAAAAHELYAAAAAwAGELQAAAABwAGELAAAAABxA2AIAAAAABxC2AAAAAMABhC0AAAAAcMActwvIXJOe3NWiivHbfTq2/WV1WXxecfcBPd8ezG5Jq55S25qqidvnj2jH/o7sHiOPlG1eqXV1vok7LpzU3p8MTt5obb22NJVN3A4HdXjrOcVtldc2fPNn+r7e0F/85rWYe1do54rNKjn7V9oynV4sAAAApkPY6tAr240gU9O6U+sb0thFJBz1H92qVzrjHwyoddtG1Q3bCEydL2tHZ8xz0yhp2lhbr3V10sl/eFNvvZ9gm/urtb6pTP0db+rnrztfz5Ymn07+w7vm9cSHvqgMw19j9X59v7xPvzj2Wtwjx/Xc2e/pn+t+pr09BC4AAIDpZBqErSzoPKX+NVWqWNokdcYFqsB9qvFL/cdn7shUJr6xpEy6cDJx0JJU9q0/0vxwUP/L6aBl2UjiMJaOsjY9UyudOL5DB80eH9yhF87u1zN1bdpwLME2AAAAyDvM2ZIkdejMeUmVy9QY90hNQ0BF6tOZKSNeSM2nsjtTb1Va4ku9Ud56THvrqjRy9lU9N5J4q65zr+rESJW+/83HclcaAAAAHOX9ka34+U+hbh3afVi9aeyqcdMeNVdOvi8c+W/X6T41V1ZpySqpazxYBXRPwC+df2fSHDCjXdGfWU2rnlLbmhL1HHxO41PGAuv07IYGDce1M8bXbd7umFvf+JvVWr1o4razLYA+PbRnpeqLorcTjDzdX631TwQ0P3o7Zm5YfL31T6xW/RORG3ZbBNfWa0uT9Obm32vpvvrx+YJXe97VoX1xiars66pRn35x7niKnUbbCRu1s/c182DWvFkv/Xml1HdUT+99y2q1AAAAcImnw1Z0DlbPwa2RQGLMgVq/q8TiIhhR0blT3Tq0PRqKIgtkRDcxayU0ayFc9ZRadVg7tkcTkrGf9ZsGHFgEI2a+2PZoTev07IY9elJuBa5I8LlyUns3R+LJ/dVa/8RqPSojcE1ZEKOoXlv2RW9EglJF/NyogNbtC4zfmghvZXp0X73m9byrvdEgs7ZeW55YKSkmcEXmWl2N2+7RtYP6+evSxz95Ux+Pb5dkzpZlZVq9z6eT//Cmfv5+9DXX66H7J+93Q3mVNHJSZ63scvC36tXDKvFJSjIKBgAAgPzg4bDVpOYGv8LdByZGfhRUe3u3ajY0xI1ApbCqRXX+kHoOJht96tCZ8y2qqFymRnWoSxMthO/FHqfzZT1v9rzictVIaY24Ja+7T8d2x4S44GG9d75BzWbzyxIq1H++7379aaH5o+f/5S09ednirtYGVF80qDe3xowDvX9OHzQHtHpJmaRBDe57V3slTQpm8asPvn9SeyMjYd/4m9Vafaf56FLZ5oAqwkEdjh0xej2ok/ev1F3f8knvj0gq06NNxtywSSNLr5/Uzy2+rMl8k0e+ZDZqNXl0bfDXv9fVuoBKKiSNh60VWlQkjXz6rsUvBn6noRFpeflj0mD8QhqSju3T08fSeDkAAABwhXfDVqBcxQqptztuWfbgB+oNNaimNCDJ2pLtNaUlUiioj1JsPrmV0LyFcHy0yR/35JClUmypKS2R5Ffzrj1qjn8wZCfcXdd//CA7bWdlpT5JPq3et1qr4x8M+2TErewpLfFJRZNHvcZFh4Du92mepP4z2TpythbIuEvTejoaAAAAkvJu2HJDpJWwuDSQYBXCaNCa/FtejZv2qLnYbIfZYPV3w3JpUG9uPmm05eVC3v7mljFSVW7zWSPh3zlSDQAAAHLLu2ErOKBhNaimISAFY4akIiFo+JLNHyL2l6hCMSNBgXJNzUdGS2Bz4D41yqSFUFUq9kvh7iM5CT+9l4YklajM+iBeAtlrIxy8NCLJp7L7pY+ztTR6EpeGRqRF81SqJCNm74/o2hPSvFKvTXY6rgvhzVr+1ZVqPHfcwmfGGAkbGEm1mAYAAADygYeXfjeWYy9qWKfW8Q6ygFpbG1QU6tYxG4tD9HYHFVaVHojuKLLqX5HJtl2n+yR/g5ob/NL5U3EXyH0aDklFCyZWRzRb4dCSC0MKy6/i6Ap5ZjV1HlFPyK+6DU9NWZLeHqONsKXT/J/l+VqSMV8q7FP9E/X6RkY1WTO4L6h+lWn1nmqZ/NRwdCu93TOi+XUr9ejamLvX1k++LUn913RVPmO+Vw4cHOiTfH+iRiuHK/u6anRdQ4nyYvNmvfTibr304x9ocTaLBAAAgCO8O7IlqWv/VvW37tT6DXtUF73z/JHJq/5NCSkTc5zC3Qf0fHtQCh7W80dL1LZmo9oaJKM174DKtm1UTfxBo6sSSuo/Hb8ARXSBjha17WoZr+dQ97e1PmZK0ZSl4f3R7UMTS70HD6u9O6D1a/aobU20piNaEt1v9Hi7D0jbNk6Zt+Xe8u8jemvru9KelVPmbTmz/Pugfr75pB7dVx83bytugYp972rv2nptaVqtLU2RTS6c1N6fxO3u/XM6VDFPW5pWTqyQ6GSbYmSFweU1j0m/MVn0YtwK7aytkgbeSPx7XP1DuqZKzZtXqxVLpE/OOFEwAAAAsqVg6d3Lx+6qXKSLnw5qdHTU7XqA6aesTf9cV6oTxzclDFKN1fv1TO0l/eLYDh1MsqvvbtmtR6pCOrF/l14lbAEAAHiah9sIgWlicId+MVCo5Sv2a6dZO2FZm56pLVRvT/KgpSU/0HeqJPUdJ2gBAADkAU+3EQLTxcHf/JWkn+n7U9oJjfbB3p6/0paEfYwP6UcvrlG1pGsnfqqn/8nSTyQDAADAZbQRAgAAAIADaCMEAAAAAAcQtgAAAADAAYQtAAAAAHAAYQsAAAAAHEDYAgAAAAAHELYAAAAAwAGELQAAAABwgCNhq23PCZ1qP6FT7b9XmxMHAAAAAACPcyRs7di6XMtal+v13/2r1h4c0nonDgIAAAAAHuZoG+GO/1mja/5hfec7Th4FAAAAALyHOVsAAAAA4ADCFgAAAAA4gLAFAAAAAA5wNmz9yq/fhob1wL8JO3oYAAAAAPAah0e2btP6Dcv1d5cHdKr9hN5/9ktnDwcAAAAAHjHH2d2H9cv20yo9Ua9lrbXOHgoAAAAAPMTZka3vjKpUxfrt8dscPQwAAAAAeA0LZAAAAACAAwhbAAAAAOAAwhYAAAAAOMDRsLV+xbDmqVAXfuXkUQAAAADAexxZjbBtzwmtvUuSivXeS3+kHU4cBAAAAAA8rGDp3cvH7qpcpIufDmp0dNTtegAAAABgWmDOFgAAAAA4gLAFAAAAAA4gbAEAAACAA+bcWVImSfLPK9bNW2MulwMAAAAA0wMjWwAAAADgAMIWAAAAADjg/wPyvCTUuBLwTgAAAABJRU5ErkJggg==;" parent="1" vertex="1">
                    <mxGeometry x="-820" y="20" width="859" height="737" as="geometry"/>
                </mxCell>
                <mxCell id="3" value="" style="shape=image;verticalLabelPosition=bottom;labelBackgroundColor=default;verticalAlign=top;aspect=fixed;imageAspect=0;image=data:image/png,iVBORw0KGgoAAAANSUhEUgAAA2wAAAHlCAYAAACJTH9oAAAgAElEQVR4nOzde3RT550v/G+70gxIMgFjWZSLHcnGQHF8m4BjGmoTY8B9M512gDOBSRNghttZSYeEkutx3jXxmyvN5bRZQ0JmIO3JhPQA0zYnZ4CAg52kIVxiwIGSEFuOzSWRbQyJJZGhXdP3D2lbW1v7ri1p23w/a2UFS89+9qOtfXl+z03fKKmY9ecrV66AiIiIiIiI7OWbmS4AERERERERyWPARkREREREZFMM2IiIiIiIiGyKARsREREREZFNMWAjIiIiIiKyKQZsRERERERENsWAjYiIiIiIyKZSFLBVYGzDsyh5OvbfhDmp2ZN1YmW2f1lJSePGIzi1MZjivYzAA8sq8Osfjk7xfohSKLcRb8xtxArJyytu+BW2eavUt73zc5za0o/lVpbnzs9xavsRnNp+BG/eaWXGREREQ9s1qcjUddftmIBT+Pi+l5H5n+SuwNiG2zHhYjPaXngj04UxZPrDdagb3Y7XNnSiJ9OFGQKW39+BRddPwI7FrhTvaQTGjAJCnV+neD807C0qxbra3NjfQfPXu6H7hXM9tpXkw992B7ZI3triP466qrXYBmBJ5wH57X+Zgw+qj+O+LQBWZGOrifLG+V4/Dt56Dh1v3ohbf5lsZkRERMNLCgK2H+C6PODCLjsEa0a04kJjKy5kuhhkzp2f474bgQ9+8W00pHpfuSPgBtB7gQEbmZe7dhaWlgDHX9mL/QejL1Z6sfzhXGx9LJVNNEvwfFUp0LEJ6+R2E3oGS9oa8UbJnXik5wAeDcnl8S0sXzEVb27/GGvuz8LWp76VVImWV13EqAEfXmSwRkRElMD6IZGTPRhpeaZEaoJ489Zz+OpIHpa/k/q93TwtG05cwokTqd8XDVdOTPc5gbPtsWANAA52pjhYA1bcUA9f6DheVOo9A4CeBvw24MCNJetRrZjIhVvfnIBRN3Zj6/dSUFAiIiICkKIhkcrkhye67noWvjGn8HFjpFfOddez8KEZbScno6R+QjTVZZx7+WFc+FSS5Zz1ojRAuPVVtL/eCkxeicKV0+AQ3siqQcnTNYPpLuy6F+f2i8qUJbyjsB8A1972GKZWiMLRbpnPobfcinKxcFMpJg3+XYilmwoH//qy7X1s3RRp8s5dOwtLfZ/jtQ0hzBZtI04DIHHYFXqwd+1xnAQAODFn4yyUXjqO5yUVxekP16Fuojit8FoszZmmvdi5Q1R602VKzGuwbIMjHEM4/sr78RVcALhzAAWYgB0Krfw//mEFbh19Hr945Qu8N/jqaDz1Ex+u7/bjb397KT5tniQDSRrvmBHAV/3olN0bcHP1d3B36dd48+d+/C/hxdxx2HJbNk6//gc8KTrM0v2Fjv8BK1pS1HOXOw5bbhsPp+gluf3pKVPkM46IvRB3jEbggWXfQVHnH7Diwnj8+hZhrt/XOCr5/GmTU4zdxcCe5gCm1RRD+HjBzoNY1BUWJXTgyZmVKBu8cYRx7NBBPBAGADc21xQDJ/ZjVZ90B5HtCgPS/DSMdiIX0BjCqHYd6L9fRCxBiQfwtz2DFo2iRYZGluJHuUCLUgGjQyNv+qsg8E6qhyITERFdnSwK2KRBD+CofxZj66N/DMSCMd3yalAy5hQ+vu8ZXBHyv20lBkT5CAFULPgCrr1tPcZObsWFT19G+32isinOYRMNhZyzHiX12bLFcd31LHx55+C/7xlElrT4ASY8XYOSBk/8Z9NRbnU92Ll2LwCdc1JchVi6KRLsPL8D0UCoFHMqoxW6Si+WT/kcz689Ht0gUvmr2+hF74ZO9CCEk/4QSksKMaeyRxQM5WLqRODLtvbEwG5ttDSVXixfVoeFkARaespUmysToIlFKqKj2t7H80KFc1Ep1i2bBSA+aGssPgcM+OBXyKnz4tdAngNeIBawRYc1hi4KgUg0gPvqPH7xcyGwi7zmvigOVkZgwmgAl74WBX/x5AK6SK/c1zg3+EWKAsafRwOd3HHYctt38NSFVtxvde9dsQ+/vmU0Pnu7FSsU89ZTpkgwVo7E47SlWgjsInP8eseMx69LgTd/3or/JWw3azQgCn7Ty435NU4cO7Qfq8LAwvxKrPTegCd74wOy7M6DWCAEXTnF2D2zEk8OBm1AttMB9EmDMieyHUB/SG+wFsL+gz0orY0EWMrXgtZ1YPB+kfsd+BDGEdlhjtIivo9ToVJMc1YBUOqN+xbe+WQMbppyBcuB5OeyERERUQKLhkS24kLjvWi77160vXwKYUR6sNrui/5nNFgDJEFeKwY+vQxkjcK1wvuTVyKvYiTCra8OBmsAcOX1Zwz0Zuk0eSXG5QEXdgnBGgC8gXO7zgFZ1yNrsoFyWy6E46+IKntnvsKXcCJbaHJPGGIVCdDgGgV39JWeTe04AyeurxD1vSz6NiYhhM9ahUpiIUpdPdgrzutgJw6dBSZNie8p0yzTpFG4DiH0n1H+VLlrCzEp2I7/K+4d2NGO40FJOfFHTBwLfPVJlmJl8b0LkSBigriYuQ448TVOn4oEYz/+YTRYE/fCyc5Viy44clGpFywS0IU6L8UFdJEgLjwYxP34h4m9e0JQdzEFPVA3jx0BaAzj1FOmm6t9kWBNfJyKs3E9RMcpetyuz4Ool/FrnDMcp7mxuWYOdsv+V4knHdo5xBP3lgE7e79AEA5kR/NZmO9DXtiPbeIesj4/joUdKHQ7AITQL3prYX4lds/Mx0IAcDiQjXDc+5p2HMfza4/jDIBJtXVYt6kO6x6Ov5b0Xwf6VDvdQOhTtOgJ2HAAZ4OAc9wslWGRwNYvHEDWRXzP9LDIP+J7Uy6qXsNERERXszQPibTQxFFw4DLOfdiapn2dwxf7Ja/v/xQX6mswYiIAq4NE3ULokc6BORg/WE86jFHYLqYHH58F6ny5yEWkdX76lFzg7PHBnqxctxOAE3Wb6lAnzSooHdalUaYd7TheOQuly+pQukxuKCTgznZGe+oKkSDbKSr/f8KdlZgkTk8YIYzGGFEhf1w4Guj2R4fnjUZxHhA6Hh9kDQZ14gBKa8GR3NEoGpUY5MUHcZH9AT78+ifijS/FD6O00Hun+rGidDxu/UkFbpUGprrLNAI3e0cAo8bj7p+Mx92Dab7G0ddbE4Y6ho6fF30W4RgbGe7Zi1XN0osudfJcDsDhw8oaH1ZK33Q5AfQiEALKXJFAaYbHATjGYYajCzsBACEEjARsAMQ96pFFSEqxbmOsl0z/daBPgctwlJtCf8TWLcdxU9YYfPCLG1GZhvmnREREQ9HQDdhIl0iwFj/3S1idTuzkvnbMXPZtTK/sRM/ByHDIM03Srp74+WzmhbB/w17sF8pXW4d1tTLzbXQtcf4X6B3AYG+hrJ5LOP3VeBSNHQHgayB3HObkfY2jrwvD/kbALeptixiBB24cDXx1Hu+JCiAsOLJfqadKLsgrHo/yUcBnQhBXnI3r0z2fq+cLrPj5F4Pz2O7+yXjcLe5N01OmaDD62dvqQzaFY/SmeN7bUFlZM+zHy4eEACxRdzAMeBxYCCAbfuzpHIfvuh1AKAvJzuDq2fQ+nl9UinW1hZi9qDPWiJHEUv9SHcEwDBc0eF5zvhvgwFnDAde3sHzFjYgEbkdw6q+mYtoGzoMjIiKSStEPZ6fB2a8QxshI71Za9jUB10l/UHvOZIzFZXx9Ng1lMMWJ3NFIXIlOzsEefCYMs1r0bUwKtuNdUa9XT28okl+ltSU8+dhePL92L/aeBa7z5UIYENbbHz9sU9m3cPYCMGrKgMqP+EaG4znHRBbJ+PGs8cBxv3qwFA2yZOeqiYY2St0cDQpjc9WigV+Khjoa1vMFVvy8FX/79iUgLxs/TsEupMM/AQwGssaOgdVDItV1B8OAIwvSNWfEdoaiDQo5HmQHevFc7xeAx417nE4gPIBua4tk4DrQpyXUCzgno1rXaMoqTHQBoeBnqqmWjwsDA3+hOIdUW2QeHMZesfaHuImIiIaJNAdsrfjPiwDGeAbndEUW8zCR1acv44tuYGz9YxgrmkMWWXREZp95k823gH/6IS4OAGPr14vy+AEm1E8Aug9aP2cuKlJZ+zammw6SQui5hMGV6AChd02uthaZ23adLxdzpuTiS39PfIt+dN5M6bJSTDdbHEXRwPJSaHCfkXl1uajb6IV0hpxUw4kJmnNoOi9+DYwegR9Xfwe3wi+zEuMIFE2LrnpY7MOvbwE+U6p9j4osYAIg0mO1bBxulk0YXS3x0qX4gWsn+vEZRkQW4NDBt/gRND6+EY1ranWl1+PHhaPjgyo9Zeq5hNNfAdffqPR5AaVFWW4eG1mI5T1DAVtkSOQC2f9ic9GssrPLj264MV+YlyYnPICgYxyW+Jxo7w0D4V60w4fvegCEwoo9c4lysTDh3HZiTmUuIGosMXId6Lpf9PwBfjgwLbdKu4jOWZjmBAIhleX/o/PPcOFazj8jIiJKkbQPiQy+0IwLT9dg6tPPAogsw/9x30JMnayxoWxe9+Lj2x7D1JXPQlhEP9z6Kto/laZ7Fecabocvuk9AvKx/ZLXHsaL0E4T8Bpftj6wk+Z93PRuXR7j1VbS9nro5dD2b3sfeh+tQF53rBcgt063u5GPHMXVTaWwOTLAdrzWNwlKZun/Ppnac2VQaXVxEuo8Q9m94H9g4K2Eem/pqj4lkg8az0p8V6MHOtcexUFz2aDkSlvb/ZRY6bj2nurT4exe+xt2l43Gr9zx+8Ypk9YueL7DleDbuLv0Ofl0KROZtnceEZaPh7owP7N5rOY+/KvVF5oJBSOsfDE6k74eOR5e2zxP3ul3C/a+fx5bbpPPF5Ick+nv7AWQBed/F4sImbG+X/YiKFH+qIO446CnT13jyFT+e+olPModNPEwysijLZ0fEeUfnvqmsrGkPvVjVfAKba4ol89hEi5WEw+iHA3nw43A48t7hQBhlXgeCASPzyXqwc4cXyzfV4Trxy0lcB/ruF9vQFqjHDwu+jxWdB7BFpYQrfKVwho7jN2pB9p19kTlor3AoIxERUap8o6Ri1p+vXDG8hiORvdz5OU7dGsYHvyhIy49np1chFj+4GiVZXdj30As65hMRqVmC5+fWw9OxCUuUfjw7txFvlLhx5MAaPKoYhwbx5vaP4T5SikqF30DUa/n9Hbhvyhg8vSKbPXVEREQSQ3cOG5HYL7+NHZ9dxE13d2Cr6eXFbapmAUqygODR3QzWyALbsK6tC86CtdjmlRka6VyPbSX5CHX8UiVY+yO2bvkYBQM+vJhksAYIPw3gx8I7k86KiIho2GHARsNGw4YbI0HbXwW1Ew8JtVj1+EY0zsvHmbc24CmjYyGJlPQ04AdtXXAWfB8rJG+t8JUCar1vQGQoJHzW9Yj98tt4+sgYFNx6BKe2H8GbDNyIiIgGcUgkERERERGRTbGHjYiIiIiIyKYYsBEREREREdkUAzYiIiIiIiKbYsAmUV1bn+kipF0mPrPSPs2UJdm8rsbvnIiIiIiGhrT/cPbVQk8Q0NK0K6nt9eZXXVuvui8tyX6WVFD6TMl+ViEPNen+rERERER09WLAlkLiir00kDAaFMhtrzdwaGnapbl/8d/SfIW/lcpQXVsv+3lSFUAKeSdzTPTkL4e9cURERESUTkMmYHN4Z2OG5zwOf9CBsGKiAsyoGo/AgXfRrZjIHCMByVBgZaCjJyCUvi59X21bpbIpBZZy+9PKi4iIiIjIjoZIwOaB1+dCX5tKsAYgp6AIjp5Ww8Ga3t4mIz1kWvkmWy61csqxKlCxoodJrvdQ+L/Se0Ze09v7Jt5G+Le4N5GIiIiIKNOGRsDmnoAcBHCyVy2RB55coK8tYDh7tSF/yUhmSKSespkNLvQEQXp6tTIV1EiPifT/ZvORe0/pfSIiIiKidBgCAZsLeQUehP3vok8llcNbhJzQaRxWDequLkpBmFbwkalVI40ERUpBFoMrIiIiIhpO7B+wOTzwOIMIBIIqiVzI8bgQDgRUh0ymW7JDIqXbGM1PqzdM2kunJ+BJVTCn1tslVwa1HkCzPW5qvZacC0dEREREmWD7gC2noAiO0Gn0qUVi7iJ4nUF0qgZ16lLRM5PskEitlSKtKJ80TyNz4ZTmjSUT9OnZXmu4opnjpnYc2GtHRERERJli84BNmJemsdjIOA9gYrERMWmgYMXKicm8b+bHoM30JmUiENGzsIiaZBZfsWI7IiIiIqJ0sXXA5vAWaS824iiA1+RiI1LJzoHSCjyMBFt6eomSKatVn1W6uqIV9Aa7Wr2WWp9Ra9EWpeGoDO6IiIiIKF1sHLBF56X5j6ovNuIZD0fotMYKkvolE8go/Q5YMvOqxHlovWYkP61/KwVC4gBNbhhhuoYPpms/yfYGEhEREREl45uZLoCiDC02Ig6srMpLzGjecj80nWywJgyFFA+JFP9fqbdPuk2maR0TK79LIiIiIqJMsG0Pm64fwXYXwesM4GSn+cVGxMSVfqUfX9abj5CHHHEQYXaRDzO0eurUesj0BGnpXGlSOpzRqiCSC4wQERERkZ3YNGDT9yPYwmIjakMm9dJTUdezTL40nVZeereRpjMzp0rPsEorhm3qnTsm3lYuL72Bn1JwrVUevatHEhERERFlyjdKKmb9+cqVK5kuRxyHdzZm+EI42aQSjDkKMKOqCOG2XUnPX0tHr4rZIEigFbiYWR1RaRu9+WkFVlYM3VR6D1AOQI2UR21lUKvnDhIRERERGWXDgM2FvJtmwxN4F4dVhjo6vLMxw3Mehz9QX/KfiIiIiIhoqLJhwEZERERERESAnVeJJCIiIiIiusoxYCMiIiIiIrIpBmxEREREREQ2xYCNiIiIiIjIphiwERERERER2RQDNiIiIiIiIptiwEZEV5V7ps/B7unupNMQWWlhfiV2z8zHQrVEjnzsqKnEk450lYqIiOyAARsREREREZFNXZPpAqjKKcbuYjcQ9uPlQ13YqZjQjc01xcgb/DuMY4cO4oGwyf3mNuKNEuC3+xqwxWQWtiQcT4HmcU2RmrvQOC8/9nf3bjS82JTuUshz5GPHTB/QeRCLusyeQFbxYOsLZchDALvuOgY8MB/1E4Hut/dg+b8byGamD7+7YzL6jWwX3cYV3ffPzBTfCkI5gp/ixQcCqHzyZpS7Qjj6q/fw00OZKlQ61WLV4wswafDvLux76AW0ZLBEw921tz2GqRUjB/8Ot76K9tdb4xPNWY+S+gmxv7ub0fbCG2kq4VWo0ovlywrxVdNe7NyRiQLcjiv/8I+44v+fcL39quW5+xY/guXlWYN/B4++hKe2t1u+n0Gef0bw9hyMeOa/qVQCq/BI1Vpkd9yBdT2pKwoR6WPvgE0XB56cWYy83hNYcLI3+eyc67GtJB/+tjsSg7VoZb7/xH6s6kt+V2nlyMeOYje67VD25hfQ0AwAhVj84GqUZLg49hXEhSCQh6/QBQAXQ8BEZ6YLZamfPjAf9aM/xYsP+LFdLsGhEPrvAFyXQtiOEPIvAXCluZAZ1YTND0UaMyKVugwX5ypw5fWH0fY6APwAE56uwUi5RPufQdt+AKjA2IbbMUEuDQ0bf1r0jwjhMK5LQbAGAP7tj6JhOyA00IxJyV5EAv8dI7oOY2D9/0aWYtB2AI92fB9vlPwKz7cxaCPKNHsPiew7gQXN+7FArRfI4UahI4xjnRYEa1iC56tKgY5Nw+7mtNA9Dq6wH3syHaxRkkK4cDYNuznkx1/ftQe1mexdUxTEF1dF7xoRZdp/3fI2BvI7kfUv/93mFSZjrtnxP+H80ouBRf9DOVFPA57pCMNX0ogV6SsaEckY+vcfR5ZlDe4rbqiHL3QcL3YesChH+8hzcZb6ULe9N5jpImRc18VQpotARFcLzz8jXJ6FkXvVhg4OVa/i2v9zGN/K/2t8rTLMpaXzlzgSyscPb1iSvqIRUQJ73oOkc62sGu6oaglKPIC/7ZmE+SEL8yux0hsLeFzFc7A7VjjsaT6B54R5dDJlvWf6HMx3RueL5RRjdzGwpzmAaaJ5d0GZOVP3TJ+D+aLDIDecUVq2VB2r6jUbMXfMUWx94jX4Ra8Lw7TatjwKYci9dDw+BhK301RzFxrnZcfli8KluH9FOS6+tQGbmyVli01gxBnJ+4aEw+gHkG1yc2uF8NMH9sT+/PdjqJWdgybMdYttlzjHK4QLZ5342ZM3o1xo4Th7DLVPBgZT/DQ6Ry5OUGa44uD8NpU0APA3ZWi6xRPL6qP38NcvhWTKOxlrXpiMNQnpACCA5XfFjsH2l96THzppJ3LnLjB4/kI8P0U6n9PMHDXZ6yI6tEo6F8bO80eTMWc9SuoB/32f4rqnazA2+nLc/LPJK1G4chou77oX5/YLG0aHPcrNUxu27sWUxvr4e9yZXTiw+dm4VNmr9mJKbPIk+vfW4ZN3JFl9719RVSe++cbnk71qL6ZgFw58PF2ULojuV36Ecx1Gyx1C/xkn5mychdLozefLtvexdVN8I07u2llYWiIaOh5sx2sbOhE3aGZRKdbV5sZtd0Zmftx/TZ+KP355GI62xNLofyZGh/6LHolm5qjJ7S+yr37JPUO6v4HEe5FAGBo5859xbZtSD6IwNLIaj/i34VG2mRFlhD0Dtr4TWNAMROanVaIsIYF0kRGgbKYoiDITtOR+Bz6EcUTmZrSz6yB2dkFjDlsv9nSGsdLrwT3oxXOisk5zA90nxMM63ZhfE5lPtqAP0QC1EptDQr7Rzx06gQXN0c/hyMeOmXOwWbTvSEDXiz3NB6P7ixyX3TPFwaF4aXIfVtb4sDL6l5H5bC0fd2HuvHLMrXlNVCksxF8WZgHdu2MPg5q7sBivoeEh4YVIxXH5mkAKKobRB9PF3WiIzvOJVF43YhWSCNqGkmjwhI/eQ200yFm8+masuWM+tk4ULzLiRPkdN6P77T2RoG+mD7+7owxb/yaW5mdP7okb/hiZXybZ39+UoekWF47+as9gQPjTB+ZjzZMAREHb4tU3Y80NzrgFUhavLsPPZh7DTw/FgjDNOWxDUfMpnJm3ACVza7G9PXbO+8oL4UIX9gkXS+FS3D/1FBoeeiGaInI+z31wKc4YbeDQIVa52xCt3EX217gGwyNowwT4ns7GuZfvRdunwuIhCzH2w1Zc+DTTZbOLRZhwfz2yZQK0+DSrkXdxFw40RNMUbETZsr2YgljQNnLhb1BW1o9PGurQL9quahXi855Uj6oxx3Cs4e9xWch70Ub0P7UBlw2V3YnSZbNwpmkvnt+BaNA1CwsXiQKtRaX4f3Acz68VHuS5WLipFEsfDuH5x6IhW6UXy2tzZQO0eLfjT74s4NJ52UBG7zOxes1SYPsGNIiekY3zVmNVbyqeUbGGmgZxo9CKRwCFoO2a051AXQ7+CypDrnr+AD/qke0EwICNKCPsGbBp6sWq5mgTaU4xdhc7k1sVEkC10w2EPkVLEjejnb1fYInXh+/mO/BctLdsYb4PeehNmDsWFyz1+XEs7EaZxw309QI5PpQ5erHnkCjoDHfh970+zBfSOPLxXTfQfeKEKDjsxaoTvdhdPA4zHF3YORj4Snr5zHy45t1oq1qNkqm1QLMQHM2ELws4c0BU2Wt+AU/FbdiET7oXYNIYD3yAtZXQmgUoyerCvidE+29/DR90l2OuuJwm9IcST6aE3kwxoZEgIUgWScGqnD+9JbqC4kuxE3f7S0cjqykWeQDEetDiVpc85Me7t0xGvSSNOid+NtOD4EfxvXc/e/tTzL5jPCpn+rH9EICZPtx+gxPBj96LW5Vy+0vHhk9QpqoJ+45+F8vLp6EaTYPBUaQi9/tYS3j7a3gqrgLVjg/bB1BSno1JsPhaQS3mlmfhzFuPilri27H9QBdK5onLqc266yCx4U2UyMQ9/TLOvfzwYHB25cPPEK6YhhETATBgi8qDywVcbu9WTvK9euS5uvHJU6Kgq2MDus/sxZSp9wLvPAvgXuSVudC/90fRYA0AduDcgXrk1U1HNhB7PXgMxwaDsx3ob/875JVlYyRgMGCT9ILt+BxnanMxyi2KInYcx9a4LXrw8Vlg0mgncoFIL9ukUbgOIXx2Rmtv1+O/rgNGHvr/5N/W+UxsefFRyXancGZePsa4CwFYuxKkb/F3MWngKLaKI7NoOX3lhUC7zP4CffgWZuBPJcA1Mj2JEZ+hPwTc6FkC9GyztMxEpM8QDdisV2DFHC9RULWwqws74cAMjwPBzo9EQRUAhNEfjv87EALgdER+NNXpBODA/Jo5mJ+wj0ianY4suNCL30t7yPoC6EYxsh0ALF2VXqhMxip3vvJCuAaOYntcK2Hi8A8AwICVZYnwubMBZGHu4xsxV/rmgPUB4mBPqxpRkJx6TowbDQQ7A5JAKISDnSGUe51YDCgGSV0XQ4BGmngujHUBrhtuRtMLie+OnQjgEICJo+BCCEePXr1Nsf6j7QiWl2NKDdDSjGhFbgBt2+MbEaTDeSP6pS8kr9CDMQBc8zaicZ70zQHkGqg7WncdiBreKE2eRfex2SgrW42qstWyQyFHurMBuDClcW/i5sFvRwKtgsj/R9btRVVdQiKMLABgeMijFeKHTIqKFLOjHccrZ6F0WR1Kl8kPhQQAeMbjT1CrJOl8JkaHLKsVySqTxmYBWeVY/rjMcrJj82F1gEhE6cOALaojGLZkufDnAr2YL/RwwY1CRy9+r/f3vEJh7AQiQdvg3Dj78G//Pc6UL4hWQiM9BsH2Q6KgSAjW4ufhRMbep6pU/F0qs/LHmPuJgPg5ZiRL0tMbqci140NRfSkSrA3IzP9MXbGSmt9Jw8LlnT/CgZ2Izj+rR1VjvaQXDAC68UnD32s2HcjOa8sYIVjrwd61x3Ey+ur0h+tQFze0O4T9G/Ziv/BebR3W1crMhwuc16wgaT4ThWAtbq5oipfuNzNnHAP4po6BFqHgZyYLRUTJYsAW1RLqxXrnZFQ7kdSwyMjwxkoUuh1YiHFAQu+aHK+6M34AACAASURBVAc8TiAYiOx4ZyiElXDCo9ZLFh5AED5MywEg7mXL8SAPYRxLyW8+R4Y3zp1aC5z1wJfVhQ/iBsXnY0wWEDy6Oy0BlL83sjyIkd4Bbcqt/vYbEhnCF5eAcq8HiyGeA+ZEpdcJXAqp9JxFeufU00hFfxdujAuqExnOfoUgPLEet6tUZI7LNFSjC7mFWThz4LW4xo3cMQC6fy+/GIDV2gO4CFgyDMu+QyLJkHf+HgfeQTRwK0R2AXCuA7gcva+q9pJ1fI7LKMNI9yIAGfklaxlOZLuAL9vaB4M1LScf24uTiAZuvlzkQrw4yWf45pdAqOh/YESbwrBIrWfixGy4MIC2femZI3rmwgCQZ3BItScHf0QfRqgGbNcj2wkEQsNvBW2ioYIBmyA6qXZabhWgtKx/dAXBPGEemXwiHA6EUeatxEqEceyQdo3jnumVkTlrQk9cNOgrm1mMe5R62cK9aA/7UFYsTuPG5mI30HsiZRUdoRK6uDwbLvF8HABAFy4OAJNEQy8Gh3wZHRJ5th9B5GPMxGhWomElF4U0whyCFXehx6peNqGiKbNwjf2GRAI/Ox1A/S2TcfvqALYPLjpSjnJXCEf/XfkJrCdNohB+eiiAplvK8LvVKr1swvy4W27Gz87G5rstXl2GyqPH4ua/dV0MARNF89+Gk+jiI1MWz8SYrC58EHdetKPnIgDR3M7Y6qoGh0QmBGORFvxJEA+7EubVJb/YwZAdEvlpAJcxDSM9FQBaIawQORYWjx4fYiJDIPtxWQjO3tmF7qrVyFv2r7is2MsWG1o5pXeHNb1sg/d4lVUNVYXQHwQmiVbGmP5wHeomQmP8oRO50car+J9ffRXX+FcA5SWqQyNVn4nS55jstamPNBiTu18IPX5GFi76U5EX+PKw+m88qSzKRkTpYcuALaEF11GM3TVAaltdt6EtUI8fFnwfKzoPYItsml6sOuTHjplCeSKvSYcu7uzyY763GHm9foWyOuJXtQz78XKzuOcljAcOHcSTMysT5rHFFisJ44FD+yOLiYjSBDsPYoHeIZhmCEFS+QDatkhbDduxfftR+FYsQOPjC6IF3o2tR7+L5YWxVAnL/mcJ6UUP6vbXsP1oIZYPzrnpwr6HdmOKkK+wvydeAh5cnTCP7aoZ+vXvx1B71off3SGeVxbALvEPXh8Kof8OIO+W+Wi6RSGNkf2hDE23SOaxSZb2/9mTe9AVXa2y6Y5oko/ew19LgrLtL72H/Afmo16ablgMuRSCpHIEj76U0KDQ8mLkfB6cbzJwFFvfysZy8RyzhPkvsTmbsaXBm7D5rWlonLcajeVA5Dp6CRcXr4ZPlJV/+6PYikdE11TUcFnaX9MbOLdrMkrqb0dJxe2ILFLyKs7ddnvc8DTXXc/CJ+72qxDSn4P/vmcQhLAC5chYmqwalDxdA+nCJ7ZTsBFly8owMu5F6fDHHTj3FID7VyfMYxMPgby880c4ht+gTDqPTXUFShUTs5OclRDC/h3tuH5ZKdZtir509jheayvEUtGFkLDsfzTd4CqSIt88+TG+VT4DX99yO1xvvyq/W7VnYsJzDDjz1kuRRUBEyRLmspYL13JsyL9/+2toKxQ967p3o+GtaZI5qU3Y/BAiKzPHzWNTCII9/4yv84GRe9V+FLwKjxTkA4FdXNKfKIO+UVIx689XrlzJdDlsYgmen1sPT8cmLEnqx7MjQ30gt2y+RataEqXaTx+Yj3rE/1bbcHDP9DmYD/Wf/tCThshKC/MrsdLzhfqwaUc+dswch3Y+P9Lmv255G1+W9yHrmeH249m348o//CNCl36HMTuUhnwC1d4Xsb6gF7/d16DQkE1E6aDaC3712YZ1bV1wFqzFNm+VyTwceHJm5Ae09f7GGVHGzfThdw944v6ePRHoPj28gjUiIiO++fYWOL/0YmD9/8afMl0YC/1p0T8idF0nslSCNeQ2Yn2BA/42BmtEmTa8Goys0NOAH7Q14o0StaGRMqI/qu0CzP1wN1EmHfLj1fKb0fRC7Gfq4363jYjoqvQqrv0XAP/wj+pDI4cSzz/j6/xOjV7DyFBIf9sdWJc4WpSI0oxDIomIiIiIiGyKQyKJiIiIiIhsigEbERERERGRTTFgIyIiIiIisinbBWxjc3JwzTVcC4WIiIiIiMh2ARsRERERERFFMGAjIiIiIiKyKQZsRERERERENsWAjYiIiIiIyKYYsBmRU4zdNZV40pHpghARERER0dWAARsREREREZFNMWAjIiIiIiKyqWH+g2cOPDmzEoWBg1gU8mF3sTv6ehjHDh3EA+FYynumz8F8d+zv7hP7sapP/r2ymXOwW/gj7MfLh7qwU0jnjP0NAAvzK7HSG8Ke5hN4DgDgxuaaYuDEfuxxVmKlVxhf2RtL48jHjpnj0H7oI6C4EmWDSU5gwcnehE9Z9HcP4e4bs/DVkX/Bw//WYfJYERERERGR3QzzgC3C5a3EbvRiT/N+PIdoYFWcj4WHurAzGtSVhU5gQXM0GHLkY8fMOdgcDdqeOxnZDjnF2F3sTAj2zMgrnoOVYT9ebo6VYf50N54bDMgcKJtZie4T+7GgT9h3MTbnxAJJIiIiIiIa3q6KgE3cCwYA3cEw4M5CHgDk+FDm6MWeQ6Keq3AXft/rw3yPG+hL7NGyRFxvWRiBEACnAwuBWDlFvXzoC6AbbmQ7HUBffLR4+t8ex93/lppiEhERERFR5lwdAVsoPBgEAcDOroPY2RX590KnE4AD82vmYL50u3B8AGWlYDAU9/dgLx4REREREVHU1RGwaRLNHyMiIiIiIrKJq36VyJ2hEAAnPPxtNSIiIiIispmrPmBDnx/Hwg6UzSzGPVppwwMIwoFCt3x01x0MA47o3DgIK0SmPhIs+ruH8IvnnsAv1s1J+b6IiIiIiCh9OCQSYTxw6GBklUbJPLa4RT8AINyFRSeysLu4Eru9wmuxBU12dn2EGR5RPr0nsOCEB7uLU/sJTgcuAsgC8qdiPvZjT2p3R0REREREafKNkopZf75y5UqmyzFobE4Ovrx0CX/6058yXZQhpAB3/tM/4MZR3Xjznk0M2IiIiIiIhgkOiRwO5s7DjaOAr468xWCNiIiIiGgY4ZDIoWzK3+KxNWUYBaDz/z6IZ/dlukBERERERGQlDokkIiIiIiKyKQ6JJCIiIiIisikGbERERERERDbFgI2IiIiIiMimbLfoyIW+Pu1EREREREREVwH2sMmorq1X/dtsPkbzM7vfVEp3mex4DIyyw2dQO6etPr8znZeV+7aqXHY4B6TsWCYrGPlcVhwDrfNH/J9d2KksQHqfick+l602FM8fIko/2/Ww2ZX0ZtnStEsxndx7Sq8nUwYpvWUym0+y9DxwUrVvUtbStMuS81MPpf0YLYOZyksqP1+yx8/qayMd9xupVJ8/Wvcx4b10ns/S8slJVznUvi+jZTDy3as9d6wqj12YDZr0fN5Mnz9EZG8M2DTIPfi1HkRyFQurbrpmH47iMqSqbFrkjiMfRvZnpgdK6XuVnotavdlq54edzh2l615M/Le07OLjIXd9KrWw6z3OZhgJntPxXch9Jul5JNdzrFW2ZCrKSuXRylvPvo02rJl5NhjJ38yz0Mry6M1L7Xuz8ppQOh7JNKxk8vwhInsbMgGbwzsbMzzncfiDDoQVExVgRtV4BA68i27FRPL03nz13JD1PEiNVEyHAisfnAzkrGXmnNXznlXfk5UVO6t6lqz+XFZUFI32lOtJpxZE6s3bTteqVb2Qeo6tFZ9d7RxhA1eEUsNHS9MuQwGOXFAv5KO0vZ175QGeP0RXkyESsHng9bnQ16YSrAHIKSiCo6fVcLAGaLfe6mmxlntYSCtEenrf1FqJjc7PkPaqaZVRXFal95UqeXork6nsgcw0I/Mj7PCZM1EuO3xuo/T01lj1uazqgZDrUZfuJ9lhnOn+LvX0lum5tyTbYCTtJTZyfx2K538mWd3wISYO4oz2buml1fDL84eI9BgaAZt7AnIQwMletUQeeHKBvraA5bvXO7xIKcAz+pBRGh4lfk/pfa1yKw230lsR1Xq4aFH6TMMpaEt2KJGV5IJ/tXLpyUfrdaPfY7qOhdo+1QIy8XViNn+515SOk5letHTSO9QwHeSOqdZ9TamnRSlfuTz0fHdCPlYcJ735pHq4odH87Xj+WknrPFH63ux6/hCRfQ2BgM2FvAIPwv53obbgv8NbhJzQaRxWDerU6Wlx1dPLNhQCEmnvWzrKp1VRstsxGm6Saak22kshl1Ypv2R7efS8ZqbhQ09govS59PTQpIJSeay+ttJ9nerp1RenU+o5UQvmzDSs6NlGq1JvNav2YVXDU6qub6ONKGr7MNPIpNWwYrSnVimvdJ8/RGRP9g/YHB54nEEEAkGVRC7keFwIBwKqQyaNMtqSrHaDTqbHTa1XS6vVXmnYRSaCSq0KgP6Hrwt5N82G1yl6KXQ6cX6juwLVJZ7Y3z2taPlI0gPrKMCMqiI4lPJxV6C6BDjZdA6e2grkRF8O+9/F4U61czLz1HqG0t2IoPY9q33venu1xXkl05sprehrbWuk0qb3+k+mEqpUHjs2Ghkhvf9p9VwY7dkww+h5q6eXWu6ZI31/qH6HZui5vpPtkU5Fo4beYE2rTHrS8/whujrYPmDLKSiCI3QafWqRmLsIXmcQnapBnT7JtGZptdqbGe4gTZNML4ncNnI9bXJlTQe9+8y5YTa8OI3DTcpzGh3e2ZjhC+Fk065oz2wkyKu+QRS0uStQXeJE54Fdg/Mec26ox4ybIAn+PJheG0l3MizkXY68gPHFbdLFyqE0Zt832oMnDWgyMZzK6sBGLj8jQahS0MWKV2bn9lh5jqoFDNL9qH33djsn0h0AAcn1bOu9rrSuQaN5JMuq84eI7M3mAZswL01jsZFxHsDkYiNi0pubnhYtvT0HRnvUzGynlp/eoVr2v5G74HACCAVVzglhkRrxMNogujsC8JZE5kP2iYbais+bvo7TCFeNR46jQ/R6EJ2ilUfDgfMI+4qQ5QQs7dK1UKqGRQH6e4q0WB2YpaoiYjZfYTu7XFN2KUey5M4/uXu2VuOT2nA7LckEBnqp9RKqBQtyzJ6/evM3kofZ8lghmd53Ib1WA2eqA0u9zJw/RGRftg7YHN4i7cVGHAXwJrnYiNKD3WjrmVJLl1xLsN581Mor/beVD6NUST6oFQKvClTXQn4opMMFBwBHST2qZbZ3OACEnchyAg7fbFT7EveSTDBmRUUnHcw8uOUqLMn2+grbyf3fDsxWcJKtGEmPBStYEWrHwcjwNrnzVuvenUwZjeRl9nxTyssMPSNCzPSwJ3tt6wnEzV4rRhs0UzUSIBPnDxHZm40Dtui8NP9R9cVGPOPhCJ3WWEFSndqNLZkKbSrpeXAqBX5Klex0tLxZUblHbytamjA4/2xGbRGAAE42tcadK31tuzTPi1TMRUu2oiN+P90PXbXvROkcM9PjJjdMMJkhkVb09gnlkGMkEBDnp/ZvpcBAbfiSlT2b6ZSq89mKYERP41m6yqV3v1dzZdxOn93I8Eej+SaD5w/R8GPfgC2Di42IJdsLoTWu3A43TnFZtIbbZCIYVRTuwOGmjsHAzeMG+noBhCPDJR0uF9CrdP6EMBACclxOANYFbHrLbofvHTA3b8NsHtJtzLxnFauHHUvzNnrNp/N+YKd7T7K0RiNoseo4yAXWcmn05KO0PSVKVQ9XuvH8ISIttg3YdP0ItrsIXmcAJ1O8Wp+ZiqjVN85UVSysZObBKTdc1DDndXAgiEBIeCGATn8QM3yzMT2o1MsWG1o5w2u/FR/TWRHRCtKFNHLvSYdHKqXVWw7pfuVYMQxTb9BipmVcrYdVK2jTm79W2fUEiOlkxfks/UxqFVwjx9LIvq2WyoYDs+wWzGv1uBttTLWKHY6THc8fIkoNmwZs+n4EW1hsRG3IpFWMPtwB7Tk+ShUqvT0eZij1/Olp3dMaFqZV4VYbtqm2v3geTBctrx8RvygIAIQ738VhzMYM6Tw28dL+va1oaatAdYlkHpvcvLg0S3dlQK33TI5c+fQ0VsgFEskEFFq9wWaGuyUTXOi5ls32cOkN/JQCaaNlV8vXKCuHcRr9flI9WsDMkGdx2VJxrad6FIfZUSfJlEfYPpnzWet7MtogolRGI+x4/hCR/XyjpGLWn69cuZLpcsSJLcmuEoxFh8GFdcxTMsrskECliqrWQ0AraNPTo5BsBdBoOrMPCTu0aqdbpj+Hlcc8mV40ufNYD6Vz32ylKh20jpPRa8/sPclqmT6Xk6Xn/DXSk2Pk3pjugFdtGyvKaDZoS1V5rJLO+4qdzx8ishcbBmyR38vyBNSHqTm8szHDcz7jPSFERERERESpYsOAjYiIiIiIiADgm5kuABEREREREcljwEZERERERGRTDNiIiIiIiIhsigEbERERERGRTTFgIyIiIiIisikGbERERERERDbFgI2IiIiIiMimGLARERERERHZ1DWZLgABqPRi+bJCfNW0Fzt3KCXKxcJNpRjV9j62bgopJGnEGyXAb/c1YIvlhSzE4gdXoyRL+HsAbVsexfZ2y3cUk9uINwou4ZkDz6AlhbshIiIiIrIr9rANF8712FaSD39bKoI1AGjH9ic2oOGhDWh4qysle0jQ8x84glKsr1qP6vTskYiIiIjIVhiwDQtL8HxVKdCxCet6Ml0WKx3Aowd2we8sxRpvVaYLQ0RERESUdgzYhoEVN9TDFzqOFzsPZLooKbAN69q64Cy4E484M10WIiIiIqL0su8ctu/9K6rq8uJe6t9bh0/eEb+yCBPuX408l/B3EN2v/AjnOuKzyl61F1MmKeRTsBFlywrR+8q/AYtEeZ3ZhQObnzVe7kWlWFebK3qhB3vXHsfJuEROzNk4C6Wu+E2/kmQ1/eE61E2Mf+3LhB0uQYkH8LfJzPMqXIr7V5Tj4lsbsLlZ/EYtVj2+AJO6d6Phxab410SpziRspyU6z+2iOF+ges1GzB1zFFufeA1+SdkGD8GA5H2xnv/AkdBa3OhbAny0TSZBAe78p3/AjaMGcOTFx/HLT4yUmYiIiIjIvuwZsBVsRFldnkyAJnYvpjTWY+Sxl3BAWKnje/+KqmW/AQaDtmhAd3EXDjQ8G8t72V5MgThvF/KWrUb/3joceCeaT109pnzvWZX9y6j0YvmUz/H82uPRFyKBWd1GL3o3dCIyWjGyeMiks8fx/Iae2HbLCkUZRQM6tOO1tfHbjZLuM/c78CGMI3LrkLQfgn+gHCVVS+FrFgVDNdMwCQNo2ycEVYVY/OA0fPLQBmyOvuJb/AiWz3sEi8+mYGGRmrvQOC8bbVs2DOZdvWYjlj8IhaDtAFq+uBM3jhuPaoALkBARERHRVcOeQyInZGMkggieU04ycuFsZAeP4RPxsorv7EJ30AV32aLI39+rR56rG5+Ie8o6NqD7DJA99d64/OKCw3dOoh/ASPciY+U+2Imtj4knkYVw0h8CXKPgjr6Su7YQk9CDvY+pTDZbVIhSVwjHdwjBmrJqpxsIfYoW2YUj27H9QBeQVYi/FMWD1VPzgYF2fNguSvfEC3GBkP9oO4LIwhhJD1/yCrG4Kh/Bo6/FBYIt+44iKCmnWEuoF3BORrXssMgO/PL/fRB338PeNSIiIiIaXuzZw/bOLnRXrUbesr3Ig9xQSGDkWBfgKkNZ497E7cdGhlKOdGcDcGGKXJrgtzESwGWLiy43jBGIRVPubCdwtl0yRDJertsJBD/HyYPa+ytwOdQTNJ/CmXkL4CsvBNrbAdRiSh5w5i1JT1bNXWicl5+w+UXtIhiUjzFZgKt8NRrLE98dMxFAKn8qgIiIiIhoCLFnwIYdOPfUDpxDdP5Z3V5U1QGXj72EY+IeteAxHHtqg0bQ1Y1PGv4e/aktMAAhWAvh+CvvY3802MpdOwtLS1K3z45gGHCppWjCvqPfxfLCmfChHf6aaZiELuwTz02LBmvBoy/hKaHbKzrHLFXi9qVbL84q/AQdEREREdFwZM8hkSL9m+twoKEOn5wBRhZWYmT09csXgoAre/BvOZd7+wFkY2RBGgoKJ3JHAzjbPhisKRrthHhZEkwaheukaUTDKAEAlc7E+WvQGioY4T/aPjjcsHpqPoJHd8cNf/S5swF04YOU/gq2oAsXBwDX2MTePDWRoZ+X0KGdlIiIiIho2LB9wBaxCCPHALj4+WBv2uWd76IfeZhy/0bloC06py1v2b8i26KSVK/ZiMbHN6JxTa3knRB6LiEuGIv0rsVHUic/6QFchZgtTI9LWFUS6Gn9HF8iFzPXRreNLkqSENQBQM8f4IcD03JVfqes/RD8A1nwlS/FlLwB+I/GB2b+aGCbK8wfk67gqFs7ei4CGOOBL/pK9ZqNmJsXn2b7gS4gbwHuX6wwYS1BFarHOYDgeYUFRwpw5z89gV889wTunWu40EREREREtmXLIZEjF/4GZWWScCFhmf1n8UkDMKWxXjKPTby0/w6cewrA/asT5rGpr0CppBC5Y5TfPfnYcUzdVIqlm6KBSLAdrzWNwlJxbLfjOF5zz8LS2jqsq42mWfs5Zm8qjaU52Imtk0ZhXe0srNsERH4a4H3kbpyF6xP2ug1tgXr8sOD7WNF5AFtkSxYJkhrnlcPVvRubpR1pzS9g39SNmLtiIyKjNwfQtmU3xqxYIEqUuOx/iZBe9PMALS/uxpTHF2D545HhlMGjL2HrhaVYLo7Nml9AA+5C4zzJPDalpf1zv48bnWEcaZNb0h8AOvDFRQCjAG/xHGDffoV0RERERERDyzdKKmb9+cqVK5kuByVlCZ6fWw9PxyYsGXY/nq3zs035Wzy2pgyjut7C3c8zYCMiIiKi4WGIDIkkdduwrq0LzoK12OZVGRo55FThkap6+ELH8aJGIDq/vgyjMIAjuxisEREREdHwwYBtuOhpwA/auuAs+D5WZLosVsn9Pm7EcTxz4BnFH8su+ruH8IvnnsCt+d14k7/DRkRERETDDIdEEhERERER2RR72IiIiIiIiGyKARsREREREZFNMWAjIiIiIiKyKQZsEtW19brS6Elnxb5Swcr9JpOX0rZG8kz192Amfys+l1J6K/Iwk5cVZSEiIiIi42z5w9npJq14iv9uadqV8H5L0660l0mPZMtVXVtvKg+5sirlo7QPs/vWUxa18qhtJ2xj5PMREREREVmJARviK+ZKFXG9FXSrKvdq2xgNbrR6R4Sg1GwQYmQ7uX0lEyjKbSd9TauXSen7V3tPLh89+5Qedz2sPj5ERERENHQMmYDN4Z2NGZ7zOPxBB8KKiQowo2o8AgfeRbdiInlGKudapJX+TJMLYMwETEaH+ukNfpV63PTklQzp5xYHk2rvydFzPI2cV3oDxGQaEuReN3qc2ftIRERElFpDJGDzwOtzoa9NJVgDkFNQBEdPq+FgTSCufEorxGaH2snlLfd6qntbrMpPK/gTv270NSO9b1YE2Hp65/S+l07ioFIrjZje7078vtzfasGrHRooiIiIiIaToRGwuScgBwGc7FVL5IEnF+hrC5jahVaQkOwQvlTO21Kid8EJK3pJpIGnWjAk7cUyO8QzlYt7KL2ebIBuRXn0zsczM/xSzIphq0RERESUnCEQsLmQV+BB2P8u+lRSObxFyAmdxmHVoE4/oz1f6SANsrTKZuU8OKVyyOWllrdSMGykPEaCa7nyquWnlq8RVvc+6elVk9u33HejVCa170yuLHL5ExEREZG17B+wOTzwOIMIBIIqiVzI8bgQDgRUh0wq0Voh0Ip5PcmSVtiTWSjE6jl6VgznNNPjNhyDBfExSLaHTE8waya/4XbMiYiIiOzM9gFbTkERHKHT6FOLxNxF8DqD6FQN6pRJgwTxkDIrhpKJ/231aohGAya5f0vzNEJvr48072TnWFkRrGmVW+19vcMSjZZHutCJVXmZpTZ8dTgGzERERER2Y/OATZiXprHYyDgPkMRiI0Bi5VhrnpTZfZiZr6W1EIaePFNZ0TY7r8tsD5LWHC0zAaTVzAyJtKo8SueuVnCdzBBZBm5EREREqWHrgM3hLdJebMRRAG8Si43ISdXcL6P07ksraEt1r4iRcsqlVwos9AyfVNuPUv5G2TEg0Qq8jBwfpfzUekHF7yUzPJeIiIiI1Nk4YIvOS/MfVV9sxDMejtBpjRUk7cOK+V5GyOVj1XBI8XZ6Fx6x6nNZ3RtlJJ2e46l35clkjrk4TyvnqunNIxVzNYmIiIgonn0DtjQsNqLEih6ZZLc3M5dMTz56VwLUUz6zvWBaPX5GFh9JdjVPK4LMdPYsJbMATiqHwTJ4IyIiIkoN2wZsun4E210ErzOAk53mFhtRojUk0sj2ZiqyVlWsrayg6w1ajKQzW8ZUBiFWLWaSyt5FPfsXpCuY5HBIIiIiotSwacCm70ewhcVG1IZMppueHi27zPcxuoy+eBs9tHrztIZSKpVNaTu5f8vtUy+zP+lgdu6dEiMrcerZj9W9YWbOIyIiIiLS5xslFbP+fOXKlUyXI47DOxszfCGcbFIJxhwFmFFVhHDbLkvnrxntQUtmP2Z7l9LZc6aVRu546QnU5PLPdM+UnFQEs8ke82SYPcbJvk9ERERE5tgwYHMh76bZ8ATexWGVoY4O72zM8JzH4Q/Ul/wnIiIiIiIaqmwYsBEREREREREAfDPTBSAiIiIiIiJ5DNiIiIiIiIhsigEbERERERGRTTFgIyIiIiIisikGbERERERERDbFgE3C6h8VJvPUvguj31N1bb3mf5mUqv0byTfTx0BMqSx2KiOlhh2/43RfR1ad/3Y8lmLJlE9u20x9Xq39mi2XdDu7nIdW5U9XL/H5Y5fz2u7n9DWZLoBdSb844Yedpa8pbSv349BS/KFhdWo/pi0w8oPNWvlczYTPr3QchuK5auQ7HYqfb6hKdVG5KAAAIABJREFU9kfW9Xyvmfo+7Xgd6b0OeA2Yp+dZpUVue3G+yeafCdIyJ3Pt8n4+NKXyvFU7J+x2r7WiPAzYVAgHWPgS9N54lG6uRm9cVyu1VkW1B9pQlekHsp6gOBOMtIIplV+u4URPYwqljty5bvSaF9JI8xDyzkQDmVXXkVX3AbvfF6247+npZcv0MdD7+aTHQq4HQq4uorUvrfMulcdH7vuVu2bFf2vlJ8b7uf1ZWbdRO5fSRasxTu75ZNU5OWQCNod3NmZ4zuPwBx0IKyYqwIyq8QgceBfdiomU2f0BlxoeTK+tQM7g3wGcbGpFXwZLlInWmEwRn3NGbmxWteBr9QhI06Xj+lA7Bpm7RqXXSRCdJu8zduPwzsYMnwvoaUXLR4GMlEGtEmcmL70VQbtdR0r5qH2WofjMMnvfk9tez+vpoLfRyEx+yVT+rGyMuzrrSGQlpaGQZhojrCqHkXytfFYZNUQCNg+8Phf62lSCNQA5BUVw9LTaohI1dG5qAZyMljVScctwcUwYqkMitYbAqFGqrIj/L31dup1aCzdbLsVcyLupAjkZDGiGG6vuj8mek3a8jpTSG8lLXCYt6X5WJXPfsxsz55/aZxxqnx/QrmirXWN6tk87dwWqS5zDpkHODuR6xaSNEFr1M71pjZZJ7j6f7NBmuX9bYWgEbO4JyEEAJ3vVEnngyQX62sxVqPQMrTB78NUeUOK/KUZpSJPWxTBUjqPaTSHZyoveFiD79WLpu+aM9DDo2V6TwwOPM4hOk/cWuwt3vouWzsztP5nvOJXDzIfqdWRk2FC6G2GsuO9p3SPS+VzVc46YPQ+sqn9YtV+1z2a2189Mz6qe12h4sbpnTavRxIr611U6JNKFvAIPwv53VYfpObxFyAmdxmHVoM4YuSBLjVwlw8yDniLkKmPSi8HIhWWXG7uelng9n83KVqdMVQ70UKsUmemtMNxz6LwODp1lJWVKQZjR+6rVhsJ1ZKRcdgsg1fZv5r4nR6sXx87UGies7lXQQ28QKk2rlEYrndmyKZVvqHzvw52RhlUjeRoJgpIJujJ9v5Rj/4At2rodCARVErmQ43EhHAioDplUYraVSEopwFDL19QJodRl7yjAjKoiwP8uDncGRWk9okQm5qhF8w237RL1ckbm9DjE+5Lbn02GkVlZCTO7X6NDP8Tnjtw2RoZhpaqMVrLqOkw/F/Jumg2vM/ZKX9y1Ip6DG4RXNBcuLL1+0mhw7ppKWXJuqMd0tKLliwmi69rc/D2tQFsucNLTaJGsoXAdWVFxT2cDV6rue0r3iKF3z4hJZS+xlfkKeei9T6sNObO6bFbIuaEe03Njf3ur6uEV/gidjq2f4K5AdQlwsuk0HOL7vrSuo1r3ij4zQon1o0g54utp0rKZfr4klCkxr8TnmXX3e7XvXivA1woA9fbO670PqqWTK7fc+W71uW37gC2noAiO0Gn0qZ0s7iJ4nUF0qgZ1ytRaJMVpzLYYqFUITOk9hz5UwFvgQbfoYnd4xsOBAE4KF6ijADPGnUNLU2s0ReRCnH5TgfriLSZFKoAhnGzaFXdTqr4hM0GbVRWOVLUOWrGN3LllpnVIqQdT/H46hxfJlU3p79SQLjIieYAPPpyj6Xpa0fJB9Bx3V6C6pB4zpA9LZxFm1EYekC29Qrpy5AUyM1ciNhQy2viilDC3AtXO0zjc1Iqw8DAvKUCfxfcQpXNZaxuB3P06mYdzpq4jrQY+o0Gskb/tfN8zOlrFLoFAMtQqf2YbE5Ty15OHFc+BVDfAmNX30S60ADrnsHkwvTYy8qulMxht1K7AdHc0+NGsewXRFwjC6ytCniMg2k9kak/YfzoxsGuKPl8cBZhRVY/p0kBL6/niKMCMEo9MgCb9XJGG+BZxo3/VbMCCOX1K90K9o4mSOT+saJQTKJU71XUmmwdswrw0jcVGxnmAFCw2otSrASR/Y0nuywyg0x9Eji8yt0+4sHM8LqDndKz3LNyBwx+JtxNuEpEhXtYeLmFhGPHQ1SC6OwLwlojLqZ+VPZ5yedutuzsT5FqypRXdTB6rZG+wSj052mKL8ag9wB3eosj8WnGDRG8rTvbUY7rHA0dnUHSdSVoqQ18iDA+ynLD6YrSWuHU5RfcQ4XsdqteklddRsg17RnrjhtJ90G4VfSP3FjPBlrSukY6eOKPMnj9y5deTj/n7ufXiAp9w5D7vcLmA3qCuule48zT6fBXweFzoHgyOJiAHos4HdxG8zgBOfiB6voQ70NlThOnjPEBvIG4fqs8X53VwIIhASPkzDU4tEjc09p5GZ2h2fDnTyKp7VCoazNPN1gHbYGVIbV6aowDeJBYbSRerK77hwHmEfUXwuIG+XigujCDtSo9QuWLNcrjgAOAoqUd1wptBOAzW7tQqHWaO41CqmBihVBk00vsrzkvutUwft2SHgWnllcwD3+GSNJJE9X0RAEqkQU0IYfE1EO7A4aYO0/seTpK9P0qH3Ji9PwyF6yiZY5TpazlVMtHDpve5lOx5nWzPQiolc92aCUBTfT/XL4iBuGqUqIEvSrvuFUCgB3ENe9LOB4fLCcCF6XKfKeSCAwH9z5do4CWMFJHraXO4XNGeuqLE/bmcAKwJ2IycM6m4Z6WqIVrv6AWzbBywReel+Y+qLzbiGQ9H6LTGCpLmKB1sI1+0ld2wcSStLJHjcD5u6GjkhhHf6pLqpfvVu9v1S8eQPLOtfHZk9gakdo4bzddsZVlLpnv5KLWUhn1pnZvif1s1pNEO11Gq2KEMqWKmkp6q+5VVzNQdUvFZtI6TkWFtVwu9da++jtMIV41HjqMD3WGllc6t+m3cILo/2IVuoXzRxvWEeW5xIyrIiKt3SGQaFhvRIj3YRh94VlQg1ERa8ScgByE4PC70dYgvMhccTgA9p9MzP0Y6JCAJcsdIz7EzUzkbylIxn0BawRT/m5XNROFgEPAlDvnNGecBQqf50NOgVilV+r6tPheG83WkZwiZ3QMXPTLRwybdl5XHL9lz34reamF/VpDrKRy+AZyBulc4gECoKDLcMDghYaXzcDAEwGl4hJIWYb5ezg3xQ/fDwSCQm4opMzF2eI5bOd0jnfdP2wZsun4EWxjfm6ZxtVbMRbD0oR1dfMTj/RIOZwCdcT1bQYRDAJyxbvPYqnAGh0QmBGOxBRliX09kXt0M32xMDybXy6bWkpfMcEg73CisohTUJpOfWh56jl8qh+4Y/Q7T9V0LQ5On3+CJLazjrsB0HXNvlQxep2otndGVWx2qK3jFrlOrer6tpNWDoBW06c1f7Vyw43Vk1TVkp+vEjuw21FDvPS6Z3l899N5nk2kcNfsMT4vo3C/zc7aM1L2ic9s8HuS5PAgHJI18g8MYKxC2pJdNLBpYhmLzrIV5dVYuTCc9r83ez60i94wR/m1kJJGwTTrZNGDT9yPYwnhfa09ieXorEgKlYTHi7aXpjBOCpCLZ36nr+6gVfbUVsfHIodM43HYdZpSIEg1W/ASx8dKxrvIATrYFUF0yG9U+QJjcOlAyG+IFYsOd7+IwZmOGdB6biaX9jQTFag8ko9/bUGFFC6vRIb9a522qjq3aDdaqfE0Ld+BwUxDTaytQXSu8GETngV2me7YdLpd2Ij2/DRedV6okYY6FT7i+rRqCo07PcK9kG2m08rDjdaTUWyfN1+z5O1wasPT01qTjfmVVK73cPU6aRkrP5zLTOKDV4GBEuhoOLDufwx043HadqL4Dw8MEddW9hN1FgySvM4CTH0kDxCC6P3gXuGl2wjw2o41w0p9xASBTN4vc+6eLyx4th5ml/fWc13KMfI/JjHoT70utbNLrSamxUW5/SvmY8Y2Sill/vnLlSlKZWC22PLxKpUH2t8GSI/4SlP6tlF4pP0DfDXMoPzhTRXp8jd6Q1b43Len+PlJReUp2WEymzknp8Bm13hGB2fNkqFdahwM937MVPWrJBjhmpKMRIxPbWyUT34mVUj08MRXlyRQ99aVkr1s7f35KXjLnyHA4N2wYsEV+d8ITUP9B2dgPBXJyJBERERERDU82DNiIiIiIiIgIAL6Z6QIQERERERGRPAZsRERERERENsWAjYiIiIiIyKYYsBEREREREdkUAzYiIiIiIiKbYsBGRERERERkUwzYiIiIiIiIbIoBGxERERERkU1dk+kCaMopxu5id+zvsB8vH+rCzsyVKMK5HtuqJuPUgTV4NJTpwqTDvZjSWI+Rx17CsZ07rMlS+G7t8p1qqsWqxxdg0uDfXdj30AtoSeEeV9zwK9QFN2FJ5wFL8/yhBwC68Nt9DdhiWc5EREREZDV7B2yOfOwodqP7xH6s6st0YcSW4PmqUqBj09AI1iavROHKabi8616c25/pwgxlTdj8UBMAwLf4ESwvT/0et/iPo65qLbYBlgRt1d4X8UMPAzUiIiKiocLWQyIXusfBFfZjj62CtSo8UlUPX2CXpb0eV6W+E1jQvB8LhkTvWoaEnsGSti44C+7EI85kM6tC9TgHQh3/wWCNiIiIaIiwdcCW53JkuggJqr134kZnF3770bZMF4WuFj0N+G3AgRtL1qM602UhIiIiorSy95BITW5srilG3uDfYRw7dBAPhIW/HXhyZiUKAwexKOQTzYWTptNLZw/FnPUoqZ8QK1Xrq2h/vVWU4AeY8HQNxg7+fRnnXn4YFz6N/jl5JQpXXo+LL+8EbrsdE7Kir3c3o+2FN+J2de1tj2FqxUjRK7G8pO856p/F2Hrhr3Pw3/cMgvo+uKyRC3+DsjIXgG580vD36Ne7oXReYu8JLDjZK5MG2NMcwDTRdxzsPIhFXQa+uJq70DgvG21bHsX2dtHrhUtx/4py4OhLeEp4o+YuNM7LFyUyMUctmu/FtzZgc7PwYmTu2xjxvuT2170bDS82yWYbGRpZih/lAi09RgpEREREREOZ/QI2aWUePqys8WFl9K/B+WyOfOyY6QM6D2JBtAK/ML8SK2fOwWbJnDeXtxK70Ys9zfvxHIB7ps/B/OJ8LDQ6FM85C9OcQCCkPBRSCJIuiOaLXXvbeoyd3BoJyKLzydD6KtqiQdy1tz2GqSufxYi4OWYjMWHl7biw61607Uc0CKzBhDlvxNLMWY+pFcC5l++NBXsiV15/GG2vIyVz2IRgrX9vHT55x+DGfSewoBkQAuoyxYRuzK9x4tih/VgVjn6/3hvwZK+BYLv5FM7MW4CSubXY3h4LhnzlhXChC/uEAKpwKe6fegoND70QTVGIxQ+uxtwHl+LME6/Bb/AjaonMgevHvoc2RAPCyP4a10A+aAu9j1OhUkxzVgHgUFwiIiKiq4X9hkQK85qa92NPLyIrCEb/XtAcC8Tu8frgCvuxTdTbsrPrIxwLA3ked3yeYT9ebj6B56J/dgfDgCNL1DOnk3M0nOhCm1IPx+SVyKsYiXDrq3GB0ZXXnxkMqFzzp8ExcArdoh63K6/vxLkBYOz0H8RlJw76sP9TXAAw0lMx+P61nmwA/fhPmWAtlbJX7UVZGdD9iolgzZD4ntCdvV8gCAeyDY2UbcK+owNA3jTRcMJC/GVhFtB9KtZ71v4anooLlNrxYfsAkJUtWhXSKrWYW56FM2+Je+/asf1Al6ScYgdwNgg4x80yPyzSOQvTnGGc6mHAR0RERDRU2K+HTRcHPE4gGOiV9JCFcTgQRpnHgYVA7L1QOC7dzq6D2NllfK/VTjeAXuUEE0fBgcs492GrQoIK/MUYIPzph7gS93orBj5dCEz24FpA8p6yK68fxIWKGviefhYJwypTZGTZakwB0L/3RzjXkdp9WcV/tB3B8nJMqQFamgEUzoQvawBt2+N7sqrXbMTchChe90BP/Qo9GAPANW8jGudJ3xxAbiGA9sTNTHOux7aqUjhDx/HMvjUp/RkCIiIiIrLWEA3YMqMl1Iv1mS5EnDdw7r43cA4VGNtwOyasfBYTIOmZs9jlYy+he+xqTKn7DSacGyJBW/tr+KC7HHOn1gLNTZHhkAPt+FAUFEWCtYG4uW6pXrr/TNw8N52C540HXKFnsGQfIoHb3F/hR213YB3nwRH9/+3df3SU5Z3//5c96pcwGSTBJCokkWE0UGh+UCqGWhPND8PWuvYAW0FbCa382AMthQ9FcMP3rFmhNkfqVk4RbMF2La4b2PbjukskIAm1RCxrSFYF2iGQBNQkkgAzA2zqt37/mJnknsnkJzOZO8nzcU5PmXuu+7qvuRN1Xlzv67oBABgSzFcS2SeX1eSWohPiNMfv+Gh9JWF0lxm1kHFfkFvJSo3v5v2zl3RZURo1obsO3tP/tkmj7/iybvQ7Pl3WO6KktqY+z64F9nu+eJVqf/RK0NLKUGvdvk0NrmglLfylYsN6pdCpPOErN/SUQzZWGdel2RUfI6nhD/4bk4SLo0ltkmLi7P04KVMToiW368zAr+s+rONuKcGSOfA+AAAAMKiGaGCTftrUIo22aX5y54KmOclfUvroyzp2uoeyxWvh/cJrS5gf/P0/v6RPGqRxs5/RuDs6D3s2HfH82fXBOck6RUmPGNaiPTJH461XdO7N13VtJmiUVbr86dmAcTXpikIZ5Hbr3LN71aokpRQPkdBWcVyNSlbKvLtks9brpN/MlkPNbZJiEmTzHvHMrlm79tObLmHMs0Ok/zo4z7q66IwlWpzdx377sOENAAAAhp+hWxL56fsqeDdZu++aqbKJvoMtetOwuUjoVanyk8c1Y1KWNtS9qqfdXVu4tqzSCe+uj76N/S+/94ocvrVlB59T7dknZH/iMaVOf8x7cGBb7Ecv3yxbwJqrro8QkKTXde6lBEU9ka3Un/gSwrVu679ZJ1++VekL05VS/Fs1vNz38kjPbo+GnUNGT1NZtjTwxy30xQHtr/6qCjMy5Kre1qWssPLFMqVsLFDhRm8NpLNaO/fFqtC4xsy7ZX90xwGrcjeWKFeSq2PL/gPavm+KivOXqDhDkpyq3bFNbfOWdIRBSaorfVo7tUGFgevYutnaf5HNswbtt5QyAgAAjCjXpU6f9Xl7+8AK8UamTG3IXKYZrr16iIdnYzDEF+v11DgdrVoa9C8J+s7zuzvlk62af5qZOgAAgKFgyJZERk6Vnq6tkTthtl7/UjelkUCoWFbr1dRkuU/96hrDmtTxaIBJf6NFoRgbAAAAwo7ANhDu5zS/qkbuhCxtsER6MBjOFtnSpFOhmxHb8T9bddSdrIdzf63Xc4sJbgAAACZHSSQAAAAAmBQzbAAAAABgUgQ2AAAAADApAhsAAAAAmJTpAtu4m2/W9dcP3cfDAQAAAEComC6wAQAAAAA8CGwAAAAAYFIENgAAAAAwKRaLIYjH1P69H6i97p8V/dYroe8+e7mK85M7XzeUqejFA6G/jtG9rTqyok5jfK+dNv1kUax2el/a5m1QYUar9q/fospr6Gck+GzuH3W1NUy/GwAAAPAzIgLb1KfylDfWoV1rTqs50oMZAj6b+wO59UfdFK4v5BVbVFQhSXbNW7dEqeG5ShAxeueFSSo8dA1dHIrVzEOxkqTCtaf0o5TQjGwouf73f5Qe+4FcEqENAAAgzCiJhJ+/3v+WnMmnZf3F3/PLgeCa/l7R5af1l4xFak+I9GAAAACGN76To1PCz3U5w6qo8r8bGVOvGLjav5O13ir3N36uv0Z6LAAAAMPYMP5eHq85W9OU2PHargVb7R2vLtYe1s6tbkkW3VcyS7fXHdbOFrtW5sR7W7hV8/JhHTxi6HHZLC1ItXQecBnKLGdOVOFCuy4dKNee3UHGcbZGzz/jK8j0XDMt2tcm8FrXMKYgbXxjuynYuA3+OnWy/nLxjxpdqy6ylpYoN6ZaOzftUp3huGftl1S742mVOozHrJ2NnF3P61X2chXnx/r1K/sCrV2UobZ9a7S9ImBsSZ2vGwPeH5gcLd5YoERJrupterZjEIMscL2fgn0+b2lpxy13+t83r57vk6cPm2ObSrXA8POr73Zd3/W//6NueOwrak+VRgX5nZHu06qf5muiGvTGD7fqzT59YAAAABgN48DWrD3LyiX1bQ3bTamztFLNKl9Wrg9858ydqA+OeM+Zm6avq0bPL3N7z/AEsQVPuT1B7Eizzsy1K23mRMXvNlxn7q1KlFs1+5v9zhtTe1jPb/X2NTdNKxfOkuQftPoypgWpUs3L5f4BzWhumlbmWPzaTH0qTwtKFHA/HtNnNqt04aOg066VJ+qVm5+h3Oxdfl/yv2y3Sg1lneEge7nmaZeK1vsOeIJP4dKmMGws4g0qbWUqWu/t275AaxeVaLGuJbR5w9pAgmYo2RdobX5yLwHUM9aY6m0q8v0QspereNEGqSO09f0+RWcsUWGDr52n79ylOaoM9rNrOqwbL35F7Tc/Jom1bAAAAOFASaSPy6Fdy2r0gfdlS6tbih6jON/7u2u8M3I+zTpxVtJYizzzX24dPNIsRd+qqTM7W01NiZdcH+sDb1iKX2ZXosuh/zT2tduhGpdFt083zpT1Pqb4OIskt5q7C2uy6L6Z8bpYW+MX6D7Y79DFgHFKt+uvN0lRf/qn4F1VlKnWKSVOzuk8Zr9LNqvUeMLwZb5iS8Bs1AGdbJAUkyBbd8McqOwCpVrrtd8YJhy79E5DwDj7w75AazcWKLGhTEWRDGuSNCFW0XKq7Wz3TWzzvqpEZ7VKjfe8oky1TqtsGd4Z5f7cJ78dO3v72b2iL1yQ/mKb1U1Z5EFt/uE6rWB2DQAAYMCG8QxbP11w+82+NW89rOf9GgSWMXq5DH/e/bEac9I8weuIW1K8Jk+QGg90zmTFxVqkaP/yzA6xngDW1zE1b3WocWua8rbmKS9YKaQsio32ztRtDXK5REm+9gm36TP19Avh0H87nErNmKIsHVClJFuGXdHOapX2WJ7n5ey24wGzxcVKsip3Y4lyA990ekJG/wJXsnIXJXtKOMP9mIG+qChTbeYSpS4qUaqCl3omjrNK1gwVbszoev64ZEmOMNwnAAAADBYCW5/4wlqzyg0zXp5SS2O7Zv2+1q0FtnjF67Sa596qRDWrfHdAd92sIes/X9mnd3wL85S2UGoMWEfXuV6vB00f9frLUFf6BzVmFCglW6qs8JRDuhzvGr7s+8Ka/7onz/q3gXy+vuh+jdWA+trRqrsXZYSphLO/HCrdtEal8t7D/BIV5wdZU9en0s1Q3qcA3ZTRAgAA4NrxPatPPDNVF2sdHWGtO83vfdxRbjg1Jb7LOV1KLUPCrYNryvX8ssOqcUmJKZ2blLS6pJtiLT2e7XFGX7goXbnzH3po4ymRS5yc4y2HrNc7fuWPyYqxSq7qsvAEgwB1La2SYhUfZLJywBy79Oy+eimpQGvnhbLja1P54hoVrV+j/Q1StP2ujhLFxvNOyRpr2Fynq7DcJ0nSY/rrWOmG1jOh7hgAAABeIyKweUJS4Jqt/ugafKY+lae8CUGaHmnWGZdFt0+fqMkT3Drznv/MVvNWhxoVr7ySiYoPcvq18QbLVt81vevqJqSpcFlvoe0VXV/nlJJT9VkPrSpP1EtJUzQvw67ohuMBwaxebU4pelznroaBOxP22dlWuWRVjO8ee3eI9KtI9a7VSl20XFkDuES3KrZoZ7VT0RlLriG05WjxxhIVb9yg0OU+u+JjJLU1dcym1ZX+QY1KVu66Bd2vEQzXfUqYpfabpOs/7W7Dkfu06qeb9MJP1+vxEfiAcQAAgFAYESWRzVsPq/ypPOV5SwalPpYJdnDr4G6Hbl+Y1rkW7GyNdtXataDLt2RPSFqZY9dNZ2u0p8uGIM3as6zGs8Ok3zq2YGvQehYsNHb5XLtr9LzStDInYB1bkLLML3xwQjdkfEVX739M0W918yXct64qw6naHYElgw6VllbLtqhAxRsLPIcayrSz+qsqNHzULtv+W33tDdvRO3aptNquQm8ZoKekr0wpvn5919u0TVq3pMv6rGvd2r+u9GntH1ei3IwlKh5XNoDySE94TbRalZqbo1JH/8sru9wnKWBTEEk6oO3r5dmJ028dm3Fr//Dcp8++9pVuHwPhHazOX5ImjrHqzhmTpJOnBnYhAACAEey61OmzPm9vb4/0ODqMu/lmXbxwQZ991tM8D8Llr/e/pYsZn8r63DB7ePa9rTqyok0fvjBJhYdC02Xh2lP6UUqMfrIoVjuDNfA+Qy2iz3ELl9R/U1vezbK8cr9ubOqhXe4yvfD1JF06+gs99RsCGwAAQH+NiJJI9N0X3tohy8WJcq7+tx5LI9Ebu+ZlJksKXOc3DCT8XK68ibqhekfPYU2T9PjXkiQ16BBhDQAAYECG1SQKQuEV3fgLSd/7Qc+lkUNSm+5ecVTHV0hy2rqfGevJva06sqJOY3yvnV23v+woZXRWa+f6CD/LLQw++9pXpOp/7vF344GVm/RgsqRLx/TCD1/TnwZveAAAAMMKJZEAAAAAYFKURAIAAACASRHYAAAAAMCkCGwAAAAAYFKm23Tk/KefRnoIAAAAAGAKzLABAAAAgEkR2AAAAADApAhsAAAAAGBSplvDJkmyrNarmWmySHKf2qr5p6siPSIAAAAAGHSme3C2H29wa6r9jlY2R3owAAAAADC4zF0S6X5O5U2SLWF+pEcCAAAAAIPO3IENAAAAAEYwAhsAAAAAmBSBDQAAAABMyvSBbUdTvZSQpQ2WSI8EAAAAAAaX6QObmov00P5KxWb+Wq/nFmtRpMcDAAAAAIPEnM9hM8ia+KJWT2rR7/Z/RysjPRgAAAAAGESmn2GbFD1aavpQOyI9EAAAAAAYZKYPbAAAAAAwUhHYAAAAAMCkCGwAAAAAYFImD2zzlZoguV1nIj0QAAAAABh05twl0rJar2amySJJTXv10OmqSI8IAAAAAAbddanTZ33e3t4e6XEAAAAAAAKYvCQSAAAAAEYuAhsAAAAAmBSBDQAAAABMisAGAAAAACZFYAMAAAAAkyKwAQAAAIBJmfMX2sKmAAAgAElEQVQ5bAid7OUqzk/ufN1QpqIXD0RuPAAAAAD6bEQEth9OvU8PWOr00rv12hPpwQy2ii0qqpAku+atW6LUSI8HAAAAQJ9REgkAAAAAJkVgAwAAAACTMmdJ5M3TVDZNerOiTgl3zVT6aO/xlvdV8EGLoeFo/dj4vi7r2LtH9ORlSYrT9uxpSupoa9MT2TY94X3lOn1Ec+svS6OTtfsum1rfP6jFn/raes6N9bWRNCd5pp5I+EQvvXtZDxj6dRna/HDqfXpA76ugKUFl0+KCjKlvspaWKDemWjs37VKd4bht3gYVZki1O55WqcN4zNrZyNn1vF5lL1dxfqxfv7Iv0NpFGWrbt0bbKwLG1nlT1Rjwvs+dj67XihlWXTr6Cz31m1P9GQ0AAAAAL3MGNklSnB7IjpPr9BEVdASradp+sy9YdYaqAm9g0s3TVHbXTP343SN68nKLFlcclBTCNWyjbXoiW2p4/6AKPvVeb9qX9OMWQyCLm6YyS51eqnhfe3yBclqy5vTj2pUn6pWbn6Hc7F2GMGTXl+1WqaGsM1RlL9c87VLRet+BHC3eWKDCpU1h2FjEuwaurUxF67192xdo7aISLVbw0AYAAADg2pi6JLLh/YMds1e6fFmtkmItnum0Ock2JV2u06v1hqmrT+t07PJo2eNGd+0sJC7r2LuGmbjLTrk0WrHGy102BsPL+mPTZWm01TDT1wcVZap1SomTczqP2e+SzSo1njAEsYoterYjvUnSAZ1skBSTIFu/PlcfZBco1Vqv/cYg6NildxoCxun1p99s1IofrmN2DQAAALgGJp5hu6xWvzLCzhkzSUqKHu2d8eosc+wQbZHUjxrEPnOrydjt5XrNragPw3Uc+m+HU6kZU5SlA6qUZMuwK9pZrVK/mSzvrJc14HRn6Edki4uVZFXuxhLlBr7p9ATEfpVhAgAAAOiViQNbH1wevlv115X+QY0ZBUrJliorPOWQLse7hlDkC2v12r9+iyq9Rz3r38I1Kv9rAQAAAAgvU5dE9qTBNYBSwyHFU96YODnHWw5Zr3f8yh+TFWOVXNVlgxKg6lpaJcUq3j4IFwMAAAAgaQgHtj31dWpQnB64K1lzemnrCXe36CvBlrYFrI3rurtk5FSeqJeSpmhehl3RDccDglm92pxS9LjkjiOBOzj22dlWuWRVzATva+8OkdHGNhVlqnValbpoubL60OWdj67XCz/dpBdW3jeAAQEAAACQhnRJZIsWV7yv7dnTAtaxdd1Gf0/9ESVF36cH7rpPZd5jndvxt2jx+y0qmzZTZRM7z2+dNlMRn0yqKFNt5hKlZjhVuyNw10eHSkurZVtUoOKNBZ5DDWXaWf1VFRoG3mXbf6uvvbNzG3/HLpVW21WYX6LifMlT+limFF+/vutt2iatW9JlHVuwrf3/1NQmySolT9YDOqg3r+1OAAAAACPSdanTZ33e3t4e6XFg2Jmkx//xe5oxpkFv/HArgQ0AAAAYgCFbEgmTy83XjDHSpaP7CGsAAADAAA3hkkiYUsq39MzSdI2RdPo/12nz/kgPCAAAABi6KIkEAAAAAJOiJBIAAAAATIrABgAAAAAmRWADAAAAAJMisAEAAACASRHYAAAAAMCkCGwAAAAAYFIENgAAAAAwqZAGtuKSozpeelTHSz9WcSg7BgAAAIARKKSBrWjNDE2ZN0O7z5zT3B2tKgxl5wAAAAAwwoSlJLLoP2y6ZG3TvfeGo3cAAAAAGBlYwwYAAAAAJkVgAwAAAACTIrABAAAAgEmFJ7AdsupDZ5vu/oYrLN0DAAAAwEgQphm2G1S4aIZ+8mmTjpce1ZG1fwnPZQAAAABgGLs+PN269EbpCcUdTdOUeZPCcwkAAAAAGObCM8N2b7viFKMPq24IS/cAAAAAMBKw6QgAAAAAmBSBDQAAAABMisAGAAAAACYVlsBWmNmmMRqts4fC0TsAAAAAjAwh3SWyuOSo5t4uSTF654VbVRTKzgEAAABghLkudfqsz9vb2yM9DgAAAABAANawAQAAAIBJEdgAAAAAwKQIbAAAAABgUtdbx8To//vr55EeBwAAAAAgADNsAAAAAGBSBDYAAAAAMCkCGwAAAACYFIENAAAAAEyKwAYAAAAAJkVgAwAAAACTIrABAAAAgEkR2AAAAADApAhsAAAAAGBSBDYAAAAAMCkCGwAAAACYFIENAAAAAEyKwAYAAAAAJkVgAwAAAACTIrABAAAAgEkR2AAAAADApAhsAAAAAGBSBDYAAAAAMCkCGwAAAACYFIENAAAAAEyKwAYAAAAAJkVgAwAAAACTut55qU3t7e2RHgcAAAAAIAAzbAAAAABgUgQ2AAAAADApAhsAAAAAmNTwDmxz07Ry6yzdN7N/pxWXHNXxEld4xgQAAAAAfWTewDZzogq35mnO3MG9bOHaU5p7+3jtXhM9uBcGAAAAgADmDWyR8PjH+tEM6Z0XblVRpMcCAAAAYMQjsHVw6Y0Hz+nS0SQVHor0WAAAAABAuj403cRrztY06UC59uwOfM+i+0pm6fa6w9q51e1pvWyWFqRaOpu4HNq15rSag7x3U06eVub4XjWrfFmNPjB2PzdNK3PiO15erO28jodbzUc840v0HmkMNs7HnZqk8dr97A39/OwAAAAAEB4hCmweY+IsktwBRy2KjZYutXiPz03T11Wj55f52nnC1IKn3Hr+mWY1bz2s5yXPGraFdl0KGgK9Z3rDnTGAxS9L030za3TwSEcr5W21qOblcu054j0nZ5buazxsaCMVTzsnOW2qC8F9AAAAAIBQCFFJpFuthk0V45fN0sqSiYqXpJkWjZFbrY3eN3fXBMyANevEWUljLYpXP8ycqK+nWnSx9rBfoGveWuMXxCS3al7uDGfN732si7IoNtHY5i+aME66dNKqnf0ZAwAAAACEUYhm2NxqviClxXpKGafaLFL0rZo601Pm6ClL9LX1lEimBW7C2N9d9BPH6Ca5VfNe4IzeQPyv4qwh6AYAAAAAQihkJZEtrW7J5pkli5VD5bW36q7pFqlljG7qaOULa/5r0aY+lae8saEayUD8P2pxSnGRHAIAAAAABAjZLpHNHWvUbtWYumZ98N7Hki1eU+MskuuSWiT51rNdrHX4bxwyEI2XgpQ2DtQNOnteGpPiVGEougMAAACAEAjdtv6Nl3Qx+lZ9faZFZ95zS0eadUZ23WWTdMHdURrZ6pJuiu3cBXLqU3nKmxCkvyNuXZKUmNLNyrYjp/XuWSkxZ5bum9l52LPpSP+HX/T+eMnapnvv7f+5AAAAABAOodsl8ohblxZalCiHPjgiSW59UOdWWqpFF+t868zcOrjbodsXpmnlVu+hszXaVWvXAltgh83a87JDhca2Adv6f/BMuVqWzdKChXlKW+g5drH2sHYeCeyrD35l1akHz+nub7ikQ4EL7AAAAABg8F2XOn3W5+3t7ZEehzk8/rGOP3hZ77wwiYdnAwAAAIi40JVEDge/ulW7z7Tp7hWntJPSSAAAAAARRmALULRmhie0faO/zxkAAAAAgNCiJBIAAAAATIoZNgAAAAAwKQIbAAAAAJgUgQ0AAAAATIrABgAAAAAmRWADAAAAAJMisAEAAACASRHYAAAAAMCkro/0APrEslqvZt6h41VL9bTbcDy+WK9PuqDnqp5TZcQGFw5zNX7tEiW17VXV9s19O2VSidIXpitKDTpZ9F21DvjaOVq8sUCJHa+dqt3xtEodA+4QAAAAwAANgcA2X89npkmntvqHNUlq/i8dnbRMqzNXS8MutEWCXfPWFSixoUxFLx6I9GAAAACAEc/kgS1TGzJny9a0Vw+drgryfpWerrpdz+fO1tKJmaoM2maEOLVGx4qusQ/7XbJZnaotJawBAAAAZmDqNWxZEx/XDEu9fvc/r/bQ6lWtrK2XZdLj2mAJ42DueEL2n2zW+PvCeI1ImxCr6EiPAQAAAEAHE8+wZSrrltFyn/ov7eitafN/6ah7mWbY5ks9hrtr8OeX1PDeM5o8e7OiEl6R41/fu4bOvGvUDOmotTxPJw/5t7pyvkFRc36r9HRfQ//1abGLy5WS6H+OXMd07Nk1unINo+ueXfPWLVGqtfNI47412l7h38o2b4MKMwyNKLEEAAAABuS61OmzPm9vb4/0OLqyrNarmWlqqv2OVjb33jxr4otafcufw78ByX2rlTp7vOQ8rhPFL6n/d26VUopnK7bRsKHIvb9UZl6SrhzbpmN7dssv0HW0630jktjF5UqJ6W9gC9xkJEBH2PK2M4av7OUqzk+Wq3qbnvXuSpK1tES5SfXav36L9+fgPc9ZrZ2bdqmuz+MCAAAAYN4ZNstYWVSv2j6ENUmqdLdoteUOZVmkysDNSXr0kMb/JFvjgr53Redeekrn/2w4dPA51R70nDP5J6tV96Pn5OrH1aLmfE2xatBJY+g69F2dnFyuFPtMRWl3Z9gyhjrt1rmq2UrKm6pY6Rp2gQx0QNvXGwNYbNBdIW3zvqpE1Wu/caasYov2Ty5Rrv0u2eRQnX2B7k6SGvdtMYTmA9q+b4qK8+36sl2qY7dJAAAAoM9MG9iyLHGSWgbhSq/r3I9e17l+n3NWV4sek+0nm3V+7yqdO9i3M6PGRUuNv+8SuFpPNEh5sYqSup8dO9eqK7IrapKkU/0a8DVLHGeVGv7QZfay8kS9cvNjlSipbkKsolWvdwJKJFVxXI35BYqZIInABgAAAPSZaQNbpbtFq/t9VovO9mt2baB8s3Ln+j3Ddk3GewIdAAAAgJHBtIFN7gtyK02p8ZL6sobNEie5/zyAiad+lkTe8YTsT0zR6AGuYbty3iWldy1rjJ2cJLmO9bj2LCrOc9aVQZ5dk6TG804pY4qydMBvli1rcrLkrFajJJ1tlUsZSsmWKo2zbNlTlCinas8O7pgBAACAoc7Ege2wjrvTNCNhvtTc286Pnh0l5fpoABuO9L0k8sZHntHk6VG6/N4rqh3gLpFXjjl0JT1dKYtX+W06kpIotZb3sFnIpBKlpEfryrHfDGj9WsfOjQPc/KOu2iFXRoZyl+ao0rDpSG6S1LjP25/jXdU5M5Sav1xZFYZNR/KTpYayIOvivGNiF0kAAAAgKPMGNlWp8pPHNWNSljbUvaqneyp1jP8bzbBc1tHaMG3pL0l3PKGk6VH9Wq8W1Kk1Olbk2Skys3i296BLDS/n6VzHzNluXWlbIiUa2wTf+r+vEsdZe2/UE8cuPbu+SYs3Fqh4Y4H3oFO1O9YYgphDpZvWqHlpiXI3lijXe9RVvU1FgWlNUl1LqySrlPRVzbMf6BLoAAAAgJHOvNv6S5IytSFzmWa49uqhbp+vNl/P585Wwqmtmn+6alBHZzaxi8uVou63/Tcf33PdjI8BAAAAAODzhUgPoGdVerq2Ru6E2Xr9S/ODvJ+pDZmzZXPX6MWRFtYmlSh98Sq/10mJUuuJoRLWJGUXKNUquarLCGsAAABAECafYfOyrNarmXfoeNVS/9LI+GK9PulC+B+WbVJRc36r9PTojtfXUjI5uDof1t24b422Bz4GAAAAAICkoRLYAAAAAGAEMnlJJAAAAACMXAQ2AAAAADApAhsAAAAAmBSBDQAAAABMisAGAAAAACZFYAMAAAAAkxoagc2yWq/mvqgNlkgPJJRG6cmF0/Xaw2MjPZDwmGbTa9//op6M78c58bdox/en69lpJhrTQFhW69XcYi0K82XCKr5Yr+f+Wq/n/lrPh/t+AQAAoFtDILDN1/OZadKpX/k/NHuQffvh6Xpt4S26J9ib02x6rd9BY5RixkjutquhGaDJ3DNulKSrOtfcj5PiR8uiq2prVi/hzRt2u/t5hHJMA+F+TuVNyXp4qIY2y2q9mpqsutrv6KH939HKcN8vAAAAdMvkgS1TGzJny9a0V/NPV0V6MNKY0ZrY5eAoPTljrNRQp7Xv96Ov+FGKk9RyfngGtokxo6RLl3W6H+cEC1Rx40Z1bTjtNmWMuarq//pEb4d5TAO143+26qg7WQ9/af4gXC20suLvkMVdo98S1AAAACLO1IEta+LjmmGp1+/+59VID0Wn265KGqXxAeVh92TZPOHh8IV+9XfPlFhZdEHv9yfkDRljNS1Jcp++MPBA1XxVLZIsMYGBbayevX+s1PCRftyvQDGwMQ1clZ6urZE7YXaYSwqna1zRZqUufyicFwEAAECEXB/pAXQvU1m3jJb71H9pR9D3R+nJhV/Unac/1KLzt+m1+31rwa6q+l8/DPgyP1bPft+m2zteG9t43tNb7wWZITO8d/6qVqhrePhG2iipoc7vet9+eLoeTApo2lCnb/2uM9R5wklrt7M992R9USvSruqNn9XpX3wH42/Rjkdi9aeAzxd4PXfNh1pUGaaZu/hbtOOR29S5nPCC/xilPs8eBr9PV72B6qraLsnwM/O4J+s23a6AgNxlTJ7z/X4Peh2T52cdF3Dvvv3wdD0o/59dn+6B5C2N/LUenrRaWc3PqbKbK1+b93T+X7+smCeylVqUoBPFL6k9LNcBAABAJJg3sFlmaYpFanJ3VwrpWQPWEnObXkuT3vjZe/oXb4jLmDVW8n3BnmbTa/eP1Zm33tO3vIHsnqwvasUjNn37Z3X6l/hRitNV/SnYbI3vS74kNV+WW2MVEy+p2ddPYHjwBsNLH+mFn/nK9bxBwG+t2iiNHyvpwtVuZ3uCBTrPrJyxZNB7vYY6fetn3jHE36Idj3xRz54PFkCvjSdEjtKZt97Tovc9n+PJhV/Ugwtv0emXDeWJ3rVoQe+pcdxB7pMcvnt5VecuSBljR+keqaNNYEDuOqbOsOu3Vq23MQUNdN5ZuZrOY56+pep/fa9jDN9+eHrXe+C1o6leDyeM1SQpTIFN0p9fkuNHD2n8T7I1+SfP6NxLT+n8n8N1MQAAAAwmEwe2sbKoXrW9fMG2JMkwu+H9kt/RyFM+d8Zv9myU7pnY3eyWYdau8qr/l3xviV6cd52VLzy4az40fHH3hhC/8BIsCHg3HDnd3WyPJ9AFlu8FhrhvP+wNa4bZH1+o6z4sDVD8LVrkDUad9/Kqfnz0gl67P1b3xH+it30hqpfNPbq/T/7jPt12VUryrBt8W76AfEFv/K4znHYdUzdht7cNR+JHy6ILOmgMuYE/u/hbtChNATO4nlDXOTMYwH1BbqUp1RD0+2a6xhU9pvHW4O+e37tK5w4aj7yucz96XReXb5btic0a1eX9vvLObH9yOHwBEwAAAH1m2sCWZemY2+qRu+YjQylawIzItFhPSd390/Xa/YaTAkJOxxf5abcp5sIF77qpq54v+ZdaO4KIpM73fOGho3zOd+2ANVLBZnZ6K8+LH6s7x3QNef4hzhsUZNNr3zee3E153jW6Z0qsLJc+0o4+zNr1XO4Z/D51nT308a4bbPYF5M7P5lsH6Beyupm97K0E9dv2sdKlj/zfDwhxnuuNUsYj0/WaoZm75kN9K+QlqO/pfPF7Ot/Ps1xbVunEI89o8uzNGje1QrVbXu/jmZnakLlMMyyXdbTqO5ofwR1ZAQAA0Mm0ga3S3aLVPbzv+7L+hvGLckAQ8n0JfyFIqVrnOaNluXRZpzVKT9ov6z8co7Vixijd452J6wxIxjVVXcNDxwzRcf+Q9eQMzxiMoS940AgYU2DIm3abMsZIZ84bw2iw9Xrh4J2VDFLC2TXUdhNcfbq5T8FmPd82rBvsGpC9IazhI/9w6rtPR42BvJcxBQ15nT+708Yxdgn7fXFZrYMUgKKXb5YtKdgMXG+q9HRVlTzB7dd63bVXD5lgsx8AAICRzrSBrbdSsqAzJr2unerexCybYhwf6u3mW7RozGhNnDbas/tjR7DoXFP17azYLuEhKG94CFou18P28l3L97zhwfeMMtPwBdeuQahfjyvo7j51rBsMEpCD6vk+dT+mICWqPf3s+sMyVha16Gy/A1t/SyJ97a9c4xq2KlV+8rhm3HKbshTGdXcAAADoExMHtsM67k7TjIT5UnPg3/QHL3sLnO35F8cFPXj/bfrGtE/0djezWfeMGyWNGasH0y7ojZ9J0lW16DY9eL/81qdJvjVVt+nBNHUTHkbpzimjpOar3s1OpDMNXXc6lNTxTLe3Jc9GIX8j7Qg6E+hdV3fhgtxjDLtUvt+qM/fb/DdY6YFt3gYVZlilhjIVvXig1/b+rurt01eVkXabnoy/4Le75u2XPtILQYJr51o/z6Yc0xz+6wj979MouS9JCnyIuHfd4O3326TuAnJSrL6tCx0bznS5T30ek0HQn12we9C7RQnJkrtGp/rW3KAfJZF3PCH7E1M02nlcJ37ELpEAAADDiXkDm+9v+idlaUPdq3rab4bCMyPiX/YWpGzv/Tq9MO6LWhG4hi1ImWTnWjhf6eNH2hEQEDpK9C51fU/Nn2hHTaxWpH1Rr6VJnrVkH2n8wrGKC9hc5O3Kj/SNNJse/P50PShf27qO8QS+767xProgyTjrdkFr//Uj7XgkcA1b8DLJupZWSVYp6auaZz+gUof65e3KDzUxZroeNKzfCr5264L+o+aq4T54x+8LRkHvU53GL/yi7uxyVe/PYox05q2uAflfflenad/v7T71YUxd3g/+swt2DyR1XyZpWa28BKmuNlxb+kvSdI17ZIpGN/RnvRoAAACGiutSp8/6vL3drH8n790IgfU0IWDXvHVLlGqt1/71Wyh1C7uh+7ubNfFFrb7lz3quKpxBEwAAAH3xhUgPoGdVerq2Ru6E2Xr9S/MjPZihLbtAqVbJVV3Gl/BBsOhLyzTDUq/fDbGwJnk2/JElTd+Mj/RIAAAAYPIZNi/Lar2aeYeOVy0NKI1E73K0eGOBEiU17luj7RWRHs8IYFmtVzPHqnx/kXZEeiwDlDXxRa2eNFqSVFf7Ha001WY3AAAAI8fQCGwAAAAAMAKZvCQSAAAAAEYuAhsAAAAAmBSBDQAAAABMynSBbdzNN+v66038eDgAAAAAGCSmC2wAgL47sOWBYdkPAADwILABAAAAgElRewgAJhY4Y5Wz/E2/93KWv9nx/0OpHwAA0DcENlOaq/Frlygp2vfapYaXv6lzp8J1vXjN2ZqmxI7XzSpfVqMPwnW5QAk/l+uxybrxlft1Y9NgXTRc7Jq3bolSrb7XTtXueFqljkiOKYSyl6s4P7nzdUOZil480Pt59gVauyhDbWF4eLtt3gYVZnTccLmqt+nZIXHDE7RzS7qS1KS9y49JTz6g2ROkhrfeVOG/+7f0hR9jWDKGor6GJDP183+Mn1fpOnB/gnT2mHJ+bPiXQMLP5XrsZo167u/4jxUAYMSiJNKUduvcs3mqKspTVXnDIFyvWXuWlev5ZeXaVesehOsZ/YOuPvYVqXpHhMKaXfPWlah43QLZgr2dvVzFGzdonr2v/TlUummNitavUdG++tAN0ywqtng+2/ptqnUOrAvbvA093NMcLd5YorV9v+GqK33aO6YyNQ5sSBHi0nmXJNcl1Uuqb+v7P3vBwpAvJPVHJPvxfF63zp+VdPaSXMEaNf29RtVPlHP1v+mzfo0IAIDhg8CGCHpM7d/7W12p/7+KfuuVCI3Bof92OCWrXV8OkhGyJidLTof+eyhM2AwRddUOuWSVLSPIDc+eokQ5VVc9Um+4N8D0oKeZK19I6kvgMls/kuRq6xrbrt/9z7JcnCjn3H/oUx8AAAw3VJkgYv56/yK5bzot6y/+KaLjqKt2yJWR4QkQDmNQyFFKkuSqfld1ERvdMOR4V3XODKXa75JNDr976wnI1SMyIJe2uLRU0b22623mqq9rx0zVz7tutX5Hig365iu68T9mqf2xv9XV1H/SqNo+DQsAgGFjZAS2SSVKX5iuKN/rxr2q2r7Z0CBwzZjUWp6nk4f8349zbNNJPar0dF/DBp0s+q5ajde695fKzEvyu7x/X5K0SinFsw1fTq5hjVrg9bp8tlCy6L6SWUoz3KfGA+Xas9u/1dSn8pQ3oevZF2sPa+dWX9nXY/rMZtUN1TuC/xJmL1dxvrR//XGlbCzoWF8XbH1S1tIS5RpvgWGdVNbSEuUq+Dor27wNKrQ7tHNTNwHCO9tTW+0f4hYbxhN4vb7xrnNr8x9X1tIS5cZUa+emXZ1j8K796rjlzoD3QyxwPVif16h1EbiWz6NNkm9WMzXDM6tZ13F7gwXkrv0MZI1asHvr+ayt2r9+iyq7vV441yC69X+eNISZfz+mnH/vvrVRqDb0iGQ/pdveVmnHqyYV9tRH099rVP0f5bzr57qx9u+Dlobc+eh6rZhh1aWjv9BTvwnbgl8AAAbd8A9s3kBz5dg2VfmSxb2/VMq98oYob3hq3KuqZzcbzilXetw2HTOkkaj0JUpv3Kuqos0d56UsXtUZkCaVKD0vKUhAM/CGRxnGEzXnt0pfWK7ons4LImrOb5We3qqTRXne0OgJlpmLFYbQ5t2Y5GyNnl/T7Dk0N00rc/JUGNcZxDxhzbBpycyJKlxol/zCmqSEWWq/Sbr+055KIZOVuzFWtTvWaLvD9wV7geZV+75AG4LPem+osC/Q2kUlWixDiIpJkE3qEnISx1mltibVySEFCRBdZ3vsmrduik6uX6Pt3iO2eRtUmL9B886G4Ut99nIV53s+v6/vrKUlKlynsIQ2T/Ct1/71T3sDjCecFq9L6Of1vKG2oUxFm4w/l4yOFkFnNYME5KylC6TSNSryHcperuL8JVrcEvrNS3zjjqnepiLfDc9eruJFG6ThtHHMEHX9n05LeTfrr6KWHwAwsgzzwLZKKXlJUuNev+ClQ9/VSe8fo+Z8TbFq0EljwDn0XZ2cXK4U+0xFabeu+I77zV5tVkvjbMXG3KooydNmfKyi5FLLue5HFJuTrijXMb/xXNnzGzXYlyhp8irpUF+D1iolpUertfybhhm+3TpXNVtJeVMVK/nP/F2j+GV2JapZ5S5n2VwAAA/OSURBVM80dx7cXaPylDzl2eIVr9NqlkXxYyWd/bhzh8kjzToz1660WIskY2C7WX/R6V7Km/xnN3xf8mMmSHJIyi5QqrVe+zcZZoAcu/ROQ4ZyJ+dIFQfUeN4pxXjfsy/Q2kV21e14WqUOu+JjJJej3q/vzgARbLbHodJNW/xG2GVMIWPXvMxkuaq3+QWFyv3VuntR4MxUKC63QHcnSY37jLNNB7R93xQV5/fverZ5X1Wi6rW/p5m5IGWRwcohK1982v+8iuNqzE9WTJxdIb7hnnE7q7XTeMMrylSbuSRIuWxkhaKU0Yz99KjpU92gr+izVOn6IP/e+NNvNmrFb0JzKQAAzGR4B7ZJnjDVeqL7EBQ1Llpq/H2XcNN6okHKi+0MY31xaK8aMpcoaWG5khSsFHKuomKkK44jAX3uVqvjUSXZb+379byfLSqvXJl5gW+6FDVJUgirguJiLdJZR5et/j842ay8nDGKk9Qst5ovSJpwq6aq2TvDFq/bo6XGI81+5/315pslfXpNY7LFxUqyKndjiXID33R6Z9VaWqWMWE8JY4Zd0b7NLrzfvdtavH8IDBBByyHVdVt7r7Zr+iTBJCvGKkVnLFFxRtd3Qx4QJ8QqWvV6J3DWquK4GvML+nW9xHFWqeEPhuAXTGBZZDfrBQNLQr2C7ih4jRLHWSVrhgo3Brnh45IV6oDYH8ECUbAg1NvmHmbrBwAA9G54B7ZBt1vnnt2tc5JiF5crxRumrhzzL60MpR7LLyOgpdUtTYhX3tY8+XLkxdrDXda5feHTawtrneoD1iAFONsql+yKt0saJ9Xuq5Yt8y7Z1KQYv/VVvgDhCXeJwTa/8IY1vzVUAaV+oTZ0ninWf36zkxOCBGRfWPNbR+ctWwzXoMK8RnCggj33bDj0039OfWHIP6sRAID+Gd5LAU59rCuSouLmdtvkynmXlDi1y+5ksZOTJFdr32fXArRu9zxH7WSjFGWf6d3wZLeutBlf+8xVrD1aavu479frw2cLJU8Qu1VTA45PTYmXXJfUIkmK19dSLWo84Hmmm+9/fmvXfJo+1Q2aqM9SBz6mupZWSbGeMNYdR5N39itHKTEO/XfFu6qTXV/OTlCMnGozbKHu2W4+WSnZ3tkeh/9sj2dGr17vDEqAqlebU4oe13U2LyzOtno/e8Bx70xjWy9bzXfhXTfYYUJs1/0PHe+qziklTs4J/viECbGKllO1+wey6Un/NZ53StZYvw1lzMA4c3Ut5YVm66ffEm7WX/QpgQ0AMOIM78CmzWo45lJU+hKl3Gs47N10RJKuHHPoipKUsniV//uJUmvVmgEHNg9PCaQxiLWeaJCi05UypzNoRc15VEnRLjUc6M9GId18tm54HlbcwwOie9H83se6qHjlPRXfeXBumvImSI1HTstY8DgmztJ7h02HdeNF6cqd1/BspYoy1TqtSl20XFndNqpXm9Mq27yvKsbxrurkCQWpmXZJrWo2BgRfgMgvCPossC4BsZtyvd451Nwmv1ATuNOl5FBpVb2UVNC3h0jbF2jtxhIVb+zpXvQ0JN9nN56fo8X5yVLDH/q14UbliXrJmqFcX/jrpoy04xl4SQXKDRKQPSHS6pmB840nYIfOvgoMY112w5RUV/oHNSpZuX36Z8TzgO/+PVQd1+KzOydKFz/t9j9adz66Xi/8dJNeWHnfoI4LAIBwG/YlkVf2fFNVLZ5dHzvWejXuVZVvm79Ta3SsyLPjY2bxbO9Blxpezuv3NvueXRsDvr4HbrN/6LuqOlei9IVLlJm+xHsw8PEAgdv+q2NdnLG/K3u+qWP6rdID17EF2do/cVzA/upG3p0cb+o4YOkoaezYiv/Iae084tacrWlaudXXzq2al8t18IjvdbP2HGjWypxZhjZeLod2rTEGu1d0fd0iKeN+tSf8k24c0N+aO1S6aZu0bkmXdWydW+17wlFqkjrK7XyleNFOhxoD+vOURVqDPyy7Yov2Ty5R7qISeSYGnardUaaYRQWGRl1DRaqvvaG0r/LFMqVsLOhYL+Wq3qad5xeo0Pjlv2KLiuTZFdFvHVuwsj3vTGK0knX3PLsq+z0L6FDppjVqXlridy9dxh0TFSToWAtUvLFAfhvEVGzRzrgNKswvUXG+d7zrjyt3o/E+eXT8LII9LNuxS6XV9s5+JDXu2+bZBMTQrEvY7Vj311kuW1e6S7V2w+9JQ5mK9k3p6NfjgLavlxYbfi4ewbb298yAJlqtSs3NUaljcGYBjUJVjmi2foJK+LmuJktR5cG39JekPzW1SbJKyZP1gA5qEOf+AAAIq+tSp8/6vL29PdLj6DDu5pt18cIFffbZZ5EeCvrLG/wuBT6brbut/fWY2r/3A7kv/F/F7I7sw7OHA1+Y6v9z4TAgwdY0DpIDWx7odpOP/u7uaKZ+guvrvycm6fF//J5mjGnQGz/cSmADAAwbw7wkEoMqcYxhlq7r8UstgWvZXtGN//FH3ZD8t2qbew2lkZCUo9wMq+Ss1n7C2iDwPHZh8NY0+usuBPU3HJmtn2A+m/sDuW86LWtvf6mTm68ZY6RLR/cR1gAAwwozbAip+GWztCA1cA2bWzUvHzaUTgZI+Llcj03Wja/cP8DSyJGtoyTQbzdFhEtHWahJd5QcVhJ+LtdjN2vUc3/Xff1+yrf0zNJ0jZF0+j/XafP+QRwfAACDgMAGAAAAACZFSSQAAAAAmBSBDQAAAABMisAGAAAAACZluuewnf/000gPAQAAAABMgRk2AAAAADApAhsAAAAAmBSBDQAAAABMynRr2CRJltV6NTNNFknuU1s1/3RVpEcEAAAAAIPOdA/O9uMNbk2139HK5kgPBgAAAAAGl7lLIt3PqbxJsiXMj/RIAAAAAGDQmTuwAQAAAMAIRmADAAAAAJMisAEAAACASZk+sO1oqpcSsrTBEumRAAAAAMDgMn1gU3ORHtpfqdjMX+v13GItivR4AAAAAGCQmPM5bAZZE1/U6kkt+t3+72hlpAcDAAAAAIPI9DNsk6JHS00fakekBwIAAAAAg8z0gQ0AAAAARioCGwAAAACYFIENAAAAAEzK5IFtvlITJLfrTKQHAgAAAACDzpy7RFpW69XMNFkkqWmvHjpdFekRAQAAAMCguy51+qzP29vbIz0OAAAAAEAAk5dEAgAAAMDIRWADAAAAAJMisAEAAACASRHYAAAAAMCkCGwAAAAAYFIENgAAAAAwKQIbAAAAAJhUaAPbva06UvqxikPaKQAAAACMTKENbIdite/MOc0ltAEAAADANQt5SWTRmjS94zynuSWuUHcNAAAAACNKGNaw3aDCl226dPsJvfF46HsHAAAAgJEiPJuOHIrVvjPSpKxWFXbT5M5H1+uFn27SM49OCssQAAAAAGCoC9sukUXvj5es/ytbuC4AAAAAAMPcdanTZ33e3t4e+p7vbdWRFXVqeWOGHvxV6LsHAAAAgOGO57ABAAAAgEmFObDFqOV0eK8AAAAAAMNV+ALbxP/VGI3W2UNhuwIAAAAADGvXh6vj4mnnJKdNdd28f+ej67VihlWq36cVzx8M1zAAAAAAYMgKzwzbva3Kv106VRmrnd00+VNTm+cPyZP1QFgGAQAAAABDWxgC21+0c2GdxpyZ3PPukPv36eil0F8dAAAAAIaLkJdEFpfU6G7reO1eFN1zw9x8zRgjXTq6T2+GehAAAAAAMAyENrDd26r828dr97xbVdRdm5Rv6Zml6Roj6fR/rtPm/SEdAQAAAAAMG+F7cDYAAAAA4Jrw4GwAAAAAMCkCGwAAAACYFIENAAAAAEyKwAYAAAAAJkVgAwAAAACTIrABAAAAgEkR2AAAAADApEL74OxezdX4tUuU1LZXVds39/GcVUopnq1YudTw8jd17tRAr23XvHVLlGrtPNK4b422Vwy0PwAAAAAIr0EObJGTtXSJUlWtnet3qS7SgwEAAACAPhgCgW2zThb1dTauOzlKSZIa9xHWAAAAAAwdI2MNmz1BMZEeAwAAAAD0U4hn2Lxr1KI7j7SW5+nkIf9WV843KGrOb5We7mvYoJNF31Wr95X/ewraJrT6tr7NNm+DCjMMjRrKVPTigSD9xWl79jTFnj6iufWXu73qD6fepwcsdXrp3XrtCdpikh7/x+9pxhinjr64Ub862Y+PBAAAAGDIC2Fg824O0rhXVc96Sxjv/aUy88qVHrdNx/bs7mgZlb5E6Y17VVW0Wb6Ql7J4VcdGJFf2fFNVhgTjCXD9HU/XEBadX6LifO8LZ7V2btqlOuVo8cYCJTaUqWiTN3xlL1dxfonWxm3Ts6UOSVLW0hLlJtVr//qnVSlJ3vOK1yV4+wEAAACA0ApZYIua8zXFqkEnjbs/HvquTk4uV4p9pqK0W1d8xxuNu0Tu1rmq2UrKm6pYKYQzaA6VblqjUkmyL9DaRRlqCzpr9lUlql77jTNlFVu0f3KJcu13ySaH6uwLdHeS1LhvizesSdIBbd83RcX5dn3ZLtU5QjZwg1P61f+7Tr8KR9cAAAAATC90gW1ctNT4+y6Bq/VEg5QXqyipM7AFOteqK7IrapKkAW/bPzCJ46xSwx8MQcyj8kS9cvNjlSipbkKsolWvdwIfAVBxXI35BYqZIOnCNJVNi/N/f+JMlU30/rnlfRV8IG3PnqYkv0Y2PZFt0xOeRnqz4n39NESfDQAAAMDQZo5dIsd7At2Q9un7KugIdN2vYVtccbDjz72vYQMAAAAwkoVsl8gr511Soqes0Sh2cpLkau1+dk1SVJynGPLKIM+uSVLjeaeUNEVZAcezJidLzlY1StLZVrmUrJTsgEbZU5Qop9rODs5YAQAAAIwsoQtsxxy6oiSlLF7VefDeXyolUWqtWtN9YJtUopT0aF05tndg69fsC7R2Y4mKN27QPHv/T6+rdsilZOUuzek8mL1cuUlSY5V3MxHHu6pzSon5yw3BLkeL85Olhj+oNCzr1yTPLpGb9MJPN2lVbriuAQAAAMCsQlcSeWqNjhV5dorMLJ7tPehSw8t5Otcxc7ZbV9qWSInGNsG3/u+zCbEKfABAvzh26dn1TZ4dHzcWeA86VbtjjSGIeTYwaV5aotyNJfJlJ1f1NhUFTWstfqWP3fnpBwd7Wa92Sp+0SRojTZx2n7S/9z4BAAAADB/XpU6f9Xl7e3ukx9GjqDm/VbrdoWPP9jBTN1ylfEvPLE3XmPp9WvE8gQ0AAAAYSUJWEhk6q5SytsSwCckqJaVH64rjyMgLa5IemJ2uMXLq6F7CGgAAADDSmHOG7d5fKjOvc/P7K8f8H7w9Etz56HqtmGGV1KA3frhVb0Z6QAAAAAAGnTkDGwAAAADAjCWRAAAAAACJwAYAAAAApvUFyiEBAAAAwJyYYQMAAAAAkyKwAQAAAIBJ/f/wOoo83l3KdQAAAABJRU5ErkJggg==;" parent="1" vertex="1">
                    <mxGeometry x="-827" y="757" width="876" height="485" as="geometry"/>
                </mxCell>
                <mxCell id="4" value="&lt;div style=&quot;text-align: left;&quot;&gt;&lt;span style=&quot;font-size: 24px;&quot;&gt;&amp;nbsp; &amp;nbsp; 本质上利用了副作用函数重新执行时的可调度性。&lt;/span&gt;&lt;/div&gt;&lt;div style=&quot;text-align: left;&quot;&gt;&lt;span style=&quot;font-size: 24px;&quot;&gt;&amp;nbsp; &amp;nbsp; 1、一个watch本身会创建一个effect，当这个effect依赖的响应式数据发生变化时，我们只需要执行调度器（sheduler）中用户通过watch函数注册的回调函数即可。&lt;/span&gt;&lt;/div&gt;" style="text;strokeColor=none;align=center;fillColor=none;html=1;verticalAlign=middle;whiteSpace=wrap;rounded=0;fontSize=14;fontColor=#FF3333;labelBackgroundColor=#FFFF00;" parent="1" vertex="1">
                    <mxGeometry x="130" y="590" width="540" height="180" as="geometry"/>
                </mxCell>
            </root>
        </mxGraphModel>
    </diagram>
</mxfile>